G04 #@! TF.GenerationSoftware,KiCad,Pcbnew,(5.1.0-0)*
G04 #@! TF.CreationDate,2019-06-18T08:50:15-07:00*
G04 #@! TF.ProjectId,airdata,61697264-6174-4612-9e6b-696361645f70,rev?*
G04 #@! TF.SameCoordinates,Original*
G04 #@! TF.FileFunction,Copper,L2,Bot*
G04 #@! TF.FilePolarity,Positive*
%FSLAX46Y46*%
G04 Gerber Fmt 4.6, Leading zero omitted, Abs format (unit mm)*
G04 Created by KiCad (PCBNEW (5.1.0-0)) date 2019-06-18 08:50:15*
%MOMM*%
%LPD*%
G04 APERTURE LIST*
%ADD10C,0.100000*%
%ADD11C,1.000000*%
%ADD12C,0.600000*%
%ADD13C,0.700000*%
%ADD14C,4.400000*%
%ADD15C,0.875000*%
%ADD16R,0.650000X1.220000*%
%ADD17C,0.800000*%
%ADD18C,0.160000*%
%ADD19C,0.250000*%
%ADD20C,0.254000*%
G04 APERTURE END LIST*
D10*
G36*
X44999504Y-44301204D02*
G01*
X45023773Y-44304804D01*
X45047571Y-44310765D01*
X45070671Y-44319030D01*
X45092849Y-44329520D01*
X45113893Y-44342133D01*
X45133598Y-44356747D01*
X45151777Y-44373223D01*
X45168253Y-44391402D01*
X45182867Y-44411107D01*
X45195480Y-44432151D01*
X45205970Y-44454329D01*
X45214235Y-44477429D01*
X45220196Y-44501227D01*
X45223796Y-44525496D01*
X45225000Y-44550000D01*
X45225000Y-46750000D01*
X45223796Y-46774504D01*
X45220196Y-46798773D01*
X45214235Y-46822571D01*
X45205970Y-46845671D01*
X45195480Y-46867849D01*
X45182867Y-46888893D01*
X45168253Y-46908598D01*
X45151777Y-46926777D01*
X45133598Y-46943253D01*
X45113893Y-46957867D01*
X45092849Y-46970480D01*
X45070671Y-46980970D01*
X45047571Y-46989235D01*
X45023773Y-46995196D01*
X44999504Y-46998796D01*
X44975000Y-47000000D01*
X44475000Y-47000000D01*
X44450496Y-46998796D01*
X44426227Y-46995196D01*
X44402429Y-46989235D01*
X44379329Y-46980970D01*
X44357151Y-46970480D01*
X44336107Y-46957867D01*
X44316402Y-46943253D01*
X44298223Y-46926777D01*
X44281747Y-46908598D01*
X44267133Y-46888893D01*
X44254520Y-46867849D01*
X44244030Y-46845671D01*
X44235765Y-46822571D01*
X44229804Y-46798773D01*
X44226204Y-46774504D01*
X44225000Y-46750000D01*
X44225000Y-44550000D01*
X44226204Y-44525496D01*
X44229804Y-44501227D01*
X44235765Y-44477429D01*
X44244030Y-44454329D01*
X44254520Y-44432151D01*
X44267133Y-44411107D01*
X44281747Y-44391402D01*
X44298223Y-44373223D01*
X44316402Y-44356747D01*
X44336107Y-44342133D01*
X44357151Y-44329520D01*
X44379329Y-44319030D01*
X44402429Y-44310765D01*
X44426227Y-44304804D01*
X44450496Y-44301204D01*
X44475000Y-44300000D01*
X44975000Y-44300000D01*
X44999504Y-44301204D01*
X44999504Y-44301204D01*
G37*
D11*
X44725000Y-45650000D03*
D10*
G36*
X37549504Y-44301204D02*
G01*
X37573773Y-44304804D01*
X37597571Y-44310765D01*
X37620671Y-44319030D01*
X37642849Y-44329520D01*
X37663893Y-44342133D01*
X37683598Y-44356747D01*
X37701777Y-44373223D01*
X37718253Y-44391402D01*
X37732867Y-44411107D01*
X37745480Y-44432151D01*
X37755970Y-44454329D01*
X37764235Y-44477429D01*
X37770196Y-44501227D01*
X37773796Y-44525496D01*
X37775000Y-44550000D01*
X37775000Y-46750000D01*
X37773796Y-46774504D01*
X37770196Y-46798773D01*
X37764235Y-46822571D01*
X37755970Y-46845671D01*
X37745480Y-46867849D01*
X37732867Y-46888893D01*
X37718253Y-46908598D01*
X37701777Y-46926777D01*
X37683598Y-46943253D01*
X37663893Y-46957867D01*
X37642849Y-46970480D01*
X37620671Y-46980970D01*
X37597571Y-46989235D01*
X37573773Y-46995196D01*
X37549504Y-46998796D01*
X37525000Y-47000000D01*
X37025000Y-47000000D01*
X37000496Y-46998796D01*
X36976227Y-46995196D01*
X36952429Y-46989235D01*
X36929329Y-46980970D01*
X36907151Y-46970480D01*
X36886107Y-46957867D01*
X36866402Y-46943253D01*
X36848223Y-46926777D01*
X36831747Y-46908598D01*
X36817133Y-46888893D01*
X36804520Y-46867849D01*
X36794030Y-46845671D01*
X36785765Y-46822571D01*
X36779804Y-46798773D01*
X36776204Y-46774504D01*
X36775000Y-46750000D01*
X36775000Y-44550000D01*
X36776204Y-44525496D01*
X36779804Y-44501227D01*
X36785765Y-44477429D01*
X36794030Y-44454329D01*
X36804520Y-44432151D01*
X36817133Y-44411107D01*
X36831747Y-44391402D01*
X36848223Y-44373223D01*
X36866402Y-44356747D01*
X36886107Y-44342133D01*
X36907151Y-44329520D01*
X36929329Y-44319030D01*
X36952429Y-44310765D01*
X36976227Y-44304804D01*
X37000496Y-44301204D01*
X37025000Y-44300000D01*
X37525000Y-44300000D01*
X37549504Y-44301204D01*
X37549504Y-44301204D01*
G37*
D11*
X37275000Y-45650000D03*
D10*
G36*
X43039703Y-48000722D02*
G01*
X43054264Y-48002882D01*
X43068543Y-48006459D01*
X43082403Y-48011418D01*
X43095710Y-48017712D01*
X43108336Y-48025280D01*
X43120159Y-48034048D01*
X43131066Y-48043934D01*
X43140952Y-48054841D01*
X43149720Y-48066664D01*
X43157288Y-48079290D01*
X43163582Y-48092597D01*
X43168541Y-48106457D01*
X43172118Y-48120736D01*
X43174278Y-48135297D01*
X43175000Y-48150000D01*
X43175000Y-49550000D01*
X43174278Y-49564703D01*
X43172118Y-49579264D01*
X43168541Y-49593543D01*
X43163582Y-49607403D01*
X43157288Y-49620710D01*
X43149720Y-49633336D01*
X43140952Y-49645159D01*
X43131066Y-49656066D01*
X43120159Y-49665952D01*
X43108336Y-49674720D01*
X43095710Y-49682288D01*
X43082403Y-49688582D01*
X43068543Y-49693541D01*
X43054264Y-49697118D01*
X43039703Y-49699278D01*
X43025000Y-49700000D01*
X42725000Y-49700000D01*
X42710297Y-49699278D01*
X42695736Y-49697118D01*
X42681457Y-49693541D01*
X42667597Y-49688582D01*
X42654290Y-49682288D01*
X42641664Y-49674720D01*
X42629841Y-49665952D01*
X42618934Y-49656066D01*
X42609048Y-49645159D01*
X42600280Y-49633336D01*
X42592712Y-49620710D01*
X42586418Y-49607403D01*
X42581459Y-49593543D01*
X42577882Y-49579264D01*
X42575722Y-49564703D01*
X42575000Y-49550000D01*
X42575000Y-48150000D01*
X42575722Y-48135297D01*
X42577882Y-48120736D01*
X42581459Y-48106457D01*
X42586418Y-48092597D01*
X42592712Y-48079290D01*
X42600280Y-48066664D01*
X42609048Y-48054841D01*
X42618934Y-48043934D01*
X42629841Y-48034048D01*
X42641664Y-48025280D01*
X42654290Y-48017712D01*
X42667597Y-48011418D01*
X42681457Y-48006459D01*
X42695736Y-48002882D01*
X42710297Y-48000722D01*
X42725000Y-48000000D01*
X43025000Y-48000000D01*
X43039703Y-48000722D01*
X43039703Y-48000722D01*
G37*
D12*
X42875000Y-48850000D03*
D10*
G36*
X41789703Y-48000722D02*
G01*
X41804264Y-48002882D01*
X41818543Y-48006459D01*
X41832403Y-48011418D01*
X41845710Y-48017712D01*
X41858336Y-48025280D01*
X41870159Y-48034048D01*
X41881066Y-48043934D01*
X41890952Y-48054841D01*
X41899720Y-48066664D01*
X41907288Y-48079290D01*
X41913582Y-48092597D01*
X41918541Y-48106457D01*
X41922118Y-48120736D01*
X41924278Y-48135297D01*
X41925000Y-48150000D01*
X41925000Y-49550000D01*
X41924278Y-49564703D01*
X41922118Y-49579264D01*
X41918541Y-49593543D01*
X41913582Y-49607403D01*
X41907288Y-49620710D01*
X41899720Y-49633336D01*
X41890952Y-49645159D01*
X41881066Y-49656066D01*
X41870159Y-49665952D01*
X41858336Y-49674720D01*
X41845710Y-49682288D01*
X41832403Y-49688582D01*
X41818543Y-49693541D01*
X41804264Y-49697118D01*
X41789703Y-49699278D01*
X41775000Y-49700000D01*
X41475000Y-49700000D01*
X41460297Y-49699278D01*
X41445736Y-49697118D01*
X41431457Y-49693541D01*
X41417597Y-49688582D01*
X41404290Y-49682288D01*
X41391664Y-49674720D01*
X41379841Y-49665952D01*
X41368934Y-49656066D01*
X41359048Y-49645159D01*
X41350280Y-49633336D01*
X41342712Y-49620710D01*
X41336418Y-49607403D01*
X41331459Y-49593543D01*
X41327882Y-49579264D01*
X41325722Y-49564703D01*
X41325000Y-49550000D01*
X41325000Y-48150000D01*
X41325722Y-48135297D01*
X41327882Y-48120736D01*
X41331459Y-48106457D01*
X41336418Y-48092597D01*
X41342712Y-48079290D01*
X41350280Y-48066664D01*
X41359048Y-48054841D01*
X41368934Y-48043934D01*
X41379841Y-48034048D01*
X41391664Y-48025280D01*
X41404290Y-48017712D01*
X41417597Y-48011418D01*
X41431457Y-48006459D01*
X41445736Y-48002882D01*
X41460297Y-48000722D01*
X41475000Y-48000000D01*
X41775000Y-48000000D01*
X41789703Y-48000722D01*
X41789703Y-48000722D01*
G37*
D12*
X41625000Y-48850000D03*
D10*
G36*
X40539703Y-48000722D02*
G01*
X40554264Y-48002882D01*
X40568543Y-48006459D01*
X40582403Y-48011418D01*
X40595710Y-48017712D01*
X40608336Y-48025280D01*
X40620159Y-48034048D01*
X40631066Y-48043934D01*
X40640952Y-48054841D01*
X40649720Y-48066664D01*
X40657288Y-48079290D01*
X40663582Y-48092597D01*
X40668541Y-48106457D01*
X40672118Y-48120736D01*
X40674278Y-48135297D01*
X40675000Y-48150000D01*
X40675000Y-49550000D01*
X40674278Y-49564703D01*
X40672118Y-49579264D01*
X40668541Y-49593543D01*
X40663582Y-49607403D01*
X40657288Y-49620710D01*
X40649720Y-49633336D01*
X40640952Y-49645159D01*
X40631066Y-49656066D01*
X40620159Y-49665952D01*
X40608336Y-49674720D01*
X40595710Y-49682288D01*
X40582403Y-49688582D01*
X40568543Y-49693541D01*
X40554264Y-49697118D01*
X40539703Y-49699278D01*
X40525000Y-49700000D01*
X40225000Y-49700000D01*
X40210297Y-49699278D01*
X40195736Y-49697118D01*
X40181457Y-49693541D01*
X40167597Y-49688582D01*
X40154290Y-49682288D01*
X40141664Y-49674720D01*
X40129841Y-49665952D01*
X40118934Y-49656066D01*
X40109048Y-49645159D01*
X40100280Y-49633336D01*
X40092712Y-49620710D01*
X40086418Y-49607403D01*
X40081459Y-49593543D01*
X40077882Y-49579264D01*
X40075722Y-49564703D01*
X40075000Y-49550000D01*
X40075000Y-48150000D01*
X40075722Y-48135297D01*
X40077882Y-48120736D01*
X40081459Y-48106457D01*
X40086418Y-48092597D01*
X40092712Y-48079290D01*
X40100280Y-48066664D01*
X40109048Y-48054841D01*
X40118934Y-48043934D01*
X40129841Y-48034048D01*
X40141664Y-48025280D01*
X40154290Y-48017712D01*
X40167597Y-48011418D01*
X40181457Y-48006459D01*
X40195736Y-48002882D01*
X40210297Y-48000722D01*
X40225000Y-48000000D01*
X40525000Y-48000000D01*
X40539703Y-48000722D01*
X40539703Y-48000722D01*
G37*
D12*
X40375000Y-48850000D03*
D10*
G36*
X39289703Y-48000722D02*
G01*
X39304264Y-48002882D01*
X39318543Y-48006459D01*
X39332403Y-48011418D01*
X39345710Y-48017712D01*
X39358336Y-48025280D01*
X39370159Y-48034048D01*
X39381066Y-48043934D01*
X39390952Y-48054841D01*
X39399720Y-48066664D01*
X39407288Y-48079290D01*
X39413582Y-48092597D01*
X39418541Y-48106457D01*
X39422118Y-48120736D01*
X39424278Y-48135297D01*
X39425000Y-48150000D01*
X39425000Y-49550000D01*
X39424278Y-49564703D01*
X39422118Y-49579264D01*
X39418541Y-49593543D01*
X39413582Y-49607403D01*
X39407288Y-49620710D01*
X39399720Y-49633336D01*
X39390952Y-49645159D01*
X39381066Y-49656066D01*
X39370159Y-49665952D01*
X39358336Y-49674720D01*
X39345710Y-49682288D01*
X39332403Y-49688582D01*
X39318543Y-49693541D01*
X39304264Y-49697118D01*
X39289703Y-49699278D01*
X39275000Y-49700000D01*
X38975000Y-49700000D01*
X38960297Y-49699278D01*
X38945736Y-49697118D01*
X38931457Y-49693541D01*
X38917597Y-49688582D01*
X38904290Y-49682288D01*
X38891664Y-49674720D01*
X38879841Y-49665952D01*
X38868934Y-49656066D01*
X38859048Y-49645159D01*
X38850280Y-49633336D01*
X38842712Y-49620710D01*
X38836418Y-49607403D01*
X38831459Y-49593543D01*
X38827882Y-49579264D01*
X38825722Y-49564703D01*
X38825000Y-49550000D01*
X38825000Y-48150000D01*
X38825722Y-48135297D01*
X38827882Y-48120736D01*
X38831459Y-48106457D01*
X38836418Y-48092597D01*
X38842712Y-48079290D01*
X38850280Y-48066664D01*
X38859048Y-48054841D01*
X38868934Y-48043934D01*
X38879841Y-48034048D01*
X38891664Y-48025280D01*
X38904290Y-48017712D01*
X38917597Y-48011418D01*
X38931457Y-48006459D01*
X38945736Y-48002882D01*
X38960297Y-48000722D01*
X38975000Y-48000000D01*
X39275000Y-48000000D01*
X39289703Y-48000722D01*
X39289703Y-48000722D01*
G37*
D12*
X39125000Y-48850000D03*
D13*
X50666726Y-51833274D03*
X49500000Y-51350000D03*
X48333274Y-51833274D03*
X47850000Y-53000000D03*
X48333274Y-54166726D03*
X49500000Y-54650000D03*
X50666726Y-54166726D03*
X51150000Y-53000000D03*
D14*
X49500000Y-53000000D03*
D10*
G36*
X45027691Y-60626053D02*
G01*
X45048926Y-60629203D01*
X45069750Y-60634419D01*
X45089962Y-60641651D01*
X45109368Y-60650830D01*
X45127781Y-60661866D01*
X45145024Y-60674654D01*
X45160930Y-60689070D01*
X45175346Y-60704976D01*
X45188134Y-60722219D01*
X45199170Y-60740632D01*
X45208349Y-60760038D01*
X45215581Y-60780250D01*
X45220797Y-60801074D01*
X45223947Y-60822309D01*
X45225000Y-60843750D01*
X45225000Y-61356250D01*
X45223947Y-61377691D01*
X45220797Y-61398926D01*
X45215581Y-61419750D01*
X45208349Y-61439962D01*
X45199170Y-61459368D01*
X45188134Y-61477781D01*
X45175346Y-61495024D01*
X45160930Y-61510930D01*
X45145024Y-61525346D01*
X45127781Y-61538134D01*
X45109368Y-61549170D01*
X45089962Y-61558349D01*
X45069750Y-61565581D01*
X45048926Y-61570797D01*
X45027691Y-61573947D01*
X45006250Y-61575000D01*
X44568750Y-61575000D01*
X44547309Y-61573947D01*
X44526074Y-61570797D01*
X44505250Y-61565581D01*
X44485038Y-61558349D01*
X44465632Y-61549170D01*
X44447219Y-61538134D01*
X44429976Y-61525346D01*
X44414070Y-61510930D01*
X44399654Y-61495024D01*
X44386866Y-61477781D01*
X44375830Y-61459368D01*
X44366651Y-61439962D01*
X44359419Y-61419750D01*
X44354203Y-61398926D01*
X44351053Y-61377691D01*
X44350000Y-61356250D01*
X44350000Y-60843750D01*
X44351053Y-60822309D01*
X44354203Y-60801074D01*
X44359419Y-60780250D01*
X44366651Y-60760038D01*
X44375830Y-60740632D01*
X44386866Y-60722219D01*
X44399654Y-60704976D01*
X44414070Y-60689070D01*
X44429976Y-60674654D01*
X44447219Y-60661866D01*
X44465632Y-60650830D01*
X44485038Y-60641651D01*
X44505250Y-60634419D01*
X44526074Y-60629203D01*
X44547309Y-60626053D01*
X44568750Y-60625000D01*
X45006250Y-60625000D01*
X45027691Y-60626053D01*
X45027691Y-60626053D01*
G37*
D15*
X44787500Y-61100000D03*
D10*
G36*
X43452691Y-60626053D02*
G01*
X43473926Y-60629203D01*
X43494750Y-60634419D01*
X43514962Y-60641651D01*
X43534368Y-60650830D01*
X43552781Y-60661866D01*
X43570024Y-60674654D01*
X43585930Y-60689070D01*
X43600346Y-60704976D01*
X43613134Y-60722219D01*
X43624170Y-60740632D01*
X43633349Y-60760038D01*
X43640581Y-60780250D01*
X43645797Y-60801074D01*
X43648947Y-60822309D01*
X43650000Y-60843750D01*
X43650000Y-61356250D01*
X43648947Y-61377691D01*
X43645797Y-61398926D01*
X43640581Y-61419750D01*
X43633349Y-61439962D01*
X43624170Y-61459368D01*
X43613134Y-61477781D01*
X43600346Y-61495024D01*
X43585930Y-61510930D01*
X43570024Y-61525346D01*
X43552781Y-61538134D01*
X43534368Y-61549170D01*
X43514962Y-61558349D01*
X43494750Y-61565581D01*
X43473926Y-61570797D01*
X43452691Y-61573947D01*
X43431250Y-61575000D01*
X42993750Y-61575000D01*
X42972309Y-61573947D01*
X42951074Y-61570797D01*
X42930250Y-61565581D01*
X42910038Y-61558349D01*
X42890632Y-61549170D01*
X42872219Y-61538134D01*
X42854976Y-61525346D01*
X42839070Y-61510930D01*
X42824654Y-61495024D01*
X42811866Y-61477781D01*
X42800830Y-61459368D01*
X42791651Y-61439962D01*
X42784419Y-61419750D01*
X42779203Y-61398926D01*
X42776053Y-61377691D01*
X42775000Y-61356250D01*
X42775000Y-60843750D01*
X42776053Y-60822309D01*
X42779203Y-60801074D01*
X42784419Y-60780250D01*
X42791651Y-60760038D01*
X42800830Y-60740632D01*
X42811866Y-60722219D01*
X42824654Y-60704976D01*
X42839070Y-60689070D01*
X42854976Y-60674654D01*
X42872219Y-60661866D01*
X42890632Y-60650830D01*
X42910038Y-60641651D01*
X42930250Y-60634419D01*
X42951074Y-60629203D01*
X42972309Y-60626053D01*
X42993750Y-60625000D01*
X43431250Y-60625000D01*
X43452691Y-60626053D01*
X43452691Y-60626053D01*
G37*
D15*
X43212500Y-61100000D03*
D10*
G36*
X37577691Y-51276053D02*
G01*
X37598926Y-51279203D01*
X37619750Y-51284419D01*
X37639962Y-51291651D01*
X37659368Y-51300830D01*
X37677781Y-51311866D01*
X37695024Y-51324654D01*
X37710930Y-51339070D01*
X37725346Y-51354976D01*
X37738134Y-51372219D01*
X37749170Y-51390632D01*
X37758349Y-51410038D01*
X37765581Y-51430250D01*
X37770797Y-51451074D01*
X37773947Y-51472309D01*
X37775000Y-51493750D01*
X37775000Y-51931250D01*
X37773947Y-51952691D01*
X37770797Y-51973926D01*
X37765581Y-51994750D01*
X37758349Y-52014962D01*
X37749170Y-52034368D01*
X37738134Y-52052781D01*
X37725346Y-52070024D01*
X37710930Y-52085930D01*
X37695024Y-52100346D01*
X37677781Y-52113134D01*
X37659368Y-52124170D01*
X37639962Y-52133349D01*
X37619750Y-52140581D01*
X37598926Y-52145797D01*
X37577691Y-52148947D01*
X37556250Y-52150000D01*
X37043750Y-52150000D01*
X37022309Y-52148947D01*
X37001074Y-52145797D01*
X36980250Y-52140581D01*
X36960038Y-52133349D01*
X36940632Y-52124170D01*
X36922219Y-52113134D01*
X36904976Y-52100346D01*
X36889070Y-52085930D01*
X36874654Y-52070024D01*
X36861866Y-52052781D01*
X36850830Y-52034368D01*
X36841651Y-52014962D01*
X36834419Y-51994750D01*
X36829203Y-51973926D01*
X36826053Y-51952691D01*
X36825000Y-51931250D01*
X36825000Y-51493750D01*
X36826053Y-51472309D01*
X36829203Y-51451074D01*
X36834419Y-51430250D01*
X36841651Y-51410038D01*
X36850830Y-51390632D01*
X36861866Y-51372219D01*
X36874654Y-51354976D01*
X36889070Y-51339070D01*
X36904976Y-51324654D01*
X36922219Y-51311866D01*
X36940632Y-51300830D01*
X36960038Y-51291651D01*
X36980250Y-51284419D01*
X37001074Y-51279203D01*
X37022309Y-51276053D01*
X37043750Y-51275000D01*
X37556250Y-51275000D01*
X37577691Y-51276053D01*
X37577691Y-51276053D01*
G37*
D15*
X37300000Y-51712500D03*
D10*
G36*
X37577691Y-52851053D02*
G01*
X37598926Y-52854203D01*
X37619750Y-52859419D01*
X37639962Y-52866651D01*
X37659368Y-52875830D01*
X37677781Y-52886866D01*
X37695024Y-52899654D01*
X37710930Y-52914070D01*
X37725346Y-52929976D01*
X37738134Y-52947219D01*
X37749170Y-52965632D01*
X37758349Y-52985038D01*
X37765581Y-53005250D01*
X37770797Y-53026074D01*
X37773947Y-53047309D01*
X37775000Y-53068750D01*
X37775000Y-53506250D01*
X37773947Y-53527691D01*
X37770797Y-53548926D01*
X37765581Y-53569750D01*
X37758349Y-53589962D01*
X37749170Y-53609368D01*
X37738134Y-53627781D01*
X37725346Y-53645024D01*
X37710930Y-53660930D01*
X37695024Y-53675346D01*
X37677781Y-53688134D01*
X37659368Y-53699170D01*
X37639962Y-53708349D01*
X37619750Y-53715581D01*
X37598926Y-53720797D01*
X37577691Y-53723947D01*
X37556250Y-53725000D01*
X37043750Y-53725000D01*
X37022309Y-53723947D01*
X37001074Y-53720797D01*
X36980250Y-53715581D01*
X36960038Y-53708349D01*
X36940632Y-53699170D01*
X36922219Y-53688134D01*
X36904976Y-53675346D01*
X36889070Y-53660930D01*
X36874654Y-53645024D01*
X36861866Y-53627781D01*
X36850830Y-53609368D01*
X36841651Y-53589962D01*
X36834419Y-53569750D01*
X36829203Y-53548926D01*
X36826053Y-53527691D01*
X36825000Y-53506250D01*
X36825000Y-53068750D01*
X36826053Y-53047309D01*
X36829203Y-53026074D01*
X36834419Y-53005250D01*
X36841651Y-52985038D01*
X36850830Y-52965632D01*
X36861866Y-52947219D01*
X36874654Y-52929976D01*
X36889070Y-52914070D01*
X36904976Y-52899654D01*
X36922219Y-52886866D01*
X36940632Y-52875830D01*
X36960038Y-52866651D01*
X36980250Y-52859419D01*
X37001074Y-52854203D01*
X37022309Y-52851053D01*
X37043750Y-52850000D01*
X37556250Y-52850000D01*
X37577691Y-52851053D01*
X37577691Y-52851053D01*
G37*
D15*
X37300000Y-53287500D03*
D10*
G36*
X40527691Y-59351053D02*
G01*
X40548926Y-59354203D01*
X40569750Y-59359419D01*
X40589962Y-59366651D01*
X40609368Y-59375830D01*
X40627781Y-59386866D01*
X40645024Y-59399654D01*
X40660930Y-59414070D01*
X40675346Y-59429976D01*
X40688134Y-59447219D01*
X40699170Y-59465632D01*
X40708349Y-59485038D01*
X40715581Y-59505250D01*
X40720797Y-59526074D01*
X40723947Y-59547309D01*
X40725000Y-59568750D01*
X40725000Y-60006250D01*
X40723947Y-60027691D01*
X40720797Y-60048926D01*
X40715581Y-60069750D01*
X40708349Y-60089962D01*
X40699170Y-60109368D01*
X40688134Y-60127781D01*
X40675346Y-60145024D01*
X40660930Y-60160930D01*
X40645024Y-60175346D01*
X40627781Y-60188134D01*
X40609368Y-60199170D01*
X40589962Y-60208349D01*
X40569750Y-60215581D01*
X40548926Y-60220797D01*
X40527691Y-60223947D01*
X40506250Y-60225000D01*
X39993750Y-60225000D01*
X39972309Y-60223947D01*
X39951074Y-60220797D01*
X39930250Y-60215581D01*
X39910038Y-60208349D01*
X39890632Y-60199170D01*
X39872219Y-60188134D01*
X39854976Y-60175346D01*
X39839070Y-60160930D01*
X39824654Y-60145024D01*
X39811866Y-60127781D01*
X39800830Y-60109368D01*
X39791651Y-60089962D01*
X39784419Y-60069750D01*
X39779203Y-60048926D01*
X39776053Y-60027691D01*
X39775000Y-60006250D01*
X39775000Y-59568750D01*
X39776053Y-59547309D01*
X39779203Y-59526074D01*
X39784419Y-59505250D01*
X39791651Y-59485038D01*
X39800830Y-59465632D01*
X39811866Y-59447219D01*
X39824654Y-59429976D01*
X39839070Y-59414070D01*
X39854976Y-59399654D01*
X39872219Y-59386866D01*
X39890632Y-59375830D01*
X39910038Y-59366651D01*
X39930250Y-59359419D01*
X39951074Y-59354203D01*
X39972309Y-59351053D01*
X39993750Y-59350000D01*
X40506250Y-59350000D01*
X40527691Y-59351053D01*
X40527691Y-59351053D01*
G37*
D15*
X40250000Y-59787500D03*
D10*
G36*
X40527691Y-57776053D02*
G01*
X40548926Y-57779203D01*
X40569750Y-57784419D01*
X40589962Y-57791651D01*
X40609368Y-57800830D01*
X40627781Y-57811866D01*
X40645024Y-57824654D01*
X40660930Y-57839070D01*
X40675346Y-57854976D01*
X40688134Y-57872219D01*
X40699170Y-57890632D01*
X40708349Y-57910038D01*
X40715581Y-57930250D01*
X40720797Y-57951074D01*
X40723947Y-57972309D01*
X40725000Y-57993750D01*
X40725000Y-58431250D01*
X40723947Y-58452691D01*
X40720797Y-58473926D01*
X40715581Y-58494750D01*
X40708349Y-58514962D01*
X40699170Y-58534368D01*
X40688134Y-58552781D01*
X40675346Y-58570024D01*
X40660930Y-58585930D01*
X40645024Y-58600346D01*
X40627781Y-58613134D01*
X40609368Y-58624170D01*
X40589962Y-58633349D01*
X40569750Y-58640581D01*
X40548926Y-58645797D01*
X40527691Y-58648947D01*
X40506250Y-58650000D01*
X39993750Y-58650000D01*
X39972309Y-58648947D01*
X39951074Y-58645797D01*
X39930250Y-58640581D01*
X39910038Y-58633349D01*
X39890632Y-58624170D01*
X39872219Y-58613134D01*
X39854976Y-58600346D01*
X39839070Y-58585930D01*
X39824654Y-58570024D01*
X39811866Y-58552781D01*
X39800830Y-58534368D01*
X39791651Y-58514962D01*
X39784419Y-58494750D01*
X39779203Y-58473926D01*
X39776053Y-58452691D01*
X39775000Y-58431250D01*
X39775000Y-57993750D01*
X39776053Y-57972309D01*
X39779203Y-57951074D01*
X39784419Y-57930250D01*
X39791651Y-57910038D01*
X39800830Y-57890632D01*
X39811866Y-57872219D01*
X39824654Y-57854976D01*
X39839070Y-57839070D01*
X39854976Y-57824654D01*
X39872219Y-57811866D01*
X39890632Y-57800830D01*
X39910038Y-57791651D01*
X39930250Y-57784419D01*
X39951074Y-57779203D01*
X39972309Y-57776053D01*
X39993750Y-57775000D01*
X40506250Y-57775000D01*
X40527691Y-57776053D01*
X40527691Y-57776053D01*
G37*
D15*
X40250000Y-58212500D03*
D10*
G36*
X40527691Y-54776053D02*
G01*
X40548926Y-54779203D01*
X40569750Y-54784419D01*
X40589962Y-54791651D01*
X40609368Y-54800830D01*
X40627781Y-54811866D01*
X40645024Y-54824654D01*
X40660930Y-54839070D01*
X40675346Y-54854976D01*
X40688134Y-54872219D01*
X40699170Y-54890632D01*
X40708349Y-54910038D01*
X40715581Y-54930250D01*
X40720797Y-54951074D01*
X40723947Y-54972309D01*
X40725000Y-54993750D01*
X40725000Y-55431250D01*
X40723947Y-55452691D01*
X40720797Y-55473926D01*
X40715581Y-55494750D01*
X40708349Y-55514962D01*
X40699170Y-55534368D01*
X40688134Y-55552781D01*
X40675346Y-55570024D01*
X40660930Y-55585930D01*
X40645024Y-55600346D01*
X40627781Y-55613134D01*
X40609368Y-55624170D01*
X40589962Y-55633349D01*
X40569750Y-55640581D01*
X40548926Y-55645797D01*
X40527691Y-55648947D01*
X40506250Y-55650000D01*
X39993750Y-55650000D01*
X39972309Y-55648947D01*
X39951074Y-55645797D01*
X39930250Y-55640581D01*
X39910038Y-55633349D01*
X39890632Y-55624170D01*
X39872219Y-55613134D01*
X39854976Y-55600346D01*
X39839070Y-55585930D01*
X39824654Y-55570024D01*
X39811866Y-55552781D01*
X39800830Y-55534368D01*
X39791651Y-55514962D01*
X39784419Y-55494750D01*
X39779203Y-55473926D01*
X39776053Y-55452691D01*
X39775000Y-55431250D01*
X39775000Y-54993750D01*
X39776053Y-54972309D01*
X39779203Y-54951074D01*
X39784419Y-54930250D01*
X39791651Y-54910038D01*
X39800830Y-54890632D01*
X39811866Y-54872219D01*
X39824654Y-54854976D01*
X39839070Y-54839070D01*
X39854976Y-54824654D01*
X39872219Y-54811866D01*
X39890632Y-54800830D01*
X39910038Y-54791651D01*
X39930250Y-54784419D01*
X39951074Y-54779203D01*
X39972309Y-54776053D01*
X39993750Y-54775000D01*
X40506250Y-54775000D01*
X40527691Y-54776053D01*
X40527691Y-54776053D01*
G37*
D15*
X40250000Y-55212500D03*
D10*
G36*
X40527691Y-56351053D02*
G01*
X40548926Y-56354203D01*
X40569750Y-56359419D01*
X40589962Y-56366651D01*
X40609368Y-56375830D01*
X40627781Y-56386866D01*
X40645024Y-56399654D01*
X40660930Y-56414070D01*
X40675346Y-56429976D01*
X40688134Y-56447219D01*
X40699170Y-56465632D01*
X40708349Y-56485038D01*
X40715581Y-56505250D01*
X40720797Y-56526074D01*
X40723947Y-56547309D01*
X40725000Y-56568750D01*
X40725000Y-57006250D01*
X40723947Y-57027691D01*
X40720797Y-57048926D01*
X40715581Y-57069750D01*
X40708349Y-57089962D01*
X40699170Y-57109368D01*
X40688134Y-57127781D01*
X40675346Y-57145024D01*
X40660930Y-57160930D01*
X40645024Y-57175346D01*
X40627781Y-57188134D01*
X40609368Y-57199170D01*
X40589962Y-57208349D01*
X40569750Y-57215581D01*
X40548926Y-57220797D01*
X40527691Y-57223947D01*
X40506250Y-57225000D01*
X39993750Y-57225000D01*
X39972309Y-57223947D01*
X39951074Y-57220797D01*
X39930250Y-57215581D01*
X39910038Y-57208349D01*
X39890632Y-57199170D01*
X39872219Y-57188134D01*
X39854976Y-57175346D01*
X39839070Y-57160930D01*
X39824654Y-57145024D01*
X39811866Y-57127781D01*
X39800830Y-57109368D01*
X39791651Y-57089962D01*
X39784419Y-57069750D01*
X39779203Y-57048926D01*
X39776053Y-57027691D01*
X39775000Y-57006250D01*
X39775000Y-56568750D01*
X39776053Y-56547309D01*
X39779203Y-56526074D01*
X39784419Y-56505250D01*
X39791651Y-56485038D01*
X39800830Y-56465632D01*
X39811866Y-56447219D01*
X39824654Y-56429976D01*
X39839070Y-56414070D01*
X39854976Y-56399654D01*
X39872219Y-56386866D01*
X39890632Y-56375830D01*
X39910038Y-56366651D01*
X39930250Y-56359419D01*
X39951074Y-56354203D01*
X39972309Y-56351053D01*
X39993750Y-56350000D01*
X40506250Y-56350000D01*
X40527691Y-56351053D01*
X40527691Y-56351053D01*
G37*
D15*
X40250000Y-56787500D03*
D10*
G36*
X46277691Y-47776053D02*
G01*
X46298926Y-47779203D01*
X46319750Y-47784419D01*
X46339962Y-47791651D01*
X46359368Y-47800830D01*
X46377781Y-47811866D01*
X46395024Y-47824654D01*
X46410930Y-47839070D01*
X46425346Y-47854976D01*
X46438134Y-47872219D01*
X46449170Y-47890632D01*
X46458349Y-47910038D01*
X46465581Y-47930250D01*
X46470797Y-47951074D01*
X46473947Y-47972309D01*
X46475000Y-47993750D01*
X46475000Y-48431250D01*
X46473947Y-48452691D01*
X46470797Y-48473926D01*
X46465581Y-48494750D01*
X46458349Y-48514962D01*
X46449170Y-48534368D01*
X46438134Y-48552781D01*
X46425346Y-48570024D01*
X46410930Y-48585930D01*
X46395024Y-48600346D01*
X46377781Y-48613134D01*
X46359368Y-48624170D01*
X46339962Y-48633349D01*
X46319750Y-48640581D01*
X46298926Y-48645797D01*
X46277691Y-48648947D01*
X46256250Y-48650000D01*
X45743750Y-48650000D01*
X45722309Y-48648947D01*
X45701074Y-48645797D01*
X45680250Y-48640581D01*
X45660038Y-48633349D01*
X45640632Y-48624170D01*
X45622219Y-48613134D01*
X45604976Y-48600346D01*
X45589070Y-48585930D01*
X45574654Y-48570024D01*
X45561866Y-48552781D01*
X45550830Y-48534368D01*
X45541651Y-48514962D01*
X45534419Y-48494750D01*
X45529203Y-48473926D01*
X45526053Y-48452691D01*
X45525000Y-48431250D01*
X45525000Y-47993750D01*
X45526053Y-47972309D01*
X45529203Y-47951074D01*
X45534419Y-47930250D01*
X45541651Y-47910038D01*
X45550830Y-47890632D01*
X45561866Y-47872219D01*
X45574654Y-47854976D01*
X45589070Y-47839070D01*
X45604976Y-47824654D01*
X45622219Y-47811866D01*
X45640632Y-47800830D01*
X45660038Y-47791651D01*
X45680250Y-47784419D01*
X45701074Y-47779203D01*
X45722309Y-47776053D01*
X45743750Y-47775000D01*
X46256250Y-47775000D01*
X46277691Y-47776053D01*
X46277691Y-47776053D01*
G37*
D15*
X46000000Y-48212500D03*
D10*
G36*
X46277691Y-49351053D02*
G01*
X46298926Y-49354203D01*
X46319750Y-49359419D01*
X46339962Y-49366651D01*
X46359368Y-49375830D01*
X46377781Y-49386866D01*
X46395024Y-49399654D01*
X46410930Y-49414070D01*
X46425346Y-49429976D01*
X46438134Y-49447219D01*
X46449170Y-49465632D01*
X46458349Y-49485038D01*
X46465581Y-49505250D01*
X46470797Y-49526074D01*
X46473947Y-49547309D01*
X46475000Y-49568750D01*
X46475000Y-50006250D01*
X46473947Y-50027691D01*
X46470797Y-50048926D01*
X46465581Y-50069750D01*
X46458349Y-50089962D01*
X46449170Y-50109368D01*
X46438134Y-50127781D01*
X46425346Y-50145024D01*
X46410930Y-50160930D01*
X46395024Y-50175346D01*
X46377781Y-50188134D01*
X46359368Y-50199170D01*
X46339962Y-50208349D01*
X46319750Y-50215581D01*
X46298926Y-50220797D01*
X46277691Y-50223947D01*
X46256250Y-50225000D01*
X45743750Y-50225000D01*
X45722309Y-50223947D01*
X45701074Y-50220797D01*
X45680250Y-50215581D01*
X45660038Y-50208349D01*
X45640632Y-50199170D01*
X45622219Y-50188134D01*
X45604976Y-50175346D01*
X45589070Y-50160930D01*
X45574654Y-50145024D01*
X45561866Y-50127781D01*
X45550830Y-50109368D01*
X45541651Y-50089962D01*
X45534419Y-50069750D01*
X45529203Y-50048926D01*
X45526053Y-50027691D01*
X45525000Y-50006250D01*
X45525000Y-49568750D01*
X45526053Y-49547309D01*
X45529203Y-49526074D01*
X45534419Y-49505250D01*
X45541651Y-49485038D01*
X45550830Y-49465632D01*
X45561866Y-49447219D01*
X45574654Y-49429976D01*
X45589070Y-49414070D01*
X45604976Y-49399654D01*
X45622219Y-49386866D01*
X45640632Y-49375830D01*
X45660038Y-49366651D01*
X45680250Y-49359419D01*
X45701074Y-49354203D01*
X45722309Y-49351053D01*
X45743750Y-49350000D01*
X46256250Y-49350000D01*
X46277691Y-49351053D01*
X46277691Y-49351053D01*
G37*
D15*
X46000000Y-49787500D03*
D10*
G36*
X36277691Y-49351053D02*
G01*
X36298926Y-49354203D01*
X36319750Y-49359419D01*
X36339962Y-49366651D01*
X36359368Y-49375830D01*
X36377781Y-49386866D01*
X36395024Y-49399654D01*
X36410930Y-49414070D01*
X36425346Y-49429976D01*
X36438134Y-49447219D01*
X36449170Y-49465632D01*
X36458349Y-49485038D01*
X36465581Y-49505250D01*
X36470797Y-49526074D01*
X36473947Y-49547309D01*
X36475000Y-49568750D01*
X36475000Y-50006250D01*
X36473947Y-50027691D01*
X36470797Y-50048926D01*
X36465581Y-50069750D01*
X36458349Y-50089962D01*
X36449170Y-50109368D01*
X36438134Y-50127781D01*
X36425346Y-50145024D01*
X36410930Y-50160930D01*
X36395024Y-50175346D01*
X36377781Y-50188134D01*
X36359368Y-50199170D01*
X36339962Y-50208349D01*
X36319750Y-50215581D01*
X36298926Y-50220797D01*
X36277691Y-50223947D01*
X36256250Y-50225000D01*
X35743750Y-50225000D01*
X35722309Y-50223947D01*
X35701074Y-50220797D01*
X35680250Y-50215581D01*
X35660038Y-50208349D01*
X35640632Y-50199170D01*
X35622219Y-50188134D01*
X35604976Y-50175346D01*
X35589070Y-50160930D01*
X35574654Y-50145024D01*
X35561866Y-50127781D01*
X35550830Y-50109368D01*
X35541651Y-50089962D01*
X35534419Y-50069750D01*
X35529203Y-50048926D01*
X35526053Y-50027691D01*
X35525000Y-50006250D01*
X35525000Y-49568750D01*
X35526053Y-49547309D01*
X35529203Y-49526074D01*
X35534419Y-49505250D01*
X35541651Y-49485038D01*
X35550830Y-49465632D01*
X35561866Y-49447219D01*
X35574654Y-49429976D01*
X35589070Y-49414070D01*
X35604976Y-49399654D01*
X35622219Y-49386866D01*
X35640632Y-49375830D01*
X35660038Y-49366651D01*
X35680250Y-49359419D01*
X35701074Y-49354203D01*
X35722309Y-49351053D01*
X35743750Y-49350000D01*
X36256250Y-49350000D01*
X36277691Y-49351053D01*
X36277691Y-49351053D01*
G37*
D15*
X36000000Y-49787500D03*
D10*
G36*
X36277691Y-47776053D02*
G01*
X36298926Y-47779203D01*
X36319750Y-47784419D01*
X36339962Y-47791651D01*
X36359368Y-47800830D01*
X36377781Y-47811866D01*
X36395024Y-47824654D01*
X36410930Y-47839070D01*
X36425346Y-47854976D01*
X36438134Y-47872219D01*
X36449170Y-47890632D01*
X36458349Y-47910038D01*
X36465581Y-47930250D01*
X36470797Y-47951074D01*
X36473947Y-47972309D01*
X36475000Y-47993750D01*
X36475000Y-48431250D01*
X36473947Y-48452691D01*
X36470797Y-48473926D01*
X36465581Y-48494750D01*
X36458349Y-48514962D01*
X36449170Y-48534368D01*
X36438134Y-48552781D01*
X36425346Y-48570024D01*
X36410930Y-48585930D01*
X36395024Y-48600346D01*
X36377781Y-48613134D01*
X36359368Y-48624170D01*
X36339962Y-48633349D01*
X36319750Y-48640581D01*
X36298926Y-48645797D01*
X36277691Y-48648947D01*
X36256250Y-48650000D01*
X35743750Y-48650000D01*
X35722309Y-48648947D01*
X35701074Y-48645797D01*
X35680250Y-48640581D01*
X35660038Y-48633349D01*
X35640632Y-48624170D01*
X35622219Y-48613134D01*
X35604976Y-48600346D01*
X35589070Y-48585930D01*
X35574654Y-48570024D01*
X35561866Y-48552781D01*
X35550830Y-48534368D01*
X35541651Y-48514962D01*
X35534419Y-48494750D01*
X35529203Y-48473926D01*
X35526053Y-48452691D01*
X35525000Y-48431250D01*
X35525000Y-47993750D01*
X35526053Y-47972309D01*
X35529203Y-47951074D01*
X35534419Y-47930250D01*
X35541651Y-47910038D01*
X35550830Y-47890632D01*
X35561866Y-47872219D01*
X35574654Y-47854976D01*
X35589070Y-47839070D01*
X35604976Y-47824654D01*
X35622219Y-47811866D01*
X35640632Y-47800830D01*
X35660038Y-47791651D01*
X35680250Y-47784419D01*
X35701074Y-47779203D01*
X35722309Y-47776053D01*
X35743750Y-47775000D01*
X36256250Y-47775000D01*
X36277691Y-47776053D01*
X36277691Y-47776053D01*
G37*
D15*
X36000000Y-48212500D03*
D13*
X33666726Y-51833274D03*
X32500000Y-51350000D03*
X31333274Y-51833274D03*
X30850000Y-53000000D03*
X31333274Y-54166726D03*
X32500000Y-54650000D03*
X33666726Y-54166726D03*
X34150000Y-53000000D03*
D14*
X32500000Y-53000000D03*
D16*
X45575000Y-55040000D03*
X43675000Y-55040000D03*
X43675000Y-57660000D03*
X44625000Y-57660000D03*
X45575000Y-57660000D03*
D11*
X40150000Y-52150000D03*
X40150000Y-44850000D03*
X35850000Y-44850000D03*
X40150000Y-61150000D03*
X40150000Y-53850000D03*
X35850000Y-53850000D03*
X46150000Y-61150000D03*
X41850000Y-61150000D03*
X41850000Y-53850000D03*
D10*
G36*
X42277691Y-57251053D02*
G01*
X42298926Y-57254203D01*
X42319750Y-57259419D01*
X42339962Y-57266651D01*
X42359368Y-57275830D01*
X42377781Y-57286866D01*
X42395024Y-57299654D01*
X42410930Y-57314070D01*
X42425346Y-57329976D01*
X42438134Y-57347219D01*
X42449170Y-57365632D01*
X42458349Y-57385038D01*
X42465581Y-57405250D01*
X42470797Y-57426074D01*
X42473947Y-57447309D01*
X42475000Y-57468750D01*
X42475000Y-57906250D01*
X42473947Y-57927691D01*
X42470797Y-57948926D01*
X42465581Y-57969750D01*
X42458349Y-57989962D01*
X42449170Y-58009368D01*
X42438134Y-58027781D01*
X42425346Y-58045024D01*
X42410930Y-58060930D01*
X42395024Y-58075346D01*
X42377781Y-58088134D01*
X42359368Y-58099170D01*
X42339962Y-58108349D01*
X42319750Y-58115581D01*
X42298926Y-58120797D01*
X42277691Y-58123947D01*
X42256250Y-58125000D01*
X41743750Y-58125000D01*
X41722309Y-58123947D01*
X41701074Y-58120797D01*
X41680250Y-58115581D01*
X41660038Y-58108349D01*
X41640632Y-58099170D01*
X41622219Y-58088134D01*
X41604976Y-58075346D01*
X41589070Y-58060930D01*
X41574654Y-58045024D01*
X41561866Y-58027781D01*
X41550830Y-58009368D01*
X41541651Y-57989962D01*
X41534419Y-57969750D01*
X41529203Y-57948926D01*
X41526053Y-57927691D01*
X41525000Y-57906250D01*
X41525000Y-57468750D01*
X41526053Y-57447309D01*
X41529203Y-57426074D01*
X41534419Y-57405250D01*
X41541651Y-57385038D01*
X41550830Y-57365632D01*
X41561866Y-57347219D01*
X41574654Y-57329976D01*
X41589070Y-57314070D01*
X41604976Y-57299654D01*
X41622219Y-57286866D01*
X41640632Y-57275830D01*
X41660038Y-57266651D01*
X41680250Y-57259419D01*
X41701074Y-57254203D01*
X41722309Y-57251053D01*
X41743750Y-57250000D01*
X42256250Y-57250000D01*
X42277691Y-57251053D01*
X42277691Y-57251053D01*
G37*
D15*
X42000000Y-57687500D03*
D10*
G36*
X42277691Y-55676053D02*
G01*
X42298926Y-55679203D01*
X42319750Y-55684419D01*
X42339962Y-55691651D01*
X42359368Y-55700830D01*
X42377781Y-55711866D01*
X42395024Y-55724654D01*
X42410930Y-55739070D01*
X42425346Y-55754976D01*
X42438134Y-55772219D01*
X42449170Y-55790632D01*
X42458349Y-55810038D01*
X42465581Y-55830250D01*
X42470797Y-55851074D01*
X42473947Y-55872309D01*
X42475000Y-55893750D01*
X42475000Y-56331250D01*
X42473947Y-56352691D01*
X42470797Y-56373926D01*
X42465581Y-56394750D01*
X42458349Y-56414962D01*
X42449170Y-56434368D01*
X42438134Y-56452781D01*
X42425346Y-56470024D01*
X42410930Y-56485930D01*
X42395024Y-56500346D01*
X42377781Y-56513134D01*
X42359368Y-56524170D01*
X42339962Y-56533349D01*
X42319750Y-56540581D01*
X42298926Y-56545797D01*
X42277691Y-56548947D01*
X42256250Y-56550000D01*
X41743750Y-56550000D01*
X41722309Y-56548947D01*
X41701074Y-56545797D01*
X41680250Y-56540581D01*
X41660038Y-56533349D01*
X41640632Y-56524170D01*
X41622219Y-56513134D01*
X41604976Y-56500346D01*
X41589070Y-56485930D01*
X41574654Y-56470024D01*
X41561866Y-56452781D01*
X41550830Y-56434368D01*
X41541651Y-56414962D01*
X41534419Y-56394750D01*
X41529203Y-56373926D01*
X41526053Y-56352691D01*
X41525000Y-56331250D01*
X41525000Y-55893750D01*
X41526053Y-55872309D01*
X41529203Y-55851074D01*
X41534419Y-55830250D01*
X41541651Y-55810038D01*
X41550830Y-55790632D01*
X41561866Y-55772219D01*
X41574654Y-55754976D01*
X41589070Y-55739070D01*
X41604976Y-55724654D01*
X41622219Y-55711866D01*
X41640632Y-55700830D01*
X41660038Y-55691651D01*
X41680250Y-55684419D01*
X41701074Y-55679203D01*
X41722309Y-55676053D01*
X41743750Y-55675000D01*
X42256250Y-55675000D01*
X42277691Y-55676053D01*
X42277691Y-55676053D01*
G37*
D15*
X42000000Y-56112500D03*
D10*
G36*
X44077691Y-52976053D02*
G01*
X44098926Y-52979203D01*
X44119750Y-52984419D01*
X44139962Y-52991651D01*
X44159368Y-53000830D01*
X44177781Y-53011866D01*
X44195024Y-53024654D01*
X44210930Y-53039070D01*
X44225346Y-53054976D01*
X44238134Y-53072219D01*
X44249170Y-53090632D01*
X44258349Y-53110038D01*
X44265581Y-53130250D01*
X44270797Y-53151074D01*
X44273947Y-53172309D01*
X44275000Y-53193750D01*
X44275000Y-53706250D01*
X44273947Y-53727691D01*
X44270797Y-53748926D01*
X44265581Y-53769750D01*
X44258349Y-53789962D01*
X44249170Y-53809368D01*
X44238134Y-53827781D01*
X44225346Y-53845024D01*
X44210930Y-53860930D01*
X44195024Y-53875346D01*
X44177781Y-53888134D01*
X44159368Y-53899170D01*
X44139962Y-53908349D01*
X44119750Y-53915581D01*
X44098926Y-53920797D01*
X44077691Y-53923947D01*
X44056250Y-53925000D01*
X43618750Y-53925000D01*
X43597309Y-53923947D01*
X43576074Y-53920797D01*
X43555250Y-53915581D01*
X43535038Y-53908349D01*
X43515632Y-53899170D01*
X43497219Y-53888134D01*
X43479976Y-53875346D01*
X43464070Y-53860930D01*
X43449654Y-53845024D01*
X43436866Y-53827781D01*
X43425830Y-53809368D01*
X43416651Y-53789962D01*
X43409419Y-53769750D01*
X43404203Y-53748926D01*
X43401053Y-53727691D01*
X43400000Y-53706250D01*
X43400000Y-53193750D01*
X43401053Y-53172309D01*
X43404203Y-53151074D01*
X43409419Y-53130250D01*
X43416651Y-53110038D01*
X43425830Y-53090632D01*
X43436866Y-53072219D01*
X43449654Y-53054976D01*
X43464070Y-53039070D01*
X43479976Y-53024654D01*
X43497219Y-53011866D01*
X43515632Y-53000830D01*
X43535038Y-52991651D01*
X43555250Y-52984419D01*
X43576074Y-52979203D01*
X43597309Y-52976053D01*
X43618750Y-52975000D01*
X44056250Y-52975000D01*
X44077691Y-52976053D01*
X44077691Y-52976053D01*
G37*
D15*
X43837500Y-53450000D03*
D10*
G36*
X45652691Y-52976053D02*
G01*
X45673926Y-52979203D01*
X45694750Y-52984419D01*
X45714962Y-52991651D01*
X45734368Y-53000830D01*
X45752781Y-53011866D01*
X45770024Y-53024654D01*
X45785930Y-53039070D01*
X45800346Y-53054976D01*
X45813134Y-53072219D01*
X45824170Y-53090632D01*
X45833349Y-53110038D01*
X45840581Y-53130250D01*
X45845797Y-53151074D01*
X45848947Y-53172309D01*
X45850000Y-53193750D01*
X45850000Y-53706250D01*
X45848947Y-53727691D01*
X45845797Y-53748926D01*
X45840581Y-53769750D01*
X45833349Y-53789962D01*
X45824170Y-53809368D01*
X45813134Y-53827781D01*
X45800346Y-53845024D01*
X45785930Y-53860930D01*
X45770024Y-53875346D01*
X45752781Y-53888134D01*
X45734368Y-53899170D01*
X45714962Y-53908349D01*
X45694750Y-53915581D01*
X45673926Y-53920797D01*
X45652691Y-53923947D01*
X45631250Y-53925000D01*
X45193750Y-53925000D01*
X45172309Y-53923947D01*
X45151074Y-53920797D01*
X45130250Y-53915581D01*
X45110038Y-53908349D01*
X45090632Y-53899170D01*
X45072219Y-53888134D01*
X45054976Y-53875346D01*
X45039070Y-53860930D01*
X45024654Y-53845024D01*
X45011866Y-53827781D01*
X45000830Y-53809368D01*
X44991651Y-53789962D01*
X44984419Y-53769750D01*
X44979203Y-53748926D01*
X44976053Y-53727691D01*
X44975000Y-53706250D01*
X44975000Y-53193750D01*
X44976053Y-53172309D01*
X44979203Y-53151074D01*
X44984419Y-53130250D01*
X44991651Y-53110038D01*
X45000830Y-53090632D01*
X45011866Y-53072219D01*
X45024654Y-53054976D01*
X45039070Y-53039070D01*
X45054976Y-53024654D01*
X45072219Y-53011866D01*
X45090632Y-53000830D01*
X45110038Y-52991651D01*
X45130250Y-52984419D01*
X45151074Y-52979203D01*
X45172309Y-52976053D01*
X45193750Y-52975000D01*
X45631250Y-52975000D01*
X45652691Y-52976053D01*
X45652691Y-52976053D01*
G37*
D15*
X45412500Y-53450000D03*
D10*
G36*
X44052691Y-51526053D02*
G01*
X44073926Y-51529203D01*
X44094750Y-51534419D01*
X44114962Y-51541651D01*
X44134368Y-51550830D01*
X44152781Y-51561866D01*
X44170024Y-51574654D01*
X44185930Y-51589070D01*
X44200346Y-51604976D01*
X44213134Y-51622219D01*
X44224170Y-51640632D01*
X44233349Y-51660038D01*
X44240581Y-51680250D01*
X44245797Y-51701074D01*
X44248947Y-51722309D01*
X44250000Y-51743750D01*
X44250000Y-52256250D01*
X44248947Y-52277691D01*
X44245797Y-52298926D01*
X44240581Y-52319750D01*
X44233349Y-52339962D01*
X44224170Y-52359368D01*
X44213134Y-52377781D01*
X44200346Y-52395024D01*
X44185930Y-52410930D01*
X44170024Y-52425346D01*
X44152781Y-52438134D01*
X44134368Y-52449170D01*
X44114962Y-52458349D01*
X44094750Y-52465581D01*
X44073926Y-52470797D01*
X44052691Y-52473947D01*
X44031250Y-52475000D01*
X43593750Y-52475000D01*
X43572309Y-52473947D01*
X43551074Y-52470797D01*
X43530250Y-52465581D01*
X43510038Y-52458349D01*
X43490632Y-52449170D01*
X43472219Y-52438134D01*
X43454976Y-52425346D01*
X43439070Y-52410930D01*
X43424654Y-52395024D01*
X43411866Y-52377781D01*
X43400830Y-52359368D01*
X43391651Y-52339962D01*
X43384419Y-52319750D01*
X43379203Y-52298926D01*
X43376053Y-52277691D01*
X43375000Y-52256250D01*
X43375000Y-51743750D01*
X43376053Y-51722309D01*
X43379203Y-51701074D01*
X43384419Y-51680250D01*
X43391651Y-51660038D01*
X43400830Y-51640632D01*
X43411866Y-51622219D01*
X43424654Y-51604976D01*
X43439070Y-51589070D01*
X43454976Y-51574654D01*
X43472219Y-51561866D01*
X43490632Y-51550830D01*
X43510038Y-51541651D01*
X43530250Y-51534419D01*
X43551074Y-51529203D01*
X43572309Y-51526053D01*
X43593750Y-51525000D01*
X44031250Y-51525000D01*
X44052691Y-51526053D01*
X44052691Y-51526053D01*
G37*
D15*
X43812500Y-52000000D03*
D10*
G36*
X45627691Y-51526053D02*
G01*
X45648926Y-51529203D01*
X45669750Y-51534419D01*
X45689962Y-51541651D01*
X45709368Y-51550830D01*
X45727781Y-51561866D01*
X45745024Y-51574654D01*
X45760930Y-51589070D01*
X45775346Y-51604976D01*
X45788134Y-51622219D01*
X45799170Y-51640632D01*
X45808349Y-51660038D01*
X45815581Y-51680250D01*
X45820797Y-51701074D01*
X45823947Y-51722309D01*
X45825000Y-51743750D01*
X45825000Y-52256250D01*
X45823947Y-52277691D01*
X45820797Y-52298926D01*
X45815581Y-52319750D01*
X45808349Y-52339962D01*
X45799170Y-52359368D01*
X45788134Y-52377781D01*
X45775346Y-52395024D01*
X45760930Y-52410930D01*
X45745024Y-52425346D01*
X45727781Y-52438134D01*
X45709368Y-52449170D01*
X45689962Y-52458349D01*
X45669750Y-52465581D01*
X45648926Y-52470797D01*
X45627691Y-52473947D01*
X45606250Y-52475000D01*
X45168750Y-52475000D01*
X45147309Y-52473947D01*
X45126074Y-52470797D01*
X45105250Y-52465581D01*
X45085038Y-52458349D01*
X45065632Y-52449170D01*
X45047219Y-52438134D01*
X45029976Y-52425346D01*
X45014070Y-52410930D01*
X44999654Y-52395024D01*
X44986866Y-52377781D01*
X44975830Y-52359368D01*
X44966651Y-52339962D01*
X44959419Y-52319750D01*
X44954203Y-52298926D01*
X44951053Y-52277691D01*
X44950000Y-52256250D01*
X44950000Y-51743750D01*
X44951053Y-51722309D01*
X44954203Y-51701074D01*
X44959419Y-51680250D01*
X44966651Y-51660038D01*
X44975830Y-51640632D01*
X44986866Y-51622219D01*
X44999654Y-51604976D01*
X45014070Y-51589070D01*
X45029976Y-51574654D01*
X45047219Y-51561866D01*
X45065632Y-51550830D01*
X45085038Y-51541651D01*
X45105250Y-51534419D01*
X45126074Y-51529203D01*
X45147309Y-51526053D01*
X45168750Y-51525000D01*
X45606250Y-51525000D01*
X45627691Y-51526053D01*
X45627691Y-51526053D01*
G37*
D15*
X45387500Y-52000000D03*
D12*
X41500000Y-48000000D03*
X39000000Y-55550060D03*
X39250000Y-59000000D03*
X46800000Y-51100000D03*
X39000000Y-46900000D03*
X39750000Y-56249974D03*
X41087131Y-58612869D03*
X46400000Y-46200000D03*
X37300000Y-49400000D03*
X36200000Y-51400000D03*
X44000000Y-58770002D03*
X45082446Y-59572714D03*
X43250000Y-52000000D03*
X39000000Y-53250000D03*
X37500000Y-59250000D03*
D17*
X42500000Y-44675026D03*
X38800000Y-44900000D03*
D12*
X41125000Y-50375000D03*
X37839988Y-53400000D03*
X42750000Y-60500000D03*
D18*
X41500000Y-48725000D02*
X41625000Y-48850000D01*
X41500000Y-48000000D02*
X41500000Y-48725000D01*
X39000000Y-55974324D02*
X39000000Y-55550060D01*
X39000000Y-58325736D02*
X39000000Y-55974324D01*
X39250000Y-58575736D02*
X39000000Y-58325736D01*
X39250000Y-59000000D02*
X39250000Y-58575736D01*
X38419998Y-54970058D02*
X38700001Y-55250061D01*
X38500000Y-48016872D02*
X38500000Y-52891596D01*
X41500000Y-48000000D02*
X41200001Y-47700001D01*
X38816871Y-47700001D02*
X38500000Y-48016872D01*
X41200001Y-47700001D02*
X38816871Y-47700001D01*
X38500000Y-52891596D02*
X38419998Y-52971598D01*
X38419998Y-52971598D02*
X38419998Y-54970058D01*
X38700001Y-55250061D02*
X39000000Y-55550060D01*
D19*
X45852500Y-53562500D02*
X45775000Y-53640000D01*
X45412500Y-53450000D02*
X45412500Y-54977500D01*
D18*
X46287500Y-51100000D02*
X46800000Y-51100000D01*
X45387500Y-52000000D02*
X46287500Y-51100000D01*
X46800000Y-50587500D02*
X46000000Y-49787500D01*
X46800000Y-51100000D02*
X46800000Y-50587500D01*
X37687500Y-48212500D02*
X36000000Y-48212500D01*
X39000000Y-46900000D02*
X37687500Y-48212500D01*
X39380010Y-47280010D02*
X43980010Y-47280010D01*
X39000000Y-46900000D02*
X39380010Y-47280010D01*
X43980010Y-47280010D02*
X45200000Y-48500000D01*
X45200000Y-48987500D02*
X46000000Y-49787500D01*
X45200000Y-48500000D02*
X45200000Y-48987500D01*
X40250000Y-58212500D02*
X40250000Y-56787500D01*
X40250000Y-56749974D02*
X39750000Y-56249974D01*
X40250000Y-56787500D02*
X40250000Y-56749974D01*
X40250000Y-58212500D02*
X40711612Y-58674112D01*
X40711612Y-58674112D02*
X41025888Y-58674112D01*
X41025888Y-58674112D02*
X41087131Y-58612869D01*
X45387500Y-53425000D02*
X45412500Y-53450000D01*
X45387500Y-52000000D02*
X45387500Y-53425000D01*
X41824266Y-59350004D02*
X44484897Y-59350004D01*
X41087131Y-58612869D02*
X41824266Y-59350004D01*
X44484897Y-59350004D02*
X45264902Y-58569999D01*
X45264902Y-58569999D02*
X46180001Y-58569999D01*
X46180001Y-58569999D02*
X46180001Y-54217501D01*
X46180001Y-54217501D02*
X45874112Y-53911612D01*
X45874112Y-53911612D02*
X45412500Y-53450000D01*
X46000000Y-46600000D02*
X46400000Y-46200000D01*
X46000000Y-48212500D02*
X46000000Y-46600000D01*
X36912500Y-49787500D02*
X37300000Y-49400000D01*
X36000000Y-49787500D02*
X36912500Y-49787500D01*
X36512500Y-51712500D02*
X36200000Y-51400000D01*
X37300000Y-51712500D02*
X36512500Y-51712500D01*
X44625000Y-57660000D02*
X44625000Y-58145002D01*
X44787500Y-61100000D02*
X44787500Y-59867660D01*
X44787500Y-59867660D02*
X45082446Y-59572714D01*
X44625000Y-58145002D02*
X44000000Y-58770002D01*
X44867660Y-59787500D02*
X45082446Y-59572714D01*
X40250000Y-59787500D02*
X44867660Y-59787500D01*
X43250000Y-52000000D02*
X43812500Y-52000000D01*
X40250000Y-55212500D02*
X39000000Y-53962500D01*
X39000000Y-53962500D02*
X39000000Y-53250000D01*
X41538388Y-57225888D02*
X42000000Y-57687500D01*
X41005010Y-56692510D02*
X41538388Y-57225888D01*
X41005010Y-55967510D02*
X41005010Y-56692510D01*
X40250000Y-55212500D02*
X41005010Y-55967510D01*
X43575736Y-58770002D02*
X44000000Y-58770002D01*
X43346000Y-58770002D02*
X43575736Y-58770002D01*
X42725110Y-58149112D02*
X43346000Y-58770002D01*
X42000000Y-57687500D02*
X42461612Y-58149112D01*
X42461612Y-58149112D02*
X42725110Y-58149112D01*
X42875000Y-51625000D02*
X43250000Y-52000000D01*
X42875000Y-48850000D02*
X42875000Y-51625000D01*
X37300000Y-51175000D02*
X37300000Y-49400000D01*
X37300000Y-51712500D02*
X37300000Y-51175000D01*
X37799999Y-59549999D02*
X37500000Y-59250000D01*
X40250000Y-59787500D02*
X38037500Y-59787500D01*
X38037500Y-59787500D02*
X37799999Y-59549999D01*
X40745710Y-49995710D02*
X40825001Y-50075001D01*
X40745710Y-49220710D02*
X40745710Y-49995710D01*
X40825001Y-50075001D02*
X41125000Y-50375000D01*
X40375000Y-48850000D02*
X40745710Y-49220710D01*
X37300000Y-53287500D02*
X37412500Y-53400000D01*
X37412500Y-53400000D02*
X37415724Y-53400000D01*
X37415724Y-53400000D02*
X37839988Y-53400000D01*
X43212500Y-60962500D02*
X42750000Y-60500000D01*
X43212500Y-61100000D02*
X43212500Y-60962500D01*
X42000000Y-56112500D02*
X43112500Y-56112500D01*
X43675000Y-56675000D02*
X43675000Y-57660000D01*
X43112500Y-56112500D02*
X43675000Y-56675000D01*
X45575000Y-56890000D02*
X45575000Y-57660000D01*
X44797500Y-56112500D02*
X45575000Y-56890000D01*
X42000000Y-56112500D02*
X44797500Y-56112500D01*
X39495710Y-49220710D02*
X39125000Y-48850000D01*
X39794990Y-49519990D02*
X39495710Y-49220710D01*
X41069999Y-51178401D02*
X39794990Y-49903392D01*
X42000000Y-55155944D02*
X41069999Y-54225943D01*
X41069999Y-54225943D02*
X41069999Y-51178401D01*
X42000000Y-56112500D02*
X42000000Y-55155944D01*
X39794990Y-49903392D02*
X39794990Y-49519990D01*
D19*
X43575000Y-53712500D02*
X43837500Y-53450000D01*
X43575000Y-55040000D02*
X43575000Y-53712500D01*
D20*
G36*
X37985001Y-50675130D02*
G01*
X37899482Y-50649188D01*
X37775000Y-50636928D01*
X37585750Y-50640000D01*
X37427000Y-50798750D01*
X37427000Y-51585500D01*
X37447000Y-51585500D01*
X37447000Y-51839500D01*
X37427000Y-51839500D01*
X37427000Y-51859500D01*
X37173000Y-51859500D01*
X37173000Y-51839500D01*
X36348750Y-51839500D01*
X36190000Y-51998250D01*
X36186928Y-52150000D01*
X36199188Y-52274482D01*
X36235498Y-52394180D01*
X36294463Y-52504494D01*
X36373815Y-52601185D01*
X36470506Y-52680537D01*
X36503513Y-52698180D01*
X36498427Y-52704377D01*
X36437820Y-52817766D01*
X36400498Y-52940799D01*
X36387896Y-53068750D01*
X36387896Y-53084896D01*
X36292889Y-53021414D01*
X36122729Y-52950932D01*
X35942089Y-52915000D01*
X35757911Y-52915000D01*
X35577271Y-52950932D01*
X35407111Y-53021414D01*
X35341168Y-53065476D01*
X35348678Y-52984826D01*
X35290981Y-52429368D01*
X35126028Y-51895839D01*
X34877018Y-51429976D01*
X34489775Y-51189830D01*
X32679605Y-53000000D01*
X34489775Y-54810170D01*
X34877018Y-54570024D01*
X35022444Y-54294430D01*
X35123738Y-54446028D01*
X35253972Y-54576262D01*
X35407111Y-54678586D01*
X35577271Y-54749068D01*
X35757911Y-54785000D01*
X35942089Y-54785000D01*
X36122729Y-54749068D01*
X36292889Y-54678586D01*
X36446028Y-54576262D01*
X36576262Y-54446028D01*
X36678586Y-54292889D01*
X36749068Y-54122729D01*
X36755164Y-54092082D01*
X36792766Y-54112180D01*
X36915799Y-54149502D01*
X37043750Y-54162104D01*
X37556250Y-54162104D01*
X37684201Y-54149502D01*
X37746102Y-54130724D01*
X37767597Y-54135000D01*
X37904999Y-54135000D01*
X37904999Y-54944766D01*
X37902508Y-54970058D01*
X37912451Y-55071015D01*
X37941900Y-55168093D01*
X37989720Y-55257561D01*
X38037954Y-55316333D01*
X38037958Y-55316337D01*
X38054078Y-55335979D01*
X38073720Y-55352099D01*
X38265000Y-55543379D01*
X38265000Y-55622451D01*
X38293246Y-55764451D01*
X38348652Y-55898213D01*
X38429088Y-56018595D01*
X38485001Y-56074508D01*
X38485000Y-58300453D01*
X38482510Y-58325736D01*
X38485000Y-58351018D01*
X38485000Y-58351028D01*
X38492452Y-58426692D01*
X38521901Y-58523770D01*
X38569722Y-58613239D01*
X38599889Y-58649996D01*
X38598652Y-58651847D01*
X38543246Y-58785609D01*
X38515000Y-58927609D01*
X38515000Y-59072391D01*
X38543246Y-59214391D01*
X38598652Y-59348153D01*
X38679088Y-59468535D01*
X38781465Y-59570912D01*
X38901847Y-59651348D01*
X39035609Y-59706754D01*
X39177609Y-59735000D01*
X39322391Y-59735000D01*
X39464391Y-59706754D01*
X39576058Y-59660500D01*
X40123000Y-59660500D01*
X40123000Y-59640500D01*
X40377000Y-59640500D01*
X40377000Y-59660500D01*
X41201250Y-59660500D01*
X41303846Y-59557904D01*
X41442225Y-59696283D01*
X41458345Y-59715925D01*
X41477987Y-59732045D01*
X41477990Y-59732048D01*
X41518142Y-59765000D01*
X41536763Y-59780282D01*
X41626231Y-59828103D01*
X41723309Y-59857552D01*
X41798973Y-59865004D01*
X41798983Y-59865004D01*
X41824265Y-59867494D01*
X41849547Y-59865004D01*
X42377374Y-59865004D01*
X42281465Y-59929088D01*
X42179088Y-60031465D01*
X42098652Y-60151847D01*
X42062567Y-60238965D01*
X41942089Y-60215000D01*
X41757911Y-60215000D01*
X41577271Y-60250932D01*
X41407111Y-60321414D01*
X41347179Y-60361459D01*
X41350812Y-60349482D01*
X41363072Y-60225000D01*
X41360000Y-60073250D01*
X41201250Y-59914500D01*
X40377000Y-59914500D01*
X40377000Y-59934500D01*
X40123000Y-59934500D01*
X40123000Y-59914500D01*
X39298750Y-59914500D01*
X39140000Y-60073250D01*
X39136928Y-60225000D01*
X39149188Y-60349482D01*
X39185498Y-60469180D01*
X39244463Y-60579494D01*
X39323815Y-60676185D01*
X39335610Y-60685865D01*
X39321414Y-60707111D01*
X39250932Y-60877271D01*
X39215000Y-61057911D01*
X39215000Y-61242089D01*
X39250932Y-61422729D01*
X39278796Y-61490000D01*
X35510000Y-61490000D01*
X35510000Y-56974952D01*
X35507799Y-56952606D01*
X35507864Y-56943307D01*
X35507169Y-56936220D01*
X35476569Y-56645074D01*
X35467275Y-56599799D01*
X35458613Y-56554389D01*
X35456555Y-56547572D01*
X35369987Y-56267916D01*
X35352060Y-56225269D01*
X35334758Y-56182446D01*
X35331416Y-56176159D01*
X35331416Y-56176158D01*
X35331411Y-56176151D01*
X35192176Y-55918642D01*
X35166331Y-55880326D01*
X35141019Y-55841644D01*
X35136518Y-55836125D01*
X34949913Y-55610558D01*
X34917096Y-55577969D01*
X34884773Y-55544962D01*
X34879292Y-55540428D01*
X34879286Y-55540422D01*
X34879279Y-55540418D01*
X34652422Y-55355397D01*
X34613943Y-55329831D01*
X34575782Y-55303702D01*
X34569518Y-55300315D01*
X34311037Y-55162878D01*
X34268311Y-55145267D01*
X34225816Y-55127054D01*
X34225163Y-55126852D01*
X34310170Y-54989775D01*
X32500000Y-53179605D01*
X32485858Y-53193748D01*
X32306253Y-53014143D01*
X32320395Y-53000000D01*
X32306253Y-52985858D01*
X32485858Y-52806253D01*
X32500000Y-52820395D01*
X34310170Y-51010225D01*
X34224633Y-50872294D01*
X34232084Y-50869987D01*
X34274731Y-50852060D01*
X34317554Y-50834758D01*
X34323833Y-50831420D01*
X34323842Y-50831416D01*
X34323849Y-50831411D01*
X34581358Y-50692176D01*
X34619674Y-50666331D01*
X34658356Y-50641019D01*
X34663875Y-50636518D01*
X34889442Y-50449913D01*
X34920244Y-50418895D01*
X34935498Y-50469180D01*
X34994463Y-50579494D01*
X35073815Y-50676185D01*
X35170506Y-50755537D01*
X35280820Y-50814502D01*
X35400518Y-50850812D01*
X35525000Y-50863072D01*
X35714250Y-50860000D01*
X35873000Y-50701250D01*
X35873000Y-49914500D01*
X36127000Y-49914500D01*
X36127000Y-50701250D01*
X36285750Y-50860000D01*
X36343351Y-50860935D01*
X36294463Y-50920506D01*
X36235498Y-51030820D01*
X36199188Y-51150518D01*
X36186928Y-51275000D01*
X36190000Y-51426750D01*
X36348750Y-51585500D01*
X37173000Y-51585500D01*
X37173000Y-50798750D01*
X37014250Y-50640000D01*
X36956649Y-50639065D01*
X37005537Y-50579494D01*
X37064502Y-50469180D01*
X37100812Y-50349482D01*
X37113072Y-50225000D01*
X37110000Y-50073250D01*
X36951250Y-49914500D01*
X36127000Y-49914500D01*
X35873000Y-49914500D01*
X35853000Y-49914500D01*
X35853000Y-49660500D01*
X35873000Y-49660500D01*
X35873000Y-49640500D01*
X36127000Y-49640500D01*
X36127000Y-49660500D01*
X36951250Y-49660500D01*
X37110000Y-49501750D01*
X37113072Y-49350000D01*
X37100812Y-49225518D01*
X37064502Y-49105820D01*
X37005537Y-48995506D01*
X36926185Y-48898815D01*
X36829494Y-48819463D01*
X36796487Y-48801820D01*
X36801573Y-48795623D01*
X36837985Y-48727500D01*
X37662218Y-48727500D01*
X37687500Y-48729990D01*
X37712782Y-48727500D01*
X37712793Y-48727500D01*
X37788457Y-48720048D01*
X37885535Y-48690599D01*
X37975003Y-48642778D01*
X37985000Y-48634573D01*
X37985001Y-50675130D01*
X37985001Y-50675130D01*
G37*
X37985001Y-50675130D02*
X37899482Y-50649188D01*
X37775000Y-50636928D01*
X37585750Y-50640000D01*
X37427000Y-50798750D01*
X37427000Y-51585500D01*
X37447000Y-51585500D01*
X37447000Y-51839500D01*
X37427000Y-51839500D01*
X37427000Y-51859500D01*
X37173000Y-51859500D01*
X37173000Y-51839500D01*
X36348750Y-51839500D01*
X36190000Y-51998250D01*
X36186928Y-52150000D01*
X36199188Y-52274482D01*
X36235498Y-52394180D01*
X36294463Y-52504494D01*
X36373815Y-52601185D01*
X36470506Y-52680537D01*
X36503513Y-52698180D01*
X36498427Y-52704377D01*
X36437820Y-52817766D01*
X36400498Y-52940799D01*
X36387896Y-53068750D01*
X36387896Y-53084896D01*
X36292889Y-53021414D01*
X36122729Y-52950932D01*
X35942089Y-52915000D01*
X35757911Y-52915000D01*
X35577271Y-52950932D01*
X35407111Y-53021414D01*
X35341168Y-53065476D01*
X35348678Y-52984826D01*
X35290981Y-52429368D01*
X35126028Y-51895839D01*
X34877018Y-51429976D01*
X34489775Y-51189830D01*
X32679605Y-53000000D01*
X34489775Y-54810170D01*
X34877018Y-54570024D01*
X35022444Y-54294430D01*
X35123738Y-54446028D01*
X35253972Y-54576262D01*
X35407111Y-54678586D01*
X35577271Y-54749068D01*
X35757911Y-54785000D01*
X35942089Y-54785000D01*
X36122729Y-54749068D01*
X36292889Y-54678586D01*
X36446028Y-54576262D01*
X36576262Y-54446028D01*
X36678586Y-54292889D01*
X36749068Y-54122729D01*
X36755164Y-54092082D01*
X36792766Y-54112180D01*
X36915799Y-54149502D01*
X37043750Y-54162104D01*
X37556250Y-54162104D01*
X37684201Y-54149502D01*
X37746102Y-54130724D01*
X37767597Y-54135000D01*
X37904999Y-54135000D01*
X37904999Y-54944766D01*
X37902508Y-54970058D01*
X37912451Y-55071015D01*
X37941900Y-55168093D01*
X37989720Y-55257561D01*
X38037954Y-55316333D01*
X38037958Y-55316337D01*
X38054078Y-55335979D01*
X38073720Y-55352099D01*
X38265000Y-55543379D01*
X38265000Y-55622451D01*
X38293246Y-55764451D01*
X38348652Y-55898213D01*
X38429088Y-56018595D01*
X38485001Y-56074508D01*
X38485000Y-58300453D01*
X38482510Y-58325736D01*
X38485000Y-58351018D01*
X38485000Y-58351028D01*
X38492452Y-58426692D01*
X38521901Y-58523770D01*
X38569722Y-58613239D01*
X38599889Y-58649996D01*
X38598652Y-58651847D01*
X38543246Y-58785609D01*
X38515000Y-58927609D01*
X38515000Y-59072391D01*
X38543246Y-59214391D01*
X38598652Y-59348153D01*
X38679088Y-59468535D01*
X38781465Y-59570912D01*
X38901847Y-59651348D01*
X39035609Y-59706754D01*
X39177609Y-59735000D01*
X39322391Y-59735000D01*
X39464391Y-59706754D01*
X39576058Y-59660500D01*
X40123000Y-59660500D01*
X40123000Y-59640500D01*
X40377000Y-59640500D01*
X40377000Y-59660500D01*
X41201250Y-59660500D01*
X41303846Y-59557904D01*
X41442225Y-59696283D01*
X41458345Y-59715925D01*
X41477987Y-59732045D01*
X41477990Y-59732048D01*
X41518142Y-59765000D01*
X41536763Y-59780282D01*
X41626231Y-59828103D01*
X41723309Y-59857552D01*
X41798973Y-59865004D01*
X41798983Y-59865004D01*
X41824265Y-59867494D01*
X41849547Y-59865004D01*
X42377374Y-59865004D01*
X42281465Y-59929088D01*
X42179088Y-60031465D01*
X42098652Y-60151847D01*
X42062567Y-60238965D01*
X41942089Y-60215000D01*
X41757911Y-60215000D01*
X41577271Y-60250932D01*
X41407111Y-60321414D01*
X41347179Y-60361459D01*
X41350812Y-60349482D01*
X41363072Y-60225000D01*
X41360000Y-60073250D01*
X41201250Y-59914500D01*
X40377000Y-59914500D01*
X40377000Y-59934500D01*
X40123000Y-59934500D01*
X40123000Y-59914500D01*
X39298750Y-59914500D01*
X39140000Y-60073250D01*
X39136928Y-60225000D01*
X39149188Y-60349482D01*
X39185498Y-60469180D01*
X39244463Y-60579494D01*
X39323815Y-60676185D01*
X39335610Y-60685865D01*
X39321414Y-60707111D01*
X39250932Y-60877271D01*
X39215000Y-61057911D01*
X39215000Y-61242089D01*
X39250932Y-61422729D01*
X39278796Y-61490000D01*
X35510000Y-61490000D01*
X35510000Y-56974952D01*
X35507799Y-56952606D01*
X35507864Y-56943307D01*
X35507169Y-56936220D01*
X35476569Y-56645074D01*
X35467275Y-56599799D01*
X35458613Y-56554389D01*
X35456555Y-56547572D01*
X35369987Y-56267916D01*
X35352060Y-56225269D01*
X35334758Y-56182446D01*
X35331416Y-56176159D01*
X35331416Y-56176158D01*
X35331411Y-56176151D01*
X35192176Y-55918642D01*
X35166331Y-55880326D01*
X35141019Y-55841644D01*
X35136518Y-55836125D01*
X34949913Y-55610558D01*
X34917096Y-55577969D01*
X34884773Y-55544962D01*
X34879292Y-55540428D01*
X34879286Y-55540422D01*
X34879279Y-55540418D01*
X34652422Y-55355397D01*
X34613943Y-55329831D01*
X34575782Y-55303702D01*
X34569518Y-55300315D01*
X34311037Y-55162878D01*
X34268311Y-55145267D01*
X34225816Y-55127054D01*
X34225163Y-55126852D01*
X34310170Y-54989775D01*
X32500000Y-53179605D01*
X32485858Y-53193748D01*
X32306253Y-53014143D01*
X32320395Y-53000000D01*
X32306253Y-52985858D01*
X32485858Y-52806253D01*
X32500000Y-52820395D01*
X34310170Y-51010225D01*
X34224633Y-50872294D01*
X34232084Y-50869987D01*
X34274731Y-50852060D01*
X34317554Y-50834758D01*
X34323833Y-50831420D01*
X34323842Y-50831416D01*
X34323849Y-50831411D01*
X34581358Y-50692176D01*
X34619674Y-50666331D01*
X34658356Y-50641019D01*
X34663875Y-50636518D01*
X34889442Y-50449913D01*
X34920244Y-50418895D01*
X34935498Y-50469180D01*
X34994463Y-50579494D01*
X35073815Y-50676185D01*
X35170506Y-50755537D01*
X35280820Y-50814502D01*
X35400518Y-50850812D01*
X35525000Y-50863072D01*
X35714250Y-50860000D01*
X35873000Y-50701250D01*
X35873000Y-49914500D01*
X36127000Y-49914500D01*
X36127000Y-50701250D01*
X36285750Y-50860000D01*
X36343351Y-50860935D01*
X36294463Y-50920506D01*
X36235498Y-51030820D01*
X36199188Y-51150518D01*
X36186928Y-51275000D01*
X36190000Y-51426750D01*
X36348750Y-51585500D01*
X37173000Y-51585500D01*
X37173000Y-50798750D01*
X37014250Y-50640000D01*
X36956649Y-50639065D01*
X37005537Y-50579494D01*
X37064502Y-50469180D01*
X37100812Y-50349482D01*
X37113072Y-50225000D01*
X37110000Y-50073250D01*
X36951250Y-49914500D01*
X36127000Y-49914500D01*
X35873000Y-49914500D01*
X35853000Y-49914500D01*
X35853000Y-49660500D01*
X35873000Y-49660500D01*
X35873000Y-49640500D01*
X36127000Y-49640500D01*
X36127000Y-49660500D01*
X36951250Y-49660500D01*
X37110000Y-49501750D01*
X37113072Y-49350000D01*
X37100812Y-49225518D01*
X37064502Y-49105820D01*
X37005537Y-48995506D01*
X36926185Y-48898815D01*
X36829494Y-48819463D01*
X36796487Y-48801820D01*
X36801573Y-48795623D01*
X36837985Y-48727500D01*
X37662218Y-48727500D01*
X37687500Y-48729990D01*
X37712782Y-48727500D01*
X37712793Y-48727500D01*
X37788457Y-48720048D01*
X37885535Y-48690599D01*
X37975003Y-48642778D01*
X37985000Y-48634573D01*
X37985001Y-50675130D01*
G36*
X46490000Y-60278796D02*
G01*
X46422729Y-60250932D01*
X46242089Y-60215000D01*
X46057911Y-60215000D01*
X45877271Y-60250932D01*
X45769038Y-60295763D01*
X45755537Y-60270506D01*
X45676185Y-60173815D01*
X45579494Y-60094463D01*
X45469180Y-60035498D01*
X45349482Y-59999188D01*
X45225000Y-59986928D01*
X45073250Y-59990000D01*
X44914500Y-60148750D01*
X44914500Y-60973000D01*
X44934500Y-60973000D01*
X44934500Y-61227000D01*
X44914500Y-61227000D01*
X44914500Y-61247000D01*
X44660500Y-61247000D01*
X44660500Y-61227000D01*
X44640500Y-61227000D01*
X44640500Y-60973000D01*
X44660500Y-60973000D01*
X44660500Y-60148750D01*
X44501750Y-59990000D01*
X44350000Y-59986928D01*
X44225518Y-59999188D01*
X44105820Y-60035498D01*
X43995506Y-60094463D01*
X43898815Y-60173815D01*
X43819463Y-60270506D01*
X43801820Y-60303513D01*
X43795623Y-60298427D01*
X43682234Y-60237820D01*
X43559201Y-60200498D01*
X43431250Y-60187896D01*
X43416280Y-60187896D01*
X43401348Y-60151847D01*
X43320912Y-60031465D01*
X43218535Y-59929088D01*
X43122626Y-59865004D01*
X44459615Y-59865004D01*
X44484897Y-59867494D01*
X44510179Y-59865004D01*
X44510190Y-59865004D01*
X44585854Y-59857552D01*
X44682932Y-59828103D01*
X44772400Y-59780282D01*
X44850818Y-59715925D01*
X44866943Y-59696278D01*
X45478222Y-59084999D01*
X46154708Y-59084999D01*
X46180001Y-59087490D01*
X46205293Y-59084999D01*
X46205294Y-59084999D01*
X46280958Y-59077547D01*
X46378036Y-59048098D01*
X46467504Y-59000277D01*
X46490001Y-58981814D01*
X46490000Y-60278796D01*
X46490000Y-60278796D01*
G37*
X46490000Y-60278796D02*
X46422729Y-60250932D01*
X46242089Y-60215000D01*
X46057911Y-60215000D01*
X45877271Y-60250932D01*
X45769038Y-60295763D01*
X45755537Y-60270506D01*
X45676185Y-60173815D01*
X45579494Y-60094463D01*
X45469180Y-60035498D01*
X45349482Y-59999188D01*
X45225000Y-59986928D01*
X45073250Y-59990000D01*
X44914500Y-60148750D01*
X44914500Y-60973000D01*
X44934500Y-60973000D01*
X44934500Y-61227000D01*
X44914500Y-61227000D01*
X44914500Y-61247000D01*
X44660500Y-61247000D01*
X44660500Y-61227000D01*
X44640500Y-61227000D01*
X44640500Y-60973000D01*
X44660500Y-60973000D01*
X44660500Y-60148750D01*
X44501750Y-59990000D01*
X44350000Y-59986928D01*
X44225518Y-59999188D01*
X44105820Y-60035498D01*
X43995506Y-60094463D01*
X43898815Y-60173815D01*
X43819463Y-60270506D01*
X43801820Y-60303513D01*
X43795623Y-60298427D01*
X43682234Y-60237820D01*
X43559201Y-60200498D01*
X43431250Y-60187896D01*
X43416280Y-60187896D01*
X43401348Y-60151847D01*
X43320912Y-60031465D01*
X43218535Y-59929088D01*
X43122626Y-59865004D01*
X44459615Y-59865004D01*
X44484897Y-59867494D01*
X44510179Y-59865004D01*
X44510190Y-59865004D01*
X44585854Y-59857552D01*
X44682932Y-59828103D01*
X44772400Y-59780282D01*
X44850818Y-59715925D01*
X44866943Y-59696278D01*
X45478222Y-59084999D01*
X46154708Y-59084999D01*
X46180001Y-59087490D01*
X46205293Y-59084999D01*
X46205294Y-59084999D01*
X46280958Y-59077547D01*
X46378036Y-59048098D01*
X46467504Y-59000277D01*
X46490001Y-58981814D01*
X46490000Y-60278796D01*
G36*
X42127000Y-57560500D02*
G01*
X42147000Y-57560500D01*
X42147000Y-57814500D01*
X42127000Y-57814500D01*
X42127000Y-58601250D01*
X42285750Y-58760000D01*
X42475000Y-58763072D01*
X42599482Y-58750812D01*
X42719180Y-58714502D01*
X42829494Y-58655537D01*
X42926185Y-58576185D01*
X42983251Y-58506650D01*
X42986561Y-58512842D01*
X43040921Y-58579079D01*
X43107158Y-58633439D01*
X43182728Y-58673831D01*
X43264725Y-58698705D01*
X43350000Y-58707104D01*
X43837259Y-58707104D01*
X43848815Y-58721185D01*
X43945506Y-58800537D01*
X44009988Y-58835004D01*
X42037586Y-58835004D01*
X41838416Y-58635834D01*
X41873000Y-58601250D01*
X41873000Y-57814500D01*
X41853000Y-57814500D01*
X41853000Y-57560500D01*
X41873000Y-57560500D01*
X41873000Y-57540500D01*
X42127000Y-57540500D01*
X42127000Y-57560500D01*
X42127000Y-57560500D01*
G37*
X42127000Y-57560500D02*
X42147000Y-57560500D01*
X42147000Y-57814500D01*
X42127000Y-57814500D01*
X42127000Y-58601250D01*
X42285750Y-58760000D01*
X42475000Y-58763072D01*
X42599482Y-58750812D01*
X42719180Y-58714502D01*
X42829494Y-58655537D01*
X42926185Y-58576185D01*
X42983251Y-58506650D01*
X42986561Y-58512842D01*
X43040921Y-58579079D01*
X43107158Y-58633439D01*
X43182728Y-58673831D01*
X43264725Y-58698705D01*
X43350000Y-58707104D01*
X43837259Y-58707104D01*
X43848815Y-58721185D01*
X43945506Y-58800537D01*
X44009988Y-58835004D01*
X42037586Y-58835004D01*
X41838416Y-58635834D01*
X41873000Y-58601250D01*
X41873000Y-57814500D01*
X41853000Y-57814500D01*
X41853000Y-57560500D01*
X41873000Y-57560500D01*
X41873000Y-57540500D01*
X42127000Y-57540500D01*
X42127000Y-57560500D01*
G36*
X44752000Y-57533000D02*
G01*
X44772000Y-57533000D01*
X44772000Y-57787000D01*
X44752000Y-57787000D01*
X44752000Y-57807000D01*
X44498000Y-57807000D01*
X44498000Y-57787000D01*
X44478000Y-57787000D01*
X44478000Y-57533000D01*
X44498000Y-57533000D01*
X44498000Y-57513000D01*
X44752000Y-57513000D01*
X44752000Y-57533000D01*
X44752000Y-57533000D01*
G37*
X44752000Y-57533000D02*
X44772000Y-57533000D01*
X44772000Y-57787000D01*
X44752000Y-57787000D01*
X44752000Y-57807000D01*
X44498000Y-57807000D01*
X44498000Y-57787000D01*
X44478000Y-57787000D01*
X44478000Y-57533000D01*
X44498000Y-57533000D01*
X44498000Y-57513000D01*
X44752000Y-57513000D01*
X44752000Y-57533000D01*
G36*
X41198427Y-56695623D02*
G01*
X41203513Y-56701820D01*
X41170506Y-56719463D01*
X41162104Y-56726358D01*
X41162104Y-56627667D01*
X41198427Y-56695623D01*
X41198427Y-56695623D01*
G37*
X41198427Y-56695623D02*
X41203513Y-56701820D01*
X41170506Y-56719463D01*
X41162104Y-56726358D01*
X41162104Y-56627667D01*
X41198427Y-56695623D01*
G36*
X41087896Y-56272333D02*
G01*
X41051573Y-56204377D01*
X41046487Y-56198180D01*
X41079494Y-56180537D01*
X41087896Y-56173642D01*
X41087896Y-56272333D01*
X41087896Y-56272333D01*
G37*
X41087896Y-56272333D02*
X41051573Y-56204377D01*
X41046487Y-56198180D01*
X41079494Y-56180537D01*
X41087896Y-56173642D01*
X41087896Y-56272333D01*
G36*
X46451847Y-51751348D02*
G01*
X46585609Y-51806754D01*
X46727609Y-51835000D01*
X46872391Y-51835000D01*
X46913581Y-51826807D01*
X46862359Y-51923877D01*
X46703099Y-52459133D01*
X46651322Y-53015174D01*
X46709019Y-53570632D01*
X46873972Y-54104161D01*
X47122982Y-54570024D01*
X47510225Y-54810170D01*
X49320395Y-53000000D01*
X49306253Y-52985858D01*
X49485858Y-52806253D01*
X49500000Y-52820395D01*
X49514143Y-52806253D01*
X49693748Y-52985858D01*
X49679605Y-53000000D01*
X49693748Y-53014143D01*
X49514143Y-53193748D01*
X49500000Y-53179605D01*
X47689830Y-54989775D01*
X47775367Y-55127706D01*
X47767916Y-55130013D01*
X47725269Y-55147940D01*
X47682446Y-55165242D01*
X47676167Y-55168580D01*
X47676158Y-55168584D01*
X47676151Y-55168589D01*
X47418642Y-55307824D01*
X47380326Y-55333669D01*
X47341644Y-55358981D01*
X47336125Y-55363482D01*
X47110558Y-55550087D01*
X47077969Y-55582904D01*
X47044962Y-55615227D01*
X47040428Y-55620708D01*
X47040422Y-55620714D01*
X47040418Y-55620721D01*
X46855397Y-55847578D01*
X46829831Y-55886057D01*
X46803702Y-55924218D01*
X46800315Y-55930482D01*
X46695001Y-56128549D01*
X46695001Y-54242782D01*
X46697491Y-54217500D01*
X46695001Y-54192218D01*
X46695001Y-54192208D01*
X46687549Y-54116544D01*
X46658100Y-54019466D01*
X46610279Y-53929998D01*
X46545922Y-53851580D01*
X46526274Y-53835455D01*
X46394784Y-53703965D01*
X46404396Y-53672278D01*
X46415208Y-53562500D01*
X46404396Y-53452721D01*
X46372375Y-53347161D01*
X46320375Y-53249876D01*
X46287104Y-53209335D01*
X46287104Y-53193750D01*
X46274502Y-53065799D01*
X46237180Y-52942766D01*
X46176573Y-52829377D01*
X46095009Y-52729991D01*
X46075175Y-52713714D01*
X46151573Y-52620623D01*
X46212180Y-52507234D01*
X46249502Y-52384201D01*
X46262104Y-52256250D01*
X46262104Y-51853716D01*
X46399469Y-51716351D01*
X46451847Y-51751348D01*
X46451847Y-51751348D01*
G37*
X46451847Y-51751348D02*
X46585609Y-51806754D01*
X46727609Y-51835000D01*
X46872391Y-51835000D01*
X46913581Y-51826807D01*
X46862359Y-51923877D01*
X46703099Y-52459133D01*
X46651322Y-53015174D01*
X46709019Y-53570632D01*
X46873972Y-54104161D01*
X47122982Y-54570024D01*
X47510225Y-54810170D01*
X49320395Y-53000000D01*
X49306253Y-52985858D01*
X49485858Y-52806253D01*
X49500000Y-52820395D01*
X49514143Y-52806253D01*
X49693748Y-52985858D01*
X49679605Y-53000000D01*
X49693748Y-53014143D01*
X49514143Y-53193748D01*
X49500000Y-53179605D01*
X47689830Y-54989775D01*
X47775367Y-55127706D01*
X47767916Y-55130013D01*
X47725269Y-55147940D01*
X47682446Y-55165242D01*
X47676167Y-55168580D01*
X47676158Y-55168584D01*
X47676151Y-55168589D01*
X47418642Y-55307824D01*
X47380326Y-55333669D01*
X47341644Y-55358981D01*
X47336125Y-55363482D01*
X47110558Y-55550087D01*
X47077969Y-55582904D01*
X47044962Y-55615227D01*
X47040428Y-55620708D01*
X47040422Y-55620714D01*
X47040418Y-55620721D01*
X46855397Y-55847578D01*
X46829831Y-55886057D01*
X46803702Y-55924218D01*
X46800315Y-55930482D01*
X46695001Y-56128549D01*
X46695001Y-54242782D01*
X46697491Y-54217500D01*
X46695001Y-54192218D01*
X46695001Y-54192208D01*
X46687549Y-54116544D01*
X46658100Y-54019466D01*
X46610279Y-53929998D01*
X46545922Y-53851580D01*
X46526274Y-53835455D01*
X46394784Y-53703965D01*
X46404396Y-53672278D01*
X46415208Y-53562500D01*
X46404396Y-53452721D01*
X46372375Y-53347161D01*
X46320375Y-53249876D01*
X46287104Y-53209335D01*
X46287104Y-53193750D01*
X46274502Y-53065799D01*
X46237180Y-52942766D01*
X46176573Y-52829377D01*
X46095009Y-52729991D01*
X46075175Y-52713714D01*
X46151573Y-52620623D01*
X46212180Y-52507234D01*
X46249502Y-52384201D01*
X46262104Y-52256250D01*
X46262104Y-51853716D01*
X46399469Y-51716351D01*
X46451847Y-51751348D01*
G36*
X44685000Y-48713320D02*
G01*
X44685001Y-48962208D01*
X44682510Y-48987500D01*
X44685001Y-49012792D01*
X44685001Y-49012793D01*
X44688855Y-49051922D01*
X44692453Y-49088457D01*
X44721902Y-49185535D01*
X44769722Y-49275003D01*
X44817956Y-49333775D01*
X44817960Y-49333779D01*
X44834080Y-49353421D01*
X44853722Y-49369541D01*
X45087896Y-49603715D01*
X45087896Y-50006250D01*
X45100498Y-50134201D01*
X45137820Y-50257234D01*
X45198427Y-50370623D01*
X45279991Y-50470009D01*
X45379377Y-50551573D01*
X45492766Y-50612180D01*
X45615799Y-50649502D01*
X45743750Y-50662104D01*
X46014249Y-50662104D01*
X45999997Y-50669722D01*
X45999995Y-50669723D01*
X45999996Y-50669723D01*
X45941224Y-50717956D01*
X45941221Y-50717959D01*
X45921579Y-50734079D01*
X45905459Y-50753721D01*
X45571284Y-51087896D01*
X45168750Y-51087896D01*
X45040799Y-51100498D01*
X44917766Y-51137820D01*
X44804377Y-51198427D01*
X44798180Y-51203513D01*
X44780537Y-51170506D01*
X44701185Y-51073815D01*
X44604494Y-50994463D01*
X44494180Y-50935498D01*
X44374482Y-50899188D01*
X44250000Y-50886928D01*
X44098250Y-50890000D01*
X43939500Y-51048750D01*
X43939500Y-51873000D01*
X43959500Y-51873000D01*
X43959500Y-52127000D01*
X43939500Y-52127000D01*
X43939500Y-52147000D01*
X43685500Y-52147000D01*
X43685500Y-52127000D01*
X42898750Y-52127000D01*
X42740000Y-52285750D01*
X42736928Y-52475000D01*
X42749188Y-52599482D01*
X42785498Y-52719180D01*
X42844463Y-52829494D01*
X42923815Y-52926185D01*
X42999106Y-52987975D01*
X42975498Y-53065799D01*
X42962896Y-53193750D01*
X42962896Y-53706250D01*
X42975498Y-53834201D01*
X43012820Y-53957234D01*
X43015001Y-53961314D01*
X43015001Y-54152505D01*
X42986561Y-54187158D01*
X42946169Y-54262728D01*
X42921295Y-54344725D01*
X42912896Y-54430000D01*
X42912896Y-55597500D01*
X42837985Y-55597500D01*
X42801573Y-55529377D01*
X42720009Y-55429991D01*
X42620623Y-55348427D01*
X42515000Y-55291971D01*
X42515000Y-55181226D01*
X42517490Y-55155943D01*
X42515000Y-55130661D01*
X42515000Y-55130651D01*
X42507548Y-55054987D01*
X42478099Y-54957909D01*
X42430278Y-54868441D01*
X42417766Y-54853196D01*
X42382044Y-54809668D01*
X42382041Y-54809665D01*
X42365921Y-54790023D01*
X42346279Y-54773903D01*
X42263242Y-54690866D01*
X42292889Y-54678586D01*
X42446028Y-54576262D01*
X42576262Y-54446028D01*
X42678586Y-54292889D01*
X42749068Y-54122729D01*
X42785000Y-53942089D01*
X42785000Y-53757911D01*
X42749068Y-53577271D01*
X42678586Y-53407111D01*
X42576262Y-53253972D01*
X42446028Y-53123738D01*
X42292889Y-53021414D01*
X42122729Y-52950932D01*
X41942089Y-52915000D01*
X41757911Y-52915000D01*
X41584999Y-52949395D01*
X41584999Y-51525000D01*
X42736928Y-51525000D01*
X42740000Y-51714250D01*
X42898750Y-51873000D01*
X43685500Y-51873000D01*
X43685500Y-51048750D01*
X43526750Y-50890000D01*
X43375000Y-50886928D01*
X43250518Y-50899188D01*
X43130820Y-50935498D01*
X43020506Y-50994463D01*
X42923815Y-51073815D01*
X42844463Y-51170506D01*
X42785498Y-51280820D01*
X42749188Y-51400518D01*
X42736928Y-51525000D01*
X41584999Y-51525000D01*
X41584999Y-51203683D01*
X41587489Y-51178400D01*
X41584999Y-51153118D01*
X41584999Y-51153108D01*
X41577547Y-51077444D01*
X41548098Y-50980366D01*
X41546486Y-50977349D01*
X41593535Y-50945912D01*
X41695912Y-50843535D01*
X41776348Y-50723153D01*
X41831754Y-50589391D01*
X41860000Y-50447391D01*
X41860000Y-50302609D01*
X41831754Y-50160609D01*
X41820175Y-50132655D01*
X41889538Y-50125823D01*
X41999675Y-50092413D01*
X42052438Y-50064211D01*
X42123815Y-50151185D01*
X42220506Y-50230537D01*
X42330820Y-50289502D01*
X42450518Y-50325812D01*
X42575000Y-50338072D01*
X42589250Y-50335000D01*
X42748000Y-50176250D01*
X42748000Y-48977000D01*
X43002000Y-48977000D01*
X43002000Y-50176250D01*
X43160750Y-50335000D01*
X43175000Y-50338072D01*
X43299482Y-50325812D01*
X43419180Y-50289502D01*
X43529494Y-50230537D01*
X43626185Y-50151185D01*
X43705537Y-50054494D01*
X43764502Y-49944180D01*
X43800812Y-49824482D01*
X43813072Y-49700000D01*
X43810000Y-49135750D01*
X43651250Y-48977000D01*
X43002000Y-48977000D01*
X42748000Y-48977000D01*
X42728000Y-48977000D01*
X42728000Y-48723000D01*
X42748000Y-48723000D01*
X42748000Y-48703000D01*
X43002000Y-48703000D01*
X43002000Y-48723000D01*
X43651250Y-48723000D01*
X43810000Y-48564250D01*
X43813072Y-48000000D01*
X43800812Y-47875518D01*
X43780614Y-47808933D01*
X44685000Y-48713320D01*
X44685000Y-48713320D01*
G37*
X44685000Y-48713320D02*
X44685001Y-48962208D01*
X44682510Y-48987500D01*
X44685001Y-49012792D01*
X44685001Y-49012793D01*
X44688855Y-49051922D01*
X44692453Y-49088457D01*
X44721902Y-49185535D01*
X44769722Y-49275003D01*
X44817956Y-49333775D01*
X44817960Y-49333779D01*
X44834080Y-49353421D01*
X44853722Y-49369541D01*
X45087896Y-49603715D01*
X45087896Y-50006250D01*
X45100498Y-50134201D01*
X45137820Y-50257234D01*
X45198427Y-50370623D01*
X45279991Y-50470009D01*
X45379377Y-50551573D01*
X45492766Y-50612180D01*
X45615799Y-50649502D01*
X45743750Y-50662104D01*
X46014249Y-50662104D01*
X45999997Y-50669722D01*
X45999995Y-50669723D01*
X45999996Y-50669723D01*
X45941224Y-50717956D01*
X45941221Y-50717959D01*
X45921579Y-50734079D01*
X45905459Y-50753721D01*
X45571284Y-51087896D01*
X45168750Y-51087896D01*
X45040799Y-51100498D01*
X44917766Y-51137820D01*
X44804377Y-51198427D01*
X44798180Y-51203513D01*
X44780537Y-51170506D01*
X44701185Y-51073815D01*
X44604494Y-50994463D01*
X44494180Y-50935498D01*
X44374482Y-50899188D01*
X44250000Y-50886928D01*
X44098250Y-50890000D01*
X43939500Y-51048750D01*
X43939500Y-51873000D01*
X43959500Y-51873000D01*
X43959500Y-52127000D01*
X43939500Y-52127000D01*
X43939500Y-52147000D01*
X43685500Y-52147000D01*
X43685500Y-52127000D01*
X42898750Y-52127000D01*
X42740000Y-52285750D01*
X42736928Y-52475000D01*
X42749188Y-52599482D01*
X42785498Y-52719180D01*
X42844463Y-52829494D01*
X42923815Y-52926185D01*
X42999106Y-52987975D01*
X42975498Y-53065799D01*
X42962896Y-53193750D01*
X42962896Y-53706250D01*
X42975498Y-53834201D01*
X43012820Y-53957234D01*
X43015001Y-53961314D01*
X43015001Y-54152505D01*
X42986561Y-54187158D01*
X42946169Y-54262728D01*
X42921295Y-54344725D01*
X42912896Y-54430000D01*
X42912896Y-55597500D01*
X42837985Y-55597500D01*
X42801573Y-55529377D01*
X42720009Y-55429991D01*
X42620623Y-55348427D01*
X42515000Y-55291971D01*
X42515000Y-55181226D01*
X42517490Y-55155943D01*
X42515000Y-55130661D01*
X42515000Y-55130651D01*
X42507548Y-55054987D01*
X42478099Y-54957909D01*
X42430278Y-54868441D01*
X42417766Y-54853196D01*
X42382044Y-54809668D01*
X42382041Y-54809665D01*
X42365921Y-54790023D01*
X42346279Y-54773903D01*
X42263242Y-54690866D01*
X42292889Y-54678586D01*
X42446028Y-54576262D01*
X42576262Y-54446028D01*
X42678586Y-54292889D01*
X42749068Y-54122729D01*
X42785000Y-53942089D01*
X42785000Y-53757911D01*
X42749068Y-53577271D01*
X42678586Y-53407111D01*
X42576262Y-53253972D01*
X42446028Y-53123738D01*
X42292889Y-53021414D01*
X42122729Y-52950932D01*
X41942089Y-52915000D01*
X41757911Y-52915000D01*
X41584999Y-52949395D01*
X41584999Y-51525000D01*
X42736928Y-51525000D01*
X42740000Y-51714250D01*
X42898750Y-51873000D01*
X43685500Y-51873000D01*
X43685500Y-51048750D01*
X43526750Y-50890000D01*
X43375000Y-50886928D01*
X43250518Y-50899188D01*
X43130820Y-50935498D01*
X43020506Y-50994463D01*
X42923815Y-51073815D01*
X42844463Y-51170506D01*
X42785498Y-51280820D01*
X42749188Y-51400518D01*
X42736928Y-51525000D01*
X41584999Y-51525000D01*
X41584999Y-51203683D01*
X41587489Y-51178400D01*
X41584999Y-51153118D01*
X41584999Y-51153108D01*
X41577547Y-51077444D01*
X41548098Y-50980366D01*
X41546486Y-50977349D01*
X41593535Y-50945912D01*
X41695912Y-50843535D01*
X41776348Y-50723153D01*
X41831754Y-50589391D01*
X41860000Y-50447391D01*
X41860000Y-50302609D01*
X41831754Y-50160609D01*
X41820175Y-50132655D01*
X41889538Y-50125823D01*
X41999675Y-50092413D01*
X42052438Y-50064211D01*
X42123815Y-50151185D01*
X42220506Y-50230537D01*
X42330820Y-50289502D01*
X42450518Y-50325812D01*
X42575000Y-50338072D01*
X42589250Y-50335000D01*
X42748000Y-50176250D01*
X42748000Y-48977000D01*
X43002000Y-48977000D01*
X43002000Y-50176250D01*
X43160750Y-50335000D01*
X43175000Y-50338072D01*
X43299482Y-50325812D01*
X43419180Y-50289502D01*
X43529494Y-50230537D01*
X43626185Y-50151185D01*
X43705537Y-50054494D01*
X43764502Y-49944180D01*
X43800812Y-49824482D01*
X43813072Y-49700000D01*
X43810000Y-49135750D01*
X43651250Y-48977000D01*
X43002000Y-48977000D01*
X42748000Y-48977000D01*
X42728000Y-48977000D01*
X42728000Y-48723000D01*
X42748000Y-48723000D01*
X42748000Y-48703000D01*
X43002000Y-48703000D01*
X43002000Y-48723000D01*
X43651250Y-48723000D01*
X43810000Y-48564250D01*
X43813072Y-48000000D01*
X43800812Y-47875518D01*
X43780614Y-47808933D01*
X44685000Y-48713320D01*
G36*
X40377000Y-55085500D02*
G01*
X40397000Y-55085500D01*
X40397000Y-55339500D01*
X40377000Y-55339500D01*
X40377000Y-55359500D01*
X40123000Y-55359500D01*
X40123000Y-55339500D01*
X40103000Y-55339500D01*
X40103000Y-55085500D01*
X40123000Y-55085500D01*
X40123000Y-55065500D01*
X40377000Y-55065500D01*
X40377000Y-55085500D01*
X40377000Y-55085500D01*
G37*
X40377000Y-55085500D02*
X40397000Y-55085500D01*
X40397000Y-55339500D01*
X40377000Y-55339500D01*
X40377000Y-55359500D01*
X40123000Y-55359500D01*
X40123000Y-55339500D01*
X40103000Y-55339500D01*
X40103000Y-55085500D01*
X40123000Y-55085500D01*
X40123000Y-55065500D01*
X40377000Y-55065500D01*
X40377000Y-55085500D01*
G36*
X39364712Y-50190895D02*
G01*
X39429069Y-50269313D01*
X39448717Y-50285438D01*
X40412095Y-51248817D01*
X40242089Y-51215000D01*
X40057911Y-51215000D01*
X39877271Y-51250932D01*
X39707111Y-51321414D01*
X39553972Y-51423738D01*
X39423738Y-51553972D01*
X39321414Y-51707111D01*
X39250932Y-51877271D01*
X39215000Y-52057911D01*
X39215000Y-52242089D01*
X39250932Y-52422729D01*
X39321414Y-52592889D01*
X39423738Y-52746028D01*
X39553972Y-52876262D01*
X39707111Y-52978586D01*
X39758809Y-53000000D01*
X39707111Y-53021414D01*
X39553972Y-53123738D01*
X39423738Y-53253972D01*
X39321414Y-53407111D01*
X39250932Y-53577271D01*
X39215000Y-53757911D01*
X39215000Y-53942089D01*
X39250932Y-54122729D01*
X39321414Y-54292889D01*
X39335610Y-54314135D01*
X39323815Y-54323815D01*
X39244463Y-54420506D01*
X39185498Y-54530820D01*
X39149188Y-54650518D01*
X39136928Y-54775000D01*
X39138003Y-54828111D01*
X39072391Y-54815060D01*
X38993319Y-54815060D01*
X38934998Y-54756739D01*
X38934998Y-53170268D01*
X38978099Y-53089631D01*
X39007548Y-52992553D01*
X39015000Y-52916889D01*
X39015000Y-52916878D01*
X39017490Y-52891596D01*
X39015000Y-52866314D01*
X39015000Y-50137104D01*
X39275000Y-50137104D01*
X39332912Y-50131400D01*
X39364712Y-50190895D01*
X39364712Y-50190895D01*
G37*
X39364712Y-50190895D02*
X39429069Y-50269313D01*
X39448717Y-50285438D01*
X40412095Y-51248817D01*
X40242089Y-51215000D01*
X40057911Y-51215000D01*
X39877271Y-51250932D01*
X39707111Y-51321414D01*
X39553972Y-51423738D01*
X39423738Y-51553972D01*
X39321414Y-51707111D01*
X39250932Y-51877271D01*
X39215000Y-52057911D01*
X39215000Y-52242089D01*
X39250932Y-52422729D01*
X39321414Y-52592889D01*
X39423738Y-52746028D01*
X39553972Y-52876262D01*
X39707111Y-52978586D01*
X39758809Y-53000000D01*
X39707111Y-53021414D01*
X39553972Y-53123738D01*
X39423738Y-53253972D01*
X39321414Y-53407111D01*
X39250932Y-53577271D01*
X39215000Y-53757911D01*
X39215000Y-53942089D01*
X39250932Y-54122729D01*
X39321414Y-54292889D01*
X39335610Y-54314135D01*
X39323815Y-54323815D01*
X39244463Y-54420506D01*
X39185498Y-54530820D01*
X39149188Y-54650518D01*
X39136928Y-54775000D01*
X39138003Y-54828111D01*
X39072391Y-54815060D01*
X38993319Y-54815060D01*
X38934998Y-54756739D01*
X38934998Y-53170268D01*
X38978099Y-53089631D01*
X39007548Y-52992553D01*
X39015000Y-52916889D01*
X39015000Y-52916878D01*
X39017490Y-52891596D01*
X39015000Y-52866314D01*
X39015000Y-50137104D01*
X39275000Y-50137104D01*
X39332912Y-50131400D01*
X39364712Y-50190895D01*
G36*
X46490000Y-47138405D02*
G01*
X46475000Y-47136928D01*
X46285750Y-47140000D01*
X46127000Y-47298750D01*
X46127000Y-48085500D01*
X46147000Y-48085500D01*
X46147000Y-48339500D01*
X46127000Y-48339500D01*
X46127000Y-48359500D01*
X45873000Y-48359500D01*
X45873000Y-48339500D01*
X45853000Y-48339500D01*
X45853000Y-48085500D01*
X45873000Y-48085500D01*
X45873000Y-47298750D01*
X45714250Y-47140000D01*
X45541820Y-47137201D01*
X45546306Y-47131735D01*
X45609801Y-47012943D01*
X45648901Y-46884047D01*
X45662104Y-46750000D01*
X45662104Y-44550000D01*
X45658164Y-44510000D01*
X46490001Y-44510000D01*
X46490000Y-47138405D01*
X46490000Y-47138405D01*
G37*
X46490000Y-47138405D02*
X46475000Y-47136928D01*
X46285750Y-47140000D01*
X46127000Y-47298750D01*
X46127000Y-48085500D01*
X46147000Y-48085500D01*
X46147000Y-48339500D01*
X46127000Y-48339500D01*
X46127000Y-48359500D01*
X45873000Y-48359500D01*
X45873000Y-48339500D01*
X45853000Y-48339500D01*
X45853000Y-48085500D01*
X45873000Y-48085500D01*
X45873000Y-47298750D01*
X45714250Y-47140000D01*
X45541820Y-47137201D01*
X45546306Y-47131735D01*
X45609801Y-47012943D01*
X45648901Y-46884047D01*
X45662104Y-46750000D01*
X45662104Y-44550000D01*
X45658164Y-44510000D01*
X46490001Y-44510000D01*
X46490000Y-47138405D01*
G36*
X39250932Y-44577271D02*
G01*
X39215000Y-44757911D01*
X39215000Y-44942089D01*
X39250932Y-45122729D01*
X39321414Y-45292889D01*
X39423738Y-45446028D01*
X39553972Y-45576262D01*
X39707111Y-45678586D01*
X39877271Y-45749068D01*
X40057911Y-45785000D01*
X40242089Y-45785000D01*
X40422729Y-45749068D01*
X40592889Y-45678586D01*
X40746028Y-45576262D01*
X40876262Y-45446028D01*
X40978586Y-45292889D01*
X41049068Y-45122729D01*
X41085000Y-44942089D01*
X41085000Y-44757911D01*
X41049068Y-44577271D01*
X41021204Y-44510000D01*
X43791836Y-44510000D01*
X43787896Y-44550000D01*
X43787896Y-46750000D01*
X43789374Y-46765010D01*
X39722548Y-46765010D01*
X39706754Y-46685609D01*
X39651348Y-46551847D01*
X39570912Y-46431465D01*
X39468535Y-46329088D01*
X39348153Y-46248652D01*
X39214391Y-46193246D01*
X39072391Y-46165000D01*
X38927609Y-46165000D01*
X38785609Y-46193246D01*
X38651847Y-46248652D01*
X38531465Y-46329088D01*
X38429088Y-46431465D01*
X38348652Y-46551847D01*
X38293246Y-46685609D01*
X38265000Y-46827609D01*
X38265000Y-46906680D01*
X38160264Y-47011416D01*
X38198901Y-46884047D01*
X38212104Y-46750000D01*
X38212104Y-44550000D01*
X38208164Y-44510000D01*
X39278796Y-44510000D01*
X39250932Y-44577271D01*
X39250932Y-44577271D01*
G37*
X39250932Y-44577271D02*
X39215000Y-44757911D01*
X39215000Y-44942089D01*
X39250932Y-45122729D01*
X39321414Y-45292889D01*
X39423738Y-45446028D01*
X39553972Y-45576262D01*
X39707111Y-45678586D01*
X39877271Y-45749068D01*
X40057911Y-45785000D01*
X40242089Y-45785000D01*
X40422729Y-45749068D01*
X40592889Y-45678586D01*
X40746028Y-45576262D01*
X40876262Y-45446028D01*
X40978586Y-45292889D01*
X41049068Y-45122729D01*
X41085000Y-44942089D01*
X41085000Y-44757911D01*
X41049068Y-44577271D01*
X41021204Y-44510000D01*
X43791836Y-44510000D01*
X43787896Y-44550000D01*
X43787896Y-46750000D01*
X43789374Y-46765010D01*
X39722548Y-46765010D01*
X39706754Y-46685609D01*
X39651348Y-46551847D01*
X39570912Y-46431465D01*
X39468535Y-46329088D01*
X39348153Y-46248652D01*
X39214391Y-46193246D01*
X39072391Y-46165000D01*
X38927609Y-46165000D01*
X38785609Y-46193246D01*
X38651847Y-46248652D01*
X38531465Y-46329088D01*
X38429088Y-46431465D01*
X38348652Y-46551847D01*
X38293246Y-46685609D01*
X38265000Y-46827609D01*
X38265000Y-46906680D01*
X38160264Y-47011416D01*
X38198901Y-46884047D01*
X38212104Y-46750000D01*
X38212104Y-44550000D01*
X38208164Y-44510000D01*
X39278796Y-44510000D01*
X39250932Y-44577271D01*
M02*
