M48
; DRILL file {KiCad (5.1.0-0)} date 2019 June 18, Tuesday 08:50:18
; FORMAT={-:-/ absolute / inch / decimal}
; #@! TF.CreationDate,2019-06-18T08:50:18-07:00
; #@! TF.GenerationSoftware,Kicad,Pcbnew,(5.1.0-0)
; #@! TF.FileFunction,Plated,1,2,PTH
FMAT,2
INCH
T1C0.0118
T2C0.0157
T3C0.0866
%
G90
G05
T1
X1.4252Y-2.0236
X1.4685Y-1.9449
X1.4764Y-2.3327
X1.4898Y-2.1024
X1.5354Y-1.8465
X1.5354Y-2.0965
X1.5354Y-2.187
X1.5453Y-2.3228
X1.565Y-2.2146
X1.6176Y-2.3076
X1.6191Y-1.9833
X1.6339Y-1.8898
X1.6831Y-2.3819
X1.7028Y-2.0472
X1.7323Y-2.3138
X1.7749Y-2.3454
X1.8268Y-1.8189
X1.8425Y-2.0118
T2
X1.5276Y-1.7677
X1.6732Y-1.7589
X1.2146Y-2.0866
X1.2336Y-2.0407
X1.2336Y-2.1325
X1.2795Y-2.0217
X1.2795Y-2.1516
X1.3255Y-2.0407
X1.3255Y-2.1325
X1.3445Y-2.0866
X1.8839Y-2.0866
X1.9029Y-2.0407
X1.9029Y-2.1325
X1.9488Y-2.0217
X1.9488Y-2.1516
X1.9948Y-2.0407
X1.9948Y-2.1325
X2.0138Y-2.0866
T3
X1.2795Y-2.0866
X1.9488Y-2.0866
T0
M30
