G04 #@! TF.GenerationSoftware,KiCad,Pcbnew,(5.1.0-0)*
G04 #@! TF.CreationDate,2019-06-18T08:50:15-07:00*
G04 #@! TF.ProjectId,airdata,61697264-6174-4612-9e6b-696361645f70,rev?*
G04 #@! TF.SameCoordinates,Original*
G04 #@! TF.FileFunction,Paste,Top*
G04 #@! TF.FilePolarity,Positive*
%FSLAX46Y46*%
G04 Gerber Fmt 4.6, Leading zero omitted, Abs format (unit mm)*
G04 Created by KiCad (PCBNEW (5.1.0-0)) date 2019-06-18 08:50:15*
%MOMM*%
%LPD*%
G04 APERTURE LIST*
%ADD10R,0.900000X1.800000*%
%ADD11C,0.500000*%
%ADD12C,0.100000*%
%ADD13R,0.400000X0.750000*%
%ADD14R,0.750000X0.400000*%
%ADD15R,1.100000X0.600000*%
G04 APERTURE END LIST*
D10*
X38850000Y-48500000D03*
D11*
X37150000Y-48500000D03*
D12*
G36*
X37600000Y-47600000D02*
G01*
X37600000Y-49400000D01*
X37000000Y-49400000D01*
X36700000Y-49100000D01*
X36700000Y-47600000D01*
X37600000Y-47600000D01*
X37600000Y-47600000D01*
G37*
D13*
X37000000Y-51325000D03*
X38000000Y-51325000D03*
X39000000Y-51325000D03*
X39000000Y-45675000D03*
X38000000Y-45675000D03*
X37000000Y-45675000D03*
D14*
X40075000Y-50500000D03*
X40075000Y-49500000D03*
X40075000Y-48500000D03*
X40075000Y-47500000D03*
X40075000Y-46500000D03*
X35925000Y-46500000D03*
X35925000Y-47500000D03*
X35925000Y-48500000D03*
X35925000Y-49500000D03*
X35925000Y-50500000D03*
D10*
X38850000Y-57500000D03*
D11*
X37150000Y-57500000D03*
D12*
G36*
X37600000Y-56600000D02*
G01*
X37600000Y-58400000D01*
X37000000Y-58400000D01*
X36700000Y-58100000D01*
X36700000Y-56600000D01*
X37600000Y-56600000D01*
X37600000Y-56600000D01*
G37*
D13*
X37000000Y-60325000D03*
X38000000Y-60325000D03*
X39000000Y-60325000D03*
X39000000Y-54675000D03*
X38000000Y-54675000D03*
X37000000Y-54675000D03*
D14*
X40075000Y-59500000D03*
X40075000Y-58500000D03*
X40075000Y-57500000D03*
X40075000Y-56500000D03*
X40075000Y-55500000D03*
X35925000Y-55500000D03*
X35925000Y-56500000D03*
X35925000Y-57500000D03*
X35925000Y-58500000D03*
X35925000Y-59500000D03*
X46075000Y-55500000D03*
X46075000Y-56500000D03*
X46075000Y-57500000D03*
X46075000Y-58500000D03*
X46075000Y-59500000D03*
X41925000Y-59500000D03*
X41925000Y-58500000D03*
X41925000Y-57500000D03*
X41925000Y-56500000D03*
X41925000Y-55500000D03*
D13*
X45000000Y-60325000D03*
X44000000Y-60325000D03*
X43000000Y-60325000D03*
X43000000Y-54675000D03*
X44000000Y-54675000D03*
X45000000Y-54675000D03*
D11*
X44850000Y-57500000D03*
D12*
G36*
X44400000Y-58400000D02*
G01*
X44400000Y-56600000D01*
X45000000Y-56600000D01*
X45300000Y-56900000D01*
X45300000Y-58400000D01*
X44400000Y-58400000D01*
X44400000Y-58400000D01*
G37*
D10*
X43150000Y-57500000D03*
D15*
X42900000Y-47875000D03*
X42900000Y-46625000D03*
X42900000Y-49125000D03*
X42900000Y-50375000D03*
X45100000Y-50375000D03*
X45100000Y-49125000D03*
X45100000Y-46625000D03*
X45100000Y-47875000D03*
M02*
