G04 #@! TF.GenerationSoftware,KiCad,Pcbnew,(5.1.0-0)*
G04 #@! TF.CreationDate,2019-06-18T08:50:15-07:00*
G04 #@! TF.ProjectId,airdata,61697264-6174-4612-9e6b-696361645f70,rev?*
G04 #@! TF.SameCoordinates,Original*
G04 #@! TF.FileFunction,Copper,L1,Top*
G04 #@! TF.FilePolarity,Positive*
%FSLAX46Y46*%
G04 Gerber Fmt 4.6, Leading zero omitted, Abs format (unit mm)*
G04 Created by KiCad (PCBNEW (5.1.0-0)) date 2019-06-18 08:50:15*
%MOMM*%
%LPD*%
G04 APERTURE LIST*
%ADD10C,0.700000*%
%ADD11C,4.400000*%
%ADD12R,0.900000X1.800000*%
%ADD13C,0.500000*%
%ADD14C,0.100000*%
%ADD15C,1.000000*%
%ADD16R,0.400000X0.750000*%
%ADD17R,0.750000X0.400000*%
%ADD18R,1.100000X0.600000*%
%ADD19C,0.600000*%
%ADD20C,0.800000*%
%ADD21C,0.160000*%
%ADD22C,0.250000*%
%ADD23C,0.254000*%
G04 APERTURE END LIST*
D10*
X50666726Y-51833274D03*
X49500000Y-51350000D03*
X48333274Y-51833274D03*
X47850000Y-53000000D03*
X48333274Y-54166726D03*
X49500000Y-54650000D03*
X50666726Y-54166726D03*
X51150000Y-53000000D03*
D11*
X49500000Y-53000000D03*
D10*
X33666726Y-51833274D03*
X32500000Y-51350000D03*
X31333274Y-51833274D03*
X30850000Y-53000000D03*
X31333274Y-54166726D03*
X32500000Y-54650000D03*
X33666726Y-54166726D03*
X34150000Y-53000000D03*
D11*
X32500000Y-53000000D03*
D12*
X38850000Y-48500000D03*
D13*
X37150000Y-48500000D03*
D14*
G36*
X37600000Y-47600000D02*
G01*
X37600000Y-49400000D01*
X37000000Y-49400000D01*
X36700000Y-49100000D01*
X36700000Y-47600000D01*
X37600000Y-47600000D01*
X37600000Y-47600000D01*
G37*
D15*
X40150000Y-52150000D03*
X40150000Y-44850000D03*
X35850000Y-44850000D03*
D16*
X37000000Y-51325000D03*
X38000000Y-51325000D03*
X39000000Y-51325000D03*
X39000000Y-45675000D03*
X38000000Y-45675000D03*
X37000000Y-45675000D03*
D17*
X40075000Y-50500000D03*
X40075000Y-49500000D03*
X40075000Y-48500000D03*
X40075000Y-47500000D03*
X40075000Y-46500000D03*
X35925000Y-46500000D03*
X35925000Y-47500000D03*
X35925000Y-48500000D03*
X35925000Y-49500000D03*
X35925000Y-50500000D03*
D12*
X38850000Y-57500000D03*
D13*
X37150000Y-57500000D03*
D14*
G36*
X37600000Y-56600000D02*
G01*
X37600000Y-58400000D01*
X37000000Y-58400000D01*
X36700000Y-58100000D01*
X36700000Y-56600000D01*
X37600000Y-56600000D01*
X37600000Y-56600000D01*
G37*
D15*
X40150000Y-61150000D03*
X40150000Y-53850000D03*
X35850000Y-53850000D03*
D16*
X37000000Y-60325000D03*
X38000000Y-60325000D03*
X39000000Y-60325000D03*
X39000000Y-54675000D03*
X38000000Y-54675000D03*
X37000000Y-54675000D03*
D17*
X40075000Y-59500000D03*
X40075000Y-58500000D03*
X40075000Y-57500000D03*
X40075000Y-56500000D03*
X40075000Y-55500000D03*
X35925000Y-55500000D03*
X35925000Y-56500000D03*
X35925000Y-57500000D03*
X35925000Y-58500000D03*
X35925000Y-59500000D03*
X46075000Y-55500000D03*
X46075000Y-56500000D03*
X46075000Y-57500000D03*
X46075000Y-58500000D03*
X46075000Y-59500000D03*
X41925000Y-59500000D03*
X41925000Y-58500000D03*
X41925000Y-57500000D03*
X41925000Y-56500000D03*
X41925000Y-55500000D03*
D16*
X45000000Y-60325000D03*
X44000000Y-60325000D03*
X43000000Y-60325000D03*
X43000000Y-54675000D03*
X44000000Y-54675000D03*
X45000000Y-54675000D03*
D15*
X46150000Y-61150000D03*
X41850000Y-61150000D03*
X41850000Y-53850000D03*
D13*
X44850000Y-57500000D03*
D14*
G36*
X44400000Y-58400000D02*
G01*
X44400000Y-56600000D01*
X45000000Y-56600000D01*
X45300000Y-56900000D01*
X45300000Y-58400000D01*
X44400000Y-58400000D01*
X44400000Y-58400000D01*
G37*
D12*
X43150000Y-57500000D03*
D18*
X42900000Y-47875000D03*
X42900000Y-46625000D03*
X42900000Y-49125000D03*
X42900000Y-50375000D03*
X45100000Y-50375000D03*
X45100000Y-49125000D03*
X45100000Y-46625000D03*
X45100000Y-47875000D03*
D19*
X41500000Y-48000000D03*
X39000000Y-55550060D03*
X39250000Y-59000000D03*
X46800000Y-51100000D03*
X39000000Y-46900000D03*
X39750000Y-56249974D03*
X41087131Y-58612869D03*
X46400000Y-46200000D03*
X37300000Y-49400000D03*
X36200000Y-51400000D03*
X44000000Y-58770002D03*
X45082446Y-59572714D03*
X43250000Y-52000000D03*
X39000000Y-53250000D03*
X37500000Y-59250000D03*
D20*
X42500000Y-44675026D03*
X38800000Y-44900000D03*
D19*
X41125000Y-50375000D03*
X37839988Y-53400000D03*
X42750000Y-60500000D03*
D21*
X42650000Y-49125000D02*
X42900000Y-49125000D01*
X42190000Y-48665000D02*
X42650000Y-49125000D01*
X42190000Y-48440000D02*
X42190000Y-48665000D01*
X41625000Y-47875000D02*
X41500000Y-48000000D01*
X40250000Y-46500000D02*
X41625000Y-47875000D01*
X41625000Y-47875000D02*
X42190000Y-48440000D01*
X39424264Y-55550060D02*
X39000000Y-55550060D01*
X40199940Y-55550060D02*
X39424264Y-55550060D01*
X40250000Y-55500000D02*
X40199940Y-55550060D01*
X39269999Y-59019999D02*
X39250000Y-59000000D01*
X40674001Y-59019999D02*
X39269999Y-59019999D01*
X41154002Y-59500000D02*
X40674001Y-59019999D01*
X41750000Y-59500000D02*
X41154002Y-59500000D01*
X45350000Y-50375000D02*
X46075000Y-51100000D01*
X46075000Y-51100000D02*
X46800000Y-51100000D01*
X45100000Y-50375000D02*
X45350000Y-50375000D01*
X45100000Y-50375000D02*
X45100000Y-49125000D01*
X44850000Y-46625000D02*
X45100000Y-46625000D01*
X44269999Y-47205001D02*
X44850000Y-46625000D01*
X44390000Y-49125000D02*
X44269999Y-49004999D01*
X45100000Y-49125000D02*
X44390000Y-49125000D01*
X44155001Y-47630001D02*
X44269999Y-47630001D01*
X43150000Y-46625000D02*
X44155001Y-47630001D01*
X42900000Y-46625000D02*
X43150000Y-46625000D01*
X44269999Y-47630001D02*
X44269999Y-47205001D01*
X44269999Y-49004999D02*
X44269999Y-47630001D01*
X39600000Y-47500000D02*
X39000000Y-46900000D01*
X40250000Y-47500000D02*
X39600000Y-47500000D01*
X40200027Y-56549973D02*
X40049999Y-56549973D01*
X40049999Y-56549973D02*
X39750000Y-56249974D01*
X40250000Y-56500000D02*
X40200027Y-56549973D01*
X41511395Y-58612869D02*
X41087131Y-58612869D01*
X41637131Y-58612869D02*
X41511395Y-58612869D01*
X41750000Y-58500000D02*
X41637131Y-58612869D01*
X45350000Y-47875000D02*
X45100000Y-47875000D01*
X46100001Y-47124999D02*
X45350000Y-47875000D01*
X46100001Y-46499999D02*
X46100001Y-47124999D01*
X46400000Y-46200000D02*
X46100001Y-46499999D01*
X37300000Y-48650000D02*
X37150000Y-48500000D01*
X37300000Y-49400000D02*
X37300000Y-48650000D01*
X40250000Y-48500000D02*
X38850000Y-48500000D01*
X36900000Y-51400000D02*
X37000000Y-51500000D01*
X36200000Y-51400000D02*
X36900000Y-51400000D01*
X45000000Y-60500000D02*
X45082446Y-60417554D01*
X45082446Y-59996978D02*
X45082446Y-59572714D01*
X45082446Y-60417554D02*
X45082446Y-59996978D01*
X44850000Y-57920002D02*
X44850000Y-57500000D01*
X44000000Y-58770002D02*
X44850000Y-57920002D01*
X43150000Y-57920002D02*
X43150000Y-57500000D01*
X44000000Y-58770002D02*
X43150000Y-57920002D01*
X44000000Y-58770002D02*
X44000000Y-60500000D01*
X44802712Y-59572714D02*
X44000000Y-58770002D01*
X45082446Y-59572714D02*
X44802712Y-59572714D01*
X43150000Y-54650000D02*
X43000000Y-54500000D01*
X43150000Y-57500000D02*
X43150000Y-54650000D01*
X43000000Y-52250000D02*
X43250000Y-52000000D01*
X43000000Y-54500000D02*
X43000000Y-52250000D01*
X44000000Y-58770002D02*
X44000000Y-54500000D01*
X44000000Y-52750000D02*
X43250000Y-52000000D01*
X44000000Y-54500000D02*
X44000000Y-52750000D01*
X45000000Y-53750000D02*
X43250000Y-52000000D01*
X45000000Y-54500000D02*
X45000000Y-53750000D01*
X38240000Y-57500000D02*
X38850000Y-57500000D01*
X38000000Y-57740000D02*
X38240000Y-57500000D01*
X38850000Y-57500000D02*
X40250000Y-57500000D01*
X38000000Y-58250000D02*
X38000000Y-57740000D01*
X37000000Y-55000000D02*
X38000000Y-56000000D01*
X37000000Y-54500000D02*
X37000000Y-55000000D01*
X38000000Y-56000000D02*
X38000000Y-58250000D01*
X38000000Y-54500000D02*
X38000000Y-56000000D01*
X37000000Y-51500000D02*
X37000000Y-54500000D01*
X37150000Y-51350000D02*
X37000000Y-51500000D01*
X37150000Y-48500000D02*
X37150000Y-51350000D01*
X38000000Y-48260000D02*
X38000000Y-45500000D01*
X38240000Y-48500000D02*
X38000000Y-48260000D01*
X38850000Y-48500000D02*
X38240000Y-48500000D01*
X37700000Y-48500000D02*
X38850000Y-48500000D01*
X37150000Y-48500000D02*
X37700000Y-48500000D01*
X46400000Y-46200000D02*
X46400000Y-49650000D01*
X46400000Y-49650000D02*
X47500000Y-50750000D01*
X47500000Y-51000000D02*
X49500000Y-53000000D01*
X47500000Y-50750000D02*
X47500000Y-51000000D01*
X47500000Y-51000000D02*
X47500000Y-51250000D01*
X47500000Y-51250000D02*
X46750000Y-52000000D01*
X39519999Y-46019999D02*
X41230001Y-46019999D01*
X39000000Y-45500000D02*
X39519999Y-46019999D01*
X41230001Y-46019999D02*
X42000000Y-45250000D01*
X42000000Y-45250000D02*
X45450000Y-45250000D01*
X34100000Y-51400000D02*
X32500000Y-53000000D01*
X36200000Y-51400000D02*
X34100000Y-51400000D01*
X37000000Y-51500000D02*
X38000000Y-51500000D01*
X38000000Y-51500000D02*
X39000000Y-51500000D01*
X39000000Y-53250000D02*
X39000000Y-51500000D01*
X37000000Y-45500000D02*
X38000000Y-45500000D01*
X38000000Y-45500000D02*
X39000000Y-45500000D01*
X38000000Y-59750000D02*
X37799999Y-59549999D01*
X37150000Y-57500000D02*
X37750000Y-58100000D01*
X38000000Y-58250000D02*
X37750000Y-58500000D01*
X37799999Y-58950001D02*
X37500000Y-59250000D01*
X38000000Y-60500000D02*
X38000000Y-59750000D01*
X37750000Y-58100000D02*
X37750000Y-58825736D01*
X37750000Y-58500000D02*
X37750000Y-58825736D01*
X39000000Y-60500000D02*
X38750000Y-60500000D01*
X37799999Y-59549999D02*
X37500000Y-59250000D01*
X38750000Y-60500000D02*
X37799999Y-59549999D01*
X37799999Y-58875735D02*
X37799999Y-58950001D01*
X37000000Y-60500000D02*
X37500000Y-60000000D01*
X37500000Y-60000000D02*
X37500000Y-59674264D01*
X37500000Y-59674264D02*
X37500000Y-59250000D01*
X37750000Y-58825736D02*
X37799999Y-58875735D01*
D22*
X41500000Y-49750000D02*
X43850000Y-49750000D01*
X40250000Y-48500000D02*
X41500000Y-49750000D01*
X43850000Y-49750000D02*
X44100000Y-50000000D01*
D21*
X44100000Y-52000000D02*
X43250000Y-52000000D01*
D22*
X44100000Y-50000000D02*
X44100000Y-52000000D01*
D21*
X46750000Y-52000000D02*
X44100000Y-52000000D01*
D22*
X46400000Y-46200000D02*
X45450000Y-45250000D01*
X44875026Y-44675026D02*
X43065685Y-44675026D01*
X43065685Y-44675026D02*
X42500000Y-44675026D01*
X45450000Y-45250000D02*
X44875026Y-44675026D01*
X39175001Y-45675001D02*
X39000000Y-45500000D01*
X41500025Y-45675001D02*
X39175001Y-45675001D01*
X42500000Y-44675026D02*
X41500025Y-45675001D01*
X39000000Y-45100000D02*
X38800000Y-44900000D01*
X39000000Y-45500000D02*
X39000000Y-45100000D01*
X38000000Y-45500000D02*
X38000000Y-51500000D01*
D21*
X40730001Y-58019999D02*
X40730001Y-57519999D01*
X40250000Y-58500000D02*
X40730001Y-58019999D01*
X41175000Y-57075000D02*
X41750000Y-56500000D01*
X40730001Y-57519999D02*
X41175000Y-57075000D01*
X41125000Y-50375000D02*
X42900000Y-50375000D01*
X40250000Y-49500000D02*
X41125000Y-50375000D01*
X41125000Y-50375000D02*
X41125000Y-50799264D01*
X41380002Y-54521598D02*
X41380002Y-55019999D01*
X41380002Y-55019999D02*
X41175000Y-55225001D01*
X41069999Y-50854265D02*
X41069999Y-54211595D01*
X41069999Y-54211595D02*
X41380002Y-54521598D01*
X41125000Y-50799264D02*
X41069999Y-50854265D01*
X41175000Y-55225001D02*
X41175000Y-57075000D01*
X39000000Y-54500000D02*
X38939988Y-54500000D01*
X38939988Y-54500000D02*
X38139987Y-53699999D01*
X38139987Y-53699999D02*
X37839988Y-53400000D01*
X42750000Y-60500000D02*
X43000000Y-60500000D01*
D23*
G36*
X37948815Y-58851185D02*
G01*
X38045506Y-58930537D01*
X38155820Y-58989502D01*
X38275518Y-59025812D01*
X38400000Y-59038072D01*
X38515000Y-59035921D01*
X38515000Y-59072391D01*
X38543246Y-59214391D01*
X38598508Y-59347806D01*
X38542374Y-59366249D01*
X38500000Y-59390163D01*
X38457626Y-59366249D01*
X38338791Y-59327206D01*
X38231750Y-59315000D01*
X38073000Y-59473750D01*
X38073000Y-60198000D01*
X38927000Y-60198000D01*
X38927000Y-60178000D01*
X39073000Y-60178000D01*
X39073000Y-60198000D01*
X39147000Y-60198000D01*
X39147000Y-60452000D01*
X39073000Y-60452000D01*
X39073000Y-61176250D01*
X39231750Y-61335000D01*
X39233443Y-61334807D01*
X39250932Y-61422729D01*
X39278796Y-61490000D01*
X35510000Y-61490000D01*
X35510000Y-60685377D01*
X36162096Y-60685377D01*
X36171500Y-60810107D01*
X36205057Y-60930605D01*
X36261478Y-61042242D01*
X36338593Y-61140726D01*
X36433440Y-61222274D01*
X36542374Y-61283751D01*
X36661209Y-61322794D01*
X36768250Y-61335000D01*
X36927000Y-61176250D01*
X36927000Y-60452000D01*
X37073000Y-60452000D01*
X37073000Y-61176250D01*
X37231750Y-61335000D01*
X37338791Y-61322794D01*
X37457626Y-61283751D01*
X37500000Y-61259837D01*
X37542374Y-61283751D01*
X37661209Y-61322794D01*
X37768250Y-61335000D01*
X37927000Y-61176250D01*
X37927000Y-60452000D01*
X38073000Y-60452000D01*
X38073000Y-61176250D01*
X38231750Y-61335000D01*
X38338791Y-61322794D01*
X38457626Y-61283751D01*
X38500000Y-61259837D01*
X38542374Y-61283751D01*
X38661209Y-61322794D01*
X38768250Y-61335000D01*
X38927000Y-61176250D01*
X38927000Y-60452000D01*
X38073000Y-60452000D01*
X37927000Y-60452000D01*
X37073000Y-60452000D01*
X36927000Y-60452000D01*
X36323750Y-60452000D01*
X36165000Y-60610750D01*
X36162096Y-60685377D01*
X35510000Y-60685377D01*
X35510000Y-60133164D01*
X35550000Y-60137104D01*
X36262854Y-60137104D01*
X36323750Y-60198000D01*
X36927000Y-60198000D01*
X36927000Y-59473750D01*
X37073000Y-59473750D01*
X37073000Y-60198000D01*
X37927000Y-60198000D01*
X37927000Y-59473750D01*
X37768250Y-59315000D01*
X37661209Y-59327206D01*
X37542374Y-59366249D01*
X37500000Y-59390163D01*
X37457626Y-59366249D01*
X37338791Y-59327206D01*
X37231750Y-59315000D01*
X37073000Y-59473750D01*
X36927000Y-59473750D01*
X36768250Y-59315000D01*
X36737104Y-59318552D01*
X36737104Y-59300000D01*
X36728705Y-59214725D01*
X36703831Y-59132728D01*
X36663439Y-59057158D01*
X36616530Y-59000000D01*
X36663439Y-58942842D01*
X36703831Y-58867272D01*
X36716768Y-58824624D01*
X36804656Y-58871602D01*
X36900415Y-58900650D01*
X37000000Y-58910458D01*
X37600000Y-58910458D01*
X37699585Y-58900650D01*
X37795344Y-58871602D01*
X37883595Y-58824430D01*
X37909447Y-58803214D01*
X37948815Y-58851185D01*
X37948815Y-58851185D01*
G37*
X37948815Y-58851185D02*
X38045506Y-58930537D01*
X38155820Y-58989502D01*
X38275518Y-59025812D01*
X38400000Y-59038072D01*
X38515000Y-59035921D01*
X38515000Y-59072391D01*
X38543246Y-59214391D01*
X38598508Y-59347806D01*
X38542374Y-59366249D01*
X38500000Y-59390163D01*
X38457626Y-59366249D01*
X38338791Y-59327206D01*
X38231750Y-59315000D01*
X38073000Y-59473750D01*
X38073000Y-60198000D01*
X38927000Y-60198000D01*
X38927000Y-60178000D01*
X39073000Y-60178000D01*
X39073000Y-60198000D01*
X39147000Y-60198000D01*
X39147000Y-60452000D01*
X39073000Y-60452000D01*
X39073000Y-61176250D01*
X39231750Y-61335000D01*
X39233443Y-61334807D01*
X39250932Y-61422729D01*
X39278796Y-61490000D01*
X35510000Y-61490000D01*
X35510000Y-60685377D01*
X36162096Y-60685377D01*
X36171500Y-60810107D01*
X36205057Y-60930605D01*
X36261478Y-61042242D01*
X36338593Y-61140726D01*
X36433440Y-61222274D01*
X36542374Y-61283751D01*
X36661209Y-61322794D01*
X36768250Y-61335000D01*
X36927000Y-61176250D01*
X36927000Y-60452000D01*
X37073000Y-60452000D01*
X37073000Y-61176250D01*
X37231750Y-61335000D01*
X37338791Y-61322794D01*
X37457626Y-61283751D01*
X37500000Y-61259837D01*
X37542374Y-61283751D01*
X37661209Y-61322794D01*
X37768250Y-61335000D01*
X37927000Y-61176250D01*
X37927000Y-60452000D01*
X38073000Y-60452000D01*
X38073000Y-61176250D01*
X38231750Y-61335000D01*
X38338791Y-61322794D01*
X38457626Y-61283751D01*
X38500000Y-61259837D01*
X38542374Y-61283751D01*
X38661209Y-61322794D01*
X38768250Y-61335000D01*
X38927000Y-61176250D01*
X38927000Y-60452000D01*
X38073000Y-60452000D01*
X37927000Y-60452000D01*
X37073000Y-60452000D01*
X36927000Y-60452000D01*
X36323750Y-60452000D01*
X36165000Y-60610750D01*
X36162096Y-60685377D01*
X35510000Y-60685377D01*
X35510000Y-60133164D01*
X35550000Y-60137104D01*
X36262854Y-60137104D01*
X36323750Y-60198000D01*
X36927000Y-60198000D01*
X36927000Y-59473750D01*
X37073000Y-59473750D01*
X37073000Y-60198000D01*
X37927000Y-60198000D01*
X37927000Y-59473750D01*
X37768250Y-59315000D01*
X37661209Y-59327206D01*
X37542374Y-59366249D01*
X37500000Y-59390163D01*
X37457626Y-59366249D01*
X37338791Y-59327206D01*
X37231750Y-59315000D01*
X37073000Y-59473750D01*
X36927000Y-59473750D01*
X36768250Y-59315000D01*
X36737104Y-59318552D01*
X36737104Y-59300000D01*
X36728705Y-59214725D01*
X36703831Y-59132728D01*
X36663439Y-59057158D01*
X36616530Y-59000000D01*
X36663439Y-58942842D01*
X36703831Y-58867272D01*
X36716768Y-58824624D01*
X36804656Y-58871602D01*
X36900415Y-58900650D01*
X37000000Y-58910458D01*
X37600000Y-58910458D01*
X37699585Y-58900650D01*
X37795344Y-58871602D01*
X37883595Y-58824430D01*
X37909447Y-58803214D01*
X37948815Y-58851185D01*
G36*
X43904078Y-49370920D02*
G01*
X43923726Y-49387045D01*
X44007954Y-49471273D01*
X44024079Y-49490921D01*
X44102497Y-49555278D01*
X44141226Y-49575979D01*
X44146169Y-49592272D01*
X44186561Y-49667842D01*
X44240921Y-49734079D01*
X44260321Y-49750000D01*
X44240921Y-49765921D01*
X44186561Y-49832158D01*
X44146169Y-49907728D01*
X44121295Y-49989725D01*
X44112896Y-50075000D01*
X44112896Y-50675000D01*
X44121295Y-50760275D01*
X44146169Y-50842272D01*
X44186561Y-50917842D01*
X44240921Y-50984079D01*
X44307158Y-51038439D01*
X44382728Y-51078831D01*
X44464725Y-51103705D01*
X44550000Y-51112104D01*
X45358784Y-51112104D01*
X45692959Y-51446279D01*
X45709079Y-51465921D01*
X45728721Y-51482041D01*
X45728724Y-51482044D01*
X45787496Y-51530278D01*
X45876964Y-51578099D01*
X45899282Y-51584869D01*
X45974043Y-51607548D01*
X46049707Y-51615000D01*
X46049717Y-51615000D01*
X46075000Y-51617490D01*
X46100282Y-51615000D01*
X46275553Y-51615000D01*
X46331465Y-51670912D01*
X46451847Y-51751348D01*
X46585609Y-51806754D01*
X46727609Y-51835000D01*
X46872391Y-51835000D01*
X46913581Y-51826807D01*
X46862359Y-51923877D01*
X46703099Y-52459133D01*
X46651322Y-53015174D01*
X46709019Y-53570632D01*
X46873972Y-54104161D01*
X47122982Y-54570024D01*
X47510225Y-54810170D01*
X49320395Y-53000000D01*
X49306253Y-52985858D01*
X49485858Y-52806253D01*
X49500000Y-52820395D01*
X49514143Y-52806253D01*
X49693748Y-52985858D01*
X49679605Y-53000000D01*
X49693748Y-53014143D01*
X49514143Y-53193748D01*
X49500000Y-53179605D01*
X47689830Y-54989775D01*
X47775367Y-55127706D01*
X47767916Y-55130013D01*
X47725269Y-55147940D01*
X47682446Y-55165242D01*
X47676167Y-55168580D01*
X47676158Y-55168584D01*
X47676151Y-55168589D01*
X47418642Y-55307824D01*
X47380326Y-55333669D01*
X47341644Y-55358981D01*
X47336125Y-55363482D01*
X47110558Y-55550087D01*
X47077969Y-55582904D01*
X47044962Y-55615227D01*
X47040428Y-55620708D01*
X47040422Y-55620714D01*
X47040418Y-55620721D01*
X46862416Y-55838972D01*
X46878705Y-55785275D01*
X46887104Y-55700000D01*
X46887104Y-55300000D01*
X46878705Y-55214725D01*
X46853831Y-55132728D01*
X46813439Y-55057158D01*
X46759079Y-54990921D01*
X46692842Y-54936561D01*
X46617272Y-54896169D01*
X46535275Y-54871295D01*
X46450000Y-54862896D01*
X45737146Y-54862896D01*
X45676250Y-54802000D01*
X45073000Y-54802000D01*
X45073000Y-55526250D01*
X45231750Y-55685000D01*
X45262896Y-55681448D01*
X45262896Y-55700000D01*
X45271295Y-55785275D01*
X45296169Y-55867272D01*
X45336561Y-55942842D01*
X45383470Y-56000000D01*
X45336561Y-56057158D01*
X45296169Y-56132728D01*
X45283232Y-56175376D01*
X45195344Y-56128398D01*
X45099585Y-56099350D01*
X45000000Y-56089542D01*
X44400000Y-56089542D01*
X44300415Y-56099350D01*
X44204656Y-56128398D01*
X44116405Y-56175570D01*
X44090553Y-56196786D01*
X44051185Y-56148815D01*
X43954494Y-56069463D01*
X43844180Y-56010498D01*
X43724482Y-55974188D01*
X43600000Y-55961928D01*
X43435750Y-55965000D01*
X43277000Y-56123750D01*
X43277000Y-57373000D01*
X43297000Y-57373000D01*
X43297000Y-57627000D01*
X43277000Y-57627000D01*
X43277000Y-58876250D01*
X43435750Y-59035000D01*
X43600000Y-59038072D01*
X43724482Y-59025812D01*
X43844180Y-58989502D01*
X43954494Y-58930537D01*
X44051185Y-58851185D01*
X44090553Y-58803214D01*
X44116405Y-58824430D01*
X44204656Y-58871602D01*
X44300415Y-58900650D01*
X44400000Y-58910458D01*
X45300000Y-58910458D01*
X45318289Y-58908657D01*
X45336561Y-58942842D01*
X45383470Y-59000000D01*
X45336561Y-59057158D01*
X45296169Y-59132728D01*
X45271295Y-59214725D01*
X45262896Y-59300000D01*
X45262896Y-59318552D01*
X45231750Y-59315000D01*
X45073000Y-59473750D01*
X45073000Y-60198000D01*
X45147000Y-60198000D01*
X45147000Y-60452000D01*
X45073000Y-60452000D01*
X45073000Y-61176250D01*
X45231750Y-61335000D01*
X45233443Y-61334807D01*
X45250932Y-61422729D01*
X45278796Y-61490000D01*
X42721204Y-61490000D01*
X42749068Y-61422729D01*
X42785000Y-61242089D01*
X42785000Y-61235000D01*
X42822391Y-61235000D01*
X42964391Y-61206754D01*
X43098153Y-61151348D01*
X43119471Y-61137104D01*
X43200000Y-61137104D01*
X43285275Y-61128705D01*
X43320753Y-61117943D01*
X43338593Y-61140726D01*
X43433440Y-61222274D01*
X43542374Y-61283751D01*
X43661209Y-61322794D01*
X43768250Y-61335000D01*
X43927000Y-61176250D01*
X43927000Y-60452000D01*
X44073000Y-60452000D01*
X44073000Y-61176250D01*
X44231750Y-61335000D01*
X44338791Y-61322794D01*
X44457626Y-61283751D01*
X44500000Y-61259837D01*
X44542374Y-61283751D01*
X44661209Y-61322794D01*
X44768250Y-61335000D01*
X44927000Y-61176250D01*
X44927000Y-60452000D01*
X44073000Y-60452000D01*
X43927000Y-60452000D01*
X43853000Y-60452000D01*
X43853000Y-60198000D01*
X43927000Y-60198000D01*
X43927000Y-59473750D01*
X44073000Y-59473750D01*
X44073000Y-60198000D01*
X44927000Y-60198000D01*
X44927000Y-59473750D01*
X44768250Y-59315000D01*
X44661209Y-59327206D01*
X44542374Y-59366249D01*
X44500000Y-59390163D01*
X44457626Y-59366249D01*
X44338791Y-59327206D01*
X44231750Y-59315000D01*
X44073000Y-59473750D01*
X43927000Y-59473750D01*
X43768250Y-59315000D01*
X43661209Y-59327206D01*
X43542374Y-59366249D01*
X43433440Y-59427726D01*
X43338593Y-59509274D01*
X43320753Y-59532057D01*
X43285275Y-59521295D01*
X43200000Y-59512896D01*
X42800000Y-59512896D01*
X42737104Y-59519091D01*
X42737104Y-59300000D01*
X42728705Y-59214725D01*
X42703831Y-59132728D01*
X42663439Y-59057158D01*
X42643183Y-59032476D01*
X42700000Y-59038072D01*
X42864250Y-59035000D01*
X43023000Y-58876250D01*
X43023000Y-57627000D01*
X42830250Y-57627000D01*
X42776250Y-57573000D01*
X42052000Y-57573000D01*
X42052000Y-57647000D01*
X41798000Y-57647000D01*
X41798000Y-57573000D01*
X41778000Y-57573000D01*
X41778000Y-57427000D01*
X41798000Y-57427000D01*
X41798000Y-57353000D01*
X42052000Y-57353000D01*
X42052000Y-57427000D01*
X42776250Y-57427000D01*
X42830250Y-57373000D01*
X43023000Y-57373000D01*
X43023000Y-56123750D01*
X42864250Y-55965000D01*
X42700000Y-55961928D01*
X42643183Y-55967524D01*
X42663439Y-55942842D01*
X42703831Y-55867272D01*
X42728705Y-55785275D01*
X42737104Y-55700000D01*
X42737104Y-55681448D01*
X42768250Y-55685000D01*
X42927000Y-55526250D01*
X42927000Y-54802000D01*
X43073000Y-54802000D01*
X43073000Y-55526250D01*
X43231750Y-55685000D01*
X43338791Y-55672794D01*
X43457626Y-55633751D01*
X43500000Y-55609837D01*
X43542374Y-55633751D01*
X43661209Y-55672794D01*
X43768250Y-55685000D01*
X43927000Y-55526250D01*
X43927000Y-54802000D01*
X44073000Y-54802000D01*
X44073000Y-55526250D01*
X44231750Y-55685000D01*
X44338791Y-55672794D01*
X44457626Y-55633751D01*
X44500000Y-55609837D01*
X44542374Y-55633751D01*
X44661209Y-55672794D01*
X44768250Y-55685000D01*
X44927000Y-55526250D01*
X44927000Y-54802000D01*
X44073000Y-54802000D01*
X43927000Y-54802000D01*
X43073000Y-54802000D01*
X42927000Y-54802000D01*
X42853000Y-54802000D01*
X42853000Y-54548000D01*
X42927000Y-54548000D01*
X42927000Y-53823750D01*
X43073000Y-53823750D01*
X43073000Y-54548000D01*
X43927000Y-54548000D01*
X43927000Y-53823750D01*
X44073000Y-53823750D01*
X44073000Y-54548000D01*
X44927000Y-54548000D01*
X44927000Y-53823750D01*
X45073000Y-53823750D01*
X45073000Y-54548000D01*
X45676250Y-54548000D01*
X45835000Y-54389250D01*
X45837904Y-54314623D01*
X45828500Y-54189893D01*
X45794943Y-54069395D01*
X45738522Y-53957758D01*
X45661407Y-53859274D01*
X45566560Y-53777726D01*
X45457626Y-53716249D01*
X45338791Y-53677206D01*
X45231750Y-53665000D01*
X45073000Y-53823750D01*
X44927000Y-53823750D01*
X44768250Y-53665000D01*
X44661209Y-53677206D01*
X44542374Y-53716249D01*
X44500000Y-53740163D01*
X44457626Y-53716249D01*
X44338791Y-53677206D01*
X44231750Y-53665000D01*
X44073000Y-53823750D01*
X43927000Y-53823750D01*
X43768250Y-53665000D01*
X43661209Y-53677206D01*
X43542374Y-53716249D01*
X43500000Y-53740163D01*
X43457626Y-53716249D01*
X43338791Y-53677206D01*
X43231750Y-53665000D01*
X43073000Y-53823750D01*
X42927000Y-53823750D01*
X42768250Y-53665000D01*
X42766557Y-53665193D01*
X42749068Y-53577271D01*
X42678586Y-53407111D01*
X42576262Y-53253972D01*
X42446028Y-53123738D01*
X42292889Y-53021414D01*
X42122729Y-52950932D01*
X41942089Y-52915000D01*
X41757911Y-52915000D01*
X41584999Y-52949395D01*
X41584999Y-51031162D01*
X41603099Y-50997299D01*
X41629640Y-50909807D01*
X41649447Y-50890000D01*
X41971680Y-50890000D01*
X41986561Y-50917842D01*
X42040921Y-50984079D01*
X42107158Y-51038439D01*
X42182728Y-51078831D01*
X42264725Y-51103705D01*
X42350000Y-51112104D01*
X43450000Y-51112104D01*
X43535275Y-51103705D01*
X43617272Y-51078831D01*
X43692842Y-51038439D01*
X43759079Y-50984079D01*
X43813439Y-50917842D01*
X43853831Y-50842272D01*
X43878705Y-50760275D01*
X43887104Y-50675000D01*
X43887104Y-50075000D01*
X43878705Y-49989725D01*
X43853831Y-49907728D01*
X43813439Y-49832158D01*
X43759079Y-49765921D01*
X43739679Y-49750000D01*
X43759079Y-49734079D01*
X43813439Y-49667842D01*
X43853831Y-49592272D01*
X43878705Y-49510275D01*
X43887104Y-49425000D01*
X43887104Y-49350237D01*
X43904078Y-49370920D01*
X43904078Y-49370920D01*
G37*
X43904078Y-49370920D02*
X43923726Y-49387045D01*
X44007954Y-49471273D01*
X44024079Y-49490921D01*
X44102497Y-49555278D01*
X44141226Y-49575979D01*
X44146169Y-49592272D01*
X44186561Y-49667842D01*
X44240921Y-49734079D01*
X44260321Y-49750000D01*
X44240921Y-49765921D01*
X44186561Y-49832158D01*
X44146169Y-49907728D01*
X44121295Y-49989725D01*
X44112896Y-50075000D01*
X44112896Y-50675000D01*
X44121295Y-50760275D01*
X44146169Y-50842272D01*
X44186561Y-50917842D01*
X44240921Y-50984079D01*
X44307158Y-51038439D01*
X44382728Y-51078831D01*
X44464725Y-51103705D01*
X44550000Y-51112104D01*
X45358784Y-51112104D01*
X45692959Y-51446279D01*
X45709079Y-51465921D01*
X45728721Y-51482041D01*
X45728724Y-51482044D01*
X45787496Y-51530278D01*
X45876964Y-51578099D01*
X45899282Y-51584869D01*
X45974043Y-51607548D01*
X46049707Y-51615000D01*
X46049717Y-51615000D01*
X46075000Y-51617490D01*
X46100282Y-51615000D01*
X46275553Y-51615000D01*
X46331465Y-51670912D01*
X46451847Y-51751348D01*
X46585609Y-51806754D01*
X46727609Y-51835000D01*
X46872391Y-51835000D01*
X46913581Y-51826807D01*
X46862359Y-51923877D01*
X46703099Y-52459133D01*
X46651322Y-53015174D01*
X46709019Y-53570632D01*
X46873972Y-54104161D01*
X47122982Y-54570024D01*
X47510225Y-54810170D01*
X49320395Y-53000000D01*
X49306253Y-52985858D01*
X49485858Y-52806253D01*
X49500000Y-52820395D01*
X49514143Y-52806253D01*
X49693748Y-52985858D01*
X49679605Y-53000000D01*
X49693748Y-53014143D01*
X49514143Y-53193748D01*
X49500000Y-53179605D01*
X47689830Y-54989775D01*
X47775367Y-55127706D01*
X47767916Y-55130013D01*
X47725269Y-55147940D01*
X47682446Y-55165242D01*
X47676167Y-55168580D01*
X47676158Y-55168584D01*
X47676151Y-55168589D01*
X47418642Y-55307824D01*
X47380326Y-55333669D01*
X47341644Y-55358981D01*
X47336125Y-55363482D01*
X47110558Y-55550087D01*
X47077969Y-55582904D01*
X47044962Y-55615227D01*
X47040428Y-55620708D01*
X47040422Y-55620714D01*
X47040418Y-55620721D01*
X46862416Y-55838972D01*
X46878705Y-55785275D01*
X46887104Y-55700000D01*
X46887104Y-55300000D01*
X46878705Y-55214725D01*
X46853831Y-55132728D01*
X46813439Y-55057158D01*
X46759079Y-54990921D01*
X46692842Y-54936561D01*
X46617272Y-54896169D01*
X46535275Y-54871295D01*
X46450000Y-54862896D01*
X45737146Y-54862896D01*
X45676250Y-54802000D01*
X45073000Y-54802000D01*
X45073000Y-55526250D01*
X45231750Y-55685000D01*
X45262896Y-55681448D01*
X45262896Y-55700000D01*
X45271295Y-55785275D01*
X45296169Y-55867272D01*
X45336561Y-55942842D01*
X45383470Y-56000000D01*
X45336561Y-56057158D01*
X45296169Y-56132728D01*
X45283232Y-56175376D01*
X45195344Y-56128398D01*
X45099585Y-56099350D01*
X45000000Y-56089542D01*
X44400000Y-56089542D01*
X44300415Y-56099350D01*
X44204656Y-56128398D01*
X44116405Y-56175570D01*
X44090553Y-56196786D01*
X44051185Y-56148815D01*
X43954494Y-56069463D01*
X43844180Y-56010498D01*
X43724482Y-55974188D01*
X43600000Y-55961928D01*
X43435750Y-55965000D01*
X43277000Y-56123750D01*
X43277000Y-57373000D01*
X43297000Y-57373000D01*
X43297000Y-57627000D01*
X43277000Y-57627000D01*
X43277000Y-58876250D01*
X43435750Y-59035000D01*
X43600000Y-59038072D01*
X43724482Y-59025812D01*
X43844180Y-58989502D01*
X43954494Y-58930537D01*
X44051185Y-58851185D01*
X44090553Y-58803214D01*
X44116405Y-58824430D01*
X44204656Y-58871602D01*
X44300415Y-58900650D01*
X44400000Y-58910458D01*
X45300000Y-58910458D01*
X45318289Y-58908657D01*
X45336561Y-58942842D01*
X45383470Y-59000000D01*
X45336561Y-59057158D01*
X45296169Y-59132728D01*
X45271295Y-59214725D01*
X45262896Y-59300000D01*
X45262896Y-59318552D01*
X45231750Y-59315000D01*
X45073000Y-59473750D01*
X45073000Y-60198000D01*
X45147000Y-60198000D01*
X45147000Y-60452000D01*
X45073000Y-60452000D01*
X45073000Y-61176250D01*
X45231750Y-61335000D01*
X45233443Y-61334807D01*
X45250932Y-61422729D01*
X45278796Y-61490000D01*
X42721204Y-61490000D01*
X42749068Y-61422729D01*
X42785000Y-61242089D01*
X42785000Y-61235000D01*
X42822391Y-61235000D01*
X42964391Y-61206754D01*
X43098153Y-61151348D01*
X43119471Y-61137104D01*
X43200000Y-61137104D01*
X43285275Y-61128705D01*
X43320753Y-61117943D01*
X43338593Y-61140726D01*
X43433440Y-61222274D01*
X43542374Y-61283751D01*
X43661209Y-61322794D01*
X43768250Y-61335000D01*
X43927000Y-61176250D01*
X43927000Y-60452000D01*
X44073000Y-60452000D01*
X44073000Y-61176250D01*
X44231750Y-61335000D01*
X44338791Y-61322794D01*
X44457626Y-61283751D01*
X44500000Y-61259837D01*
X44542374Y-61283751D01*
X44661209Y-61322794D01*
X44768250Y-61335000D01*
X44927000Y-61176250D01*
X44927000Y-60452000D01*
X44073000Y-60452000D01*
X43927000Y-60452000D01*
X43853000Y-60452000D01*
X43853000Y-60198000D01*
X43927000Y-60198000D01*
X43927000Y-59473750D01*
X44073000Y-59473750D01*
X44073000Y-60198000D01*
X44927000Y-60198000D01*
X44927000Y-59473750D01*
X44768250Y-59315000D01*
X44661209Y-59327206D01*
X44542374Y-59366249D01*
X44500000Y-59390163D01*
X44457626Y-59366249D01*
X44338791Y-59327206D01*
X44231750Y-59315000D01*
X44073000Y-59473750D01*
X43927000Y-59473750D01*
X43768250Y-59315000D01*
X43661209Y-59327206D01*
X43542374Y-59366249D01*
X43433440Y-59427726D01*
X43338593Y-59509274D01*
X43320753Y-59532057D01*
X43285275Y-59521295D01*
X43200000Y-59512896D01*
X42800000Y-59512896D01*
X42737104Y-59519091D01*
X42737104Y-59300000D01*
X42728705Y-59214725D01*
X42703831Y-59132728D01*
X42663439Y-59057158D01*
X42643183Y-59032476D01*
X42700000Y-59038072D01*
X42864250Y-59035000D01*
X43023000Y-58876250D01*
X43023000Y-57627000D01*
X42830250Y-57627000D01*
X42776250Y-57573000D01*
X42052000Y-57573000D01*
X42052000Y-57647000D01*
X41798000Y-57647000D01*
X41798000Y-57573000D01*
X41778000Y-57573000D01*
X41778000Y-57427000D01*
X41798000Y-57427000D01*
X41798000Y-57353000D01*
X42052000Y-57353000D01*
X42052000Y-57427000D01*
X42776250Y-57427000D01*
X42830250Y-57373000D01*
X43023000Y-57373000D01*
X43023000Y-56123750D01*
X42864250Y-55965000D01*
X42700000Y-55961928D01*
X42643183Y-55967524D01*
X42663439Y-55942842D01*
X42703831Y-55867272D01*
X42728705Y-55785275D01*
X42737104Y-55700000D01*
X42737104Y-55681448D01*
X42768250Y-55685000D01*
X42927000Y-55526250D01*
X42927000Y-54802000D01*
X43073000Y-54802000D01*
X43073000Y-55526250D01*
X43231750Y-55685000D01*
X43338791Y-55672794D01*
X43457626Y-55633751D01*
X43500000Y-55609837D01*
X43542374Y-55633751D01*
X43661209Y-55672794D01*
X43768250Y-55685000D01*
X43927000Y-55526250D01*
X43927000Y-54802000D01*
X44073000Y-54802000D01*
X44073000Y-55526250D01*
X44231750Y-55685000D01*
X44338791Y-55672794D01*
X44457626Y-55633751D01*
X44500000Y-55609837D01*
X44542374Y-55633751D01*
X44661209Y-55672794D01*
X44768250Y-55685000D01*
X44927000Y-55526250D01*
X44927000Y-54802000D01*
X44073000Y-54802000D01*
X43927000Y-54802000D01*
X43073000Y-54802000D01*
X42927000Y-54802000D01*
X42853000Y-54802000D01*
X42853000Y-54548000D01*
X42927000Y-54548000D01*
X42927000Y-53823750D01*
X43073000Y-53823750D01*
X43073000Y-54548000D01*
X43927000Y-54548000D01*
X43927000Y-53823750D01*
X44073000Y-53823750D01*
X44073000Y-54548000D01*
X44927000Y-54548000D01*
X44927000Y-53823750D01*
X45073000Y-53823750D01*
X45073000Y-54548000D01*
X45676250Y-54548000D01*
X45835000Y-54389250D01*
X45837904Y-54314623D01*
X45828500Y-54189893D01*
X45794943Y-54069395D01*
X45738522Y-53957758D01*
X45661407Y-53859274D01*
X45566560Y-53777726D01*
X45457626Y-53716249D01*
X45338791Y-53677206D01*
X45231750Y-53665000D01*
X45073000Y-53823750D01*
X44927000Y-53823750D01*
X44768250Y-53665000D01*
X44661209Y-53677206D01*
X44542374Y-53716249D01*
X44500000Y-53740163D01*
X44457626Y-53716249D01*
X44338791Y-53677206D01*
X44231750Y-53665000D01*
X44073000Y-53823750D01*
X43927000Y-53823750D01*
X43768250Y-53665000D01*
X43661209Y-53677206D01*
X43542374Y-53716249D01*
X43500000Y-53740163D01*
X43457626Y-53716249D01*
X43338791Y-53677206D01*
X43231750Y-53665000D01*
X43073000Y-53823750D01*
X42927000Y-53823750D01*
X42768250Y-53665000D01*
X42766557Y-53665193D01*
X42749068Y-53577271D01*
X42678586Y-53407111D01*
X42576262Y-53253972D01*
X42446028Y-53123738D01*
X42292889Y-53021414D01*
X42122729Y-52950932D01*
X41942089Y-52915000D01*
X41757911Y-52915000D01*
X41584999Y-52949395D01*
X41584999Y-51031162D01*
X41603099Y-50997299D01*
X41629640Y-50909807D01*
X41649447Y-50890000D01*
X41971680Y-50890000D01*
X41986561Y-50917842D01*
X42040921Y-50984079D01*
X42107158Y-51038439D01*
X42182728Y-51078831D01*
X42264725Y-51103705D01*
X42350000Y-51112104D01*
X43450000Y-51112104D01*
X43535275Y-51103705D01*
X43617272Y-51078831D01*
X43692842Y-51038439D01*
X43759079Y-50984079D01*
X43813439Y-50917842D01*
X43853831Y-50842272D01*
X43878705Y-50760275D01*
X43887104Y-50675000D01*
X43887104Y-50075000D01*
X43878705Y-49989725D01*
X43853831Y-49907728D01*
X43813439Y-49832158D01*
X43759079Y-49765921D01*
X43739679Y-49750000D01*
X43759079Y-49734079D01*
X43813439Y-49667842D01*
X43853831Y-49592272D01*
X43878705Y-49510275D01*
X43887104Y-49425000D01*
X43887104Y-49350237D01*
X43904078Y-49370920D01*
G36*
X38977000Y-57373000D02*
G01*
X39169750Y-57373000D01*
X39223750Y-57427000D01*
X39948000Y-57427000D01*
X39948000Y-57353000D01*
X40202000Y-57353000D01*
X40202000Y-57427000D01*
X40221670Y-57427000D01*
X40212511Y-57519999D01*
X40215002Y-57545291D01*
X40215002Y-57573000D01*
X40202000Y-57573000D01*
X40202000Y-57647000D01*
X39948000Y-57647000D01*
X39948000Y-57573000D01*
X39223750Y-57573000D01*
X39169750Y-57627000D01*
X38977000Y-57627000D01*
X38977000Y-57647000D01*
X38723000Y-57647000D01*
X38723000Y-57627000D01*
X38703000Y-57627000D01*
X38703000Y-57373000D01*
X38723000Y-57373000D01*
X38723000Y-57353000D01*
X38977000Y-57353000D01*
X38977000Y-57373000D01*
X38977000Y-57373000D01*
G37*
X38977000Y-57373000D02*
X39169750Y-57373000D01*
X39223750Y-57427000D01*
X39948000Y-57427000D01*
X39948000Y-57353000D01*
X40202000Y-57353000D01*
X40202000Y-57427000D01*
X40221670Y-57427000D01*
X40212511Y-57519999D01*
X40215002Y-57545291D01*
X40215002Y-57573000D01*
X40202000Y-57573000D01*
X40202000Y-57647000D01*
X39948000Y-57647000D01*
X39948000Y-57573000D01*
X39223750Y-57573000D01*
X39169750Y-57627000D01*
X38977000Y-57627000D01*
X38977000Y-57647000D01*
X38723000Y-57647000D01*
X38723000Y-57627000D01*
X38703000Y-57627000D01*
X38703000Y-57373000D01*
X38723000Y-57373000D01*
X38723000Y-57353000D01*
X38977000Y-57353000D01*
X38977000Y-57373000D01*
G36*
X38977000Y-48373000D02*
G01*
X39169750Y-48373000D01*
X39223750Y-48427000D01*
X39948000Y-48427000D01*
X39948000Y-48353000D01*
X40202000Y-48353000D01*
X40202000Y-48427000D01*
X40222000Y-48427000D01*
X40222000Y-48573000D01*
X40202000Y-48573000D01*
X40202000Y-48647000D01*
X39948000Y-48647000D01*
X39948000Y-48573000D01*
X39223750Y-48573000D01*
X39169750Y-48627000D01*
X38977000Y-48627000D01*
X38977000Y-49876250D01*
X39135750Y-50035000D01*
X39300000Y-50038072D01*
X39356817Y-50032476D01*
X39336561Y-50057158D01*
X39296169Y-50132728D01*
X39271295Y-50214725D01*
X39262896Y-50300000D01*
X39262896Y-50318552D01*
X39231750Y-50315000D01*
X39073000Y-50473750D01*
X39073000Y-51198000D01*
X39147000Y-51198000D01*
X39147000Y-51452000D01*
X39073000Y-51452000D01*
X39073000Y-52176250D01*
X39231750Y-52335000D01*
X39233443Y-52334807D01*
X39250932Y-52422729D01*
X39321414Y-52592889D01*
X39423738Y-52746028D01*
X39553972Y-52876262D01*
X39707111Y-52978586D01*
X39758809Y-53000000D01*
X39707111Y-53021414D01*
X39553972Y-53123738D01*
X39423738Y-53253972D01*
X39321414Y-53407111D01*
X39250932Y-53577271D01*
X39215000Y-53757911D01*
X39215000Y-53864373D01*
X39200000Y-53862896D01*
X39031204Y-53862896D01*
X38574988Y-53406681D01*
X38574988Y-53327609D01*
X38546742Y-53185609D01*
X38491336Y-53051847D01*
X38410900Y-52931465D01*
X38308523Y-52829088D01*
X38188141Y-52748652D01*
X38054379Y-52693246D01*
X37912379Y-52665000D01*
X37767597Y-52665000D01*
X37625597Y-52693246D01*
X37491835Y-52748652D01*
X37371453Y-52829088D01*
X37269076Y-52931465D01*
X37188640Y-53051847D01*
X37133234Y-53185609D01*
X37104988Y-53327609D01*
X37104988Y-53472391D01*
X37133234Y-53614391D01*
X37176912Y-53719838D01*
X37073000Y-53823750D01*
X37073000Y-54548000D01*
X37927000Y-54548000D01*
X37927000Y-54528000D01*
X38073000Y-54528000D01*
X38073000Y-54548000D01*
X38147000Y-54548000D01*
X38147000Y-54802000D01*
X38073000Y-54802000D01*
X38073000Y-55526250D01*
X38231750Y-55685000D01*
X38276429Y-55679905D01*
X38293246Y-55764451D01*
X38348652Y-55898213D01*
X38391766Y-55962739D01*
X38275518Y-55974188D01*
X38155820Y-56010498D01*
X38045506Y-56069463D01*
X37948815Y-56148815D01*
X37909447Y-56196786D01*
X37883595Y-56175570D01*
X37795344Y-56128398D01*
X37699585Y-56099350D01*
X37600000Y-56089542D01*
X36700000Y-56089542D01*
X36681711Y-56091343D01*
X36663439Y-56057158D01*
X36616530Y-56000000D01*
X36663439Y-55942842D01*
X36703831Y-55867272D01*
X36728705Y-55785275D01*
X36737104Y-55700000D01*
X36737104Y-55681448D01*
X36768250Y-55685000D01*
X36927000Y-55526250D01*
X36927000Y-54802000D01*
X37073000Y-54802000D01*
X37073000Y-55526250D01*
X37231750Y-55685000D01*
X37338791Y-55672794D01*
X37457626Y-55633751D01*
X37500000Y-55609837D01*
X37542374Y-55633751D01*
X37661209Y-55672794D01*
X37768250Y-55685000D01*
X37927000Y-55526250D01*
X37927000Y-54802000D01*
X37073000Y-54802000D01*
X36927000Y-54802000D01*
X36853000Y-54802000D01*
X36853000Y-54548000D01*
X36927000Y-54548000D01*
X36927000Y-53823750D01*
X36768250Y-53665000D01*
X36766557Y-53665193D01*
X36749068Y-53577271D01*
X36678586Y-53407111D01*
X36576262Y-53253972D01*
X36446028Y-53123738D01*
X36292889Y-53021414D01*
X36122729Y-52950932D01*
X35942089Y-52915000D01*
X35757911Y-52915000D01*
X35577271Y-52950932D01*
X35407111Y-53021414D01*
X35341168Y-53065476D01*
X35348678Y-52984826D01*
X35290981Y-52429368D01*
X35126028Y-51895839D01*
X35013534Y-51685377D01*
X36162096Y-51685377D01*
X36171500Y-51810107D01*
X36205057Y-51930605D01*
X36261478Y-52042242D01*
X36338593Y-52140726D01*
X36433440Y-52222274D01*
X36542374Y-52283751D01*
X36661209Y-52322794D01*
X36768250Y-52335000D01*
X36927000Y-52176250D01*
X36927000Y-51452000D01*
X37073000Y-51452000D01*
X37073000Y-52176250D01*
X37231750Y-52335000D01*
X37338791Y-52322794D01*
X37457626Y-52283751D01*
X37500000Y-52259837D01*
X37542374Y-52283751D01*
X37661209Y-52322794D01*
X37768250Y-52335000D01*
X37927000Y-52176250D01*
X37927000Y-51452000D01*
X38073000Y-51452000D01*
X38073000Y-52176250D01*
X38231750Y-52335000D01*
X38338791Y-52322794D01*
X38457626Y-52283751D01*
X38500000Y-52259837D01*
X38542374Y-52283751D01*
X38661209Y-52322794D01*
X38768250Y-52335000D01*
X38927000Y-52176250D01*
X38927000Y-51452000D01*
X38073000Y-51452000D01*
X37927000Y-51452000D01*
X37073000Y-51452000D01*
X36927000Y-51452000D01*
X36323750Y-51452000D01*
X36165000Y-51610750D01*
X36162096Y-51685377D01*
X35013534Y-51685377D01*
X34877018Y-51429976D01*
X34489775Y-51189830D01*
X32679605Y-53000000D01*
X34489775Y-54810170D01*
X34877018Y-54570024D01*
X35022444Y-54294430D01*
X35123738Y-54446028D01*
X35253972Y-54576262D01*
X35407111Y-54678586D01*
X35577271Y-54749068D01*
X35757911Y-54785000D01*
X35942089Y-54785000D01*
X36122729Y-54749068D01*
X36165000Y-54731559D01*
X36165000Y-54802002D01*
X36323748Y-54802002D01*
X36262854Y-54862896D01*
X35550000Y-54862896D01*
X35464725Y-54871295D01*
X35382728Y-54896169D01*
X35307158Y-54936561D01*
X35240921Y-54990921D01*
X35186561Y-55057158D01*
X35146169Y-55132728D01*
X35121295Y-55214725D01*
X35112896Y-55300000D01*
X35112896Y-55700000D01*
X35121295Y-55785275D01*
X35136840Y-55836520D01*
X35136518Y-55836125D01*
X34949913Y-55610558D01*
X34917096Y-55577969D01*
X34884773Y-55544962D01*
X34879292Y-55540428D01*
X34879286Y-55540422D01*
X34879279Y-55540418D01*
X34652422Y-55355397D01*
X34613943Y-55329831D01*
X34575782Y-55303702D01*
X34569518Y-55300315D01*
X34311037Y-55162878D01*
X34268311Y-55145267D01*
X34225816Y-55127054D01*
X34225163Y-55126852D01*
X34310170Y-54989775D01*
X32500000Y-53179605D01*
X32485858Y-53193748D01*
X32306253Y-53014143D01*
X32320395Y-53000000D01*
X32306253Y-52985858D01*
X32485858Y-52806253D01*
X32500000Y-52820395D01*
X34310170Y-51010225D01*
X34224633Y-50872294D01*
X34232084Y-50869987D01*
X34274731Y-50852060D01*
X34317554Y-50834758D01*
X34323833Y-50831420D01*
X34323842Y-50831416D01*
X34323849Y-50831411D01*
X34581358Y-50692176D01*
X34619674Y-50666331D01*
X34658356Y-50641019D01*
X34663875Y-50636518D01*
X34889442Y-50449913D01*
X34922047Y-50417079D01*
X34955038Y-50384773D01*
X34959572Y-50379292D01*
X34959578Y-50379286D01*
X34959582Y-50379279D01*
X35137584Y-50161030D01*
X35121295Y-50214725D01*
X35112896Y-50300000D01*
X35112896Y-50700000D01*
X35121295Y-50785275D01*
X35146169Y-50867272D01*
X35186561Y-50942842D01*
X35240921Y-51009079D01*
X35307158Y-51063439D01*
X35382728Y-51103831D01*
X35464725Y-51128705D01*
X35550000Y-51137104D01*
X36262854Y-51137104D01*
X36323750Y-51198000D01*
X36927000Y-51198000D01*
X36927000Y-50473750D01*
X37073000Y-50473750D01*
X37073000Y-51198000D01*
X37927000Y-51198000D01*
X37927000Y-50473750D01*
X38073000Y-50473750D01*
X38073000Y-51198000D01*
X38927000Y-51198000D01*
X38927000Y-50473750D01*
X38768250Y-50315000D01*
X38661209Y-50327206D01*
X38542374Y-50366249D01*
X38500000Y-50390163D01*
X38457626Y-50366249D01*
X38338791Y-50327206D01*
X38231750Y-50315000D01*
X38073000Y-50473750D01*
X37927000Y-50473750D01*
X37768250Y-50315000D01*
X37661209Y-50327206D01*
X37542374Y-50366249D01*
X37500000Y-50390163D01*
X37457626Y-50366249D01*
X37338791Y-50327206D01*
X37231750Y-50315000D01*
X37073000Y-50473750D01*
X36927000Y-50473750D01*
X36768250Y-50315000D01*
X36737104Y-50318552D01*
X36737104Y-50300000D01*
X36728705Y-50214725D01*
X36703831Y-50132728D01*
X36663439Y-50057158D01*
X36616530Y-50000000D01*
X36663439Y-49942842D01*
X36703831Y-49867272D01*
X36716768Y-49824624D01*
X36804656Y-49871602D01*
X36900415Y-49900650D01*
X37000000Y-49910458D01*
X37600000Y-49910458D01*
X37699585Y-49900650D01*
X37795344Y-49871602D01*
X37883595Y-49824430D01*
X37909447Y-49803214D01*
X37948815Y-49851185D01*
X38045506Y-49930537D01*
X38155820Y-49989502D01*
X38275518Y-50025812D01*
X38400000Y-50038072D01*
X38564250Y-50035000D01*
X38723000Y-49876250D01*
X38723000Y-48627000D01*
X38703000Y-48627000D01*
X38703000Y-48373000D01*
X38723000Y-48373000D01*
X38723000Y-48353000D01*
X38977000Y-48353000D01*
X38977000Y-48373000D01*
X38977000Y-48373000D01*
G37*
X38977000Y-48373000D02*
X39169750Y-48373000D01*
X39223750Y-48427000D01*
X39948000Y-48427000D01*
X39948000Y-48353000D01*
X40202000Y-48353000D01*
X40202000Y-48427000D01*
X40222000Y-48427000D01*
X40222000Y-48573000D01*
X40202000Y-48573000D01*
X40202000Y-48647000D01*
X39948000Y-48647000D01*
X39948000Y-48573000D01*
X39223750Y-48573000D01*
X39169750Y-48627000D01*
X38977000Y-48627000D01*
X38977000Y-49876250D01*
X39135750Y-50035000D01*
X39300000Y-50038072D01*
X39356817Y-50032476D01*
X39336561Y-50057158D01*
X39296169Y-50132728D01*
X39271295Y-50214725D01*
X39262896Y-50300000D01*
X39262896Y-50318552D01*
X39231750Y-50315000D01*
X39073000Y-50473750D01*
X39073000Y-51198000D01*
X39147000Y-51198000D01*
X39147000Y-51452000D01*
X39073000Y-51452000D01*
X39073000Y-52176250D01*
X39231750Y-52335000D01*
X39233443Y-52334807D01*
X39250932Y-52422729D01*
X39321414Y-52592889D01*
X39423738Y-52746028D01*
X39553972Y-52876262D01*
X39707111Y-52978586D01*
X39758809Y-53000000D01*
X39707111Y-53021414D01*
X39553972Y-53123738D01*
X39423738Y-53253972D01*
X39321414Y-53407111D01*
X39250932Y-53577271D01*
X39215000Y-53757911D01*
X39215000Y-53864373D01*
X39200000Y-53862896D01*
X39031204Y-53862896D01*
X38574988Y-53406681D01*
X38574988Y-53327609D01*
X38546742Y-53185609D01*
X38491336Y-53051847D01*
X38410900Y-52931465D01*
X38308523Y-52829088D01*
X38188141Y-52748652D01*
X38054379Y-52693246D01*
X37912379Y-52665000D01*
X37767597Y-52665000D01*
X37625597Y-52693246D01*
X37491835Y-52748652D01*
X37371453Y-52829088D01*
X37269076Y-52931465D01*
X37188640Y-53051847D01*
X37133234Y-53185609D01*
X37104988Y-53327609D01*
X37104988Y-53472391D01*
X37133234Y-53614391D01*
X37176912Y-53719838D01*
X37073000Y-53823750D01*
X37073000Y-54548000D01*
X37927000Y-54548000D01*
X37927000Y-54528000D01*
X38073000Y-54528000D01*
X38073000Y-54548000D01*
X38147000Y-54548000D01*
X38147000Y-54802000D01*
X38073000Y-54802000D01*
X38073000Y-55526250D01*
X38231750Y-55685000D01*
X38276429Y-55679905D01*
X38293246Y-55764451D01*
X38348652Y-55898213D01*
X38391766Y-55962739D01*
X38275518Y-55974188D01*
X38155820Y-56010498D01*
X38045506Y-56069463D01*
X37948815Y-56148815D01*
X37909447Y-56196786D01*
X37883595Y-56175570D01*
X37795344Y-56128398D01*
X37699585Y-56099350D01*
X37600000Y-56089542D01*
X36700000Y-56089542D01*
X36681711Y-56091343D01*
X36663439Y-56057158D01*
X36616530Y-56000000D01*
X36663439Y-55942842D01*
X36703831Y-55867272D01*
X36728705Y-55785275D01*
X36737104Y-55700000D01*
X36737104Y-55681448D01*
X36768250Y-55685000D01*
X36927000Y-55526250D01*
X36927000Y-54802000D01*
X37073000Y-54802000D01*
X37073000Y-55526250D01*
X37231750Y-55685000D01*
X37338791Y-55672794D01*
X37457626Y-55633751D01*
X37500000Y-55609837D01*
X37542374Y-55633751D01*
X37661209Y-55672794D01*
X37768250Y-55685000D01*
X37927000Y-55526250D01*
X37927000Y-54802000D01*
X37073000Y-54802000D01*
X36927000Y-54802000D01*
X36853000Y-54802000D01*
X36853000Y-54548000D01*
X36927000Y-54548000D01*
X36927000Y-53823750D01*
X36768250Y-53665000D01*
X36766557Y-53665193D01*
X36749068Y-53577271D01*
X36678586Y-53407111D01*
X36576262Y-53253972D01*
X36446028Y-53123738D01*
X36292889Y-53021414D01*
X36122729Y-52950932D01*
X35942089Y-52915000D01*
X35757911Y-52915000D01*
X35577271Y-52950932D01*
X35407111Y-53021414D01*
X35341168Y-53065476D01*
X35348678Y-52984826D01*
X35290981Y-52429368D01*
X35126028Y-51895839D01*
X35013534Y-51685377D01*
X36162096Y-51685377D01*
X36171500Y-51810107D01*
X36205057Y-51930605D01*
X36261478Y-52042242D01*
X36338593Y-52140726D01*
X36433440Y-52222274D01*
X36542374Y-52283751D01*
X36661209Y-52322794D01*
X36768250Y-52335000D01*
X36927000Y-52176250D01*
X36927000Y-51452000D01*
X37073000Y-51452000D01*
X37073000Y-52176250D01*
X37231750Y-52335000D01*
X37338791Y-52322794D01*
X37457626Y-52283751D01*
X37500000Y-52259837D01*
X37542374Y-52283751D01*
X37661209Y-52322794D01*
X37768250Y-52335000D01*
X37927000Y-52176250D01*
X37927000Y-51452000D01*
X38073000Y-51452000D01*
X38073000Y-52176250D01*
X38231750Y-52335000D01*
X38338791Y-52322794D01*
X38457626Y-52283751D01*
X38500000Y-52259837D01*
X38542374Y-52283751D01*
X38661209Y-52322794D01*
X38768250Y-52335000D01*
X38927000Y-52176250D01*
X38927000Y-51452000D01*
X38073000Y-51452000D01*
X37927000Y-51452000D01*
X37073000Y-51452000D01*
X36927000Y-51452000D01*
X36323750Y-51452000D01*
X36165000Y-51610750D01*
X36162096Y-51685377D01*
X35013534Y-51685377D01*
X34877018Y-51429976D01*
X34489775Y-51189830D01*
X32679605Y-53000000D01*
X34489775Y-54810170D01*
X34877018Y-54570024D01*
X35022444Y-54294430D01*
X35123738Y-54446028D01*
X35253972Y-54576262D01*
X35407111Y-54678586D01*
X35577271Y-54749068D01*
X35757911Y-54785000D01*
X35942089Y-54785000D01*
X36122729Y-54749068D01*
X36165000Y-54731559D01*
X36165000Y-54802002D01*
X36323748Y-54802002D01*
X36262854Y-54862896D01*
X35550000Y-54862896D01*
X35464725Y-54871295D01*
X35382728Y-54896169D01*
X35307158Y-54936561D01*
X35240921Y-54990921D01*
X35186561Y-55057158D01*
X35146169Y-55132728D01*
X35121295Y-55214725D01*
X35112896Y-55300000D01*
X35112896Y-55700000D01*
X35121295Y-55785275D01*
X35136840Y-55836520D01*
X35136518Y-55836125D01*
X34949913Y-55610558D01*
X34917096Y-55577969D01*
X34884773Y-55544962D01*
X34879292Y-55540428D01*
X34879286Y-55540422D01*
X34879279Y-55540418D01*
X34652422Y-55355397D01*
X34613943Y-55329831D01*
X34575782Y-55303702D01*
X34569518Y-55300315D01*
X34311037Y-55162878D01*
X34268311Y-55145267D01*
X34225816Y-55127054D01*
X34225163Y-55126852D01*
X34310170Y-54989775D01*
X32500000Y-53179605D01*
X32485858Y-53193748D01*
X32306253Y-53014143D01*
X32320395Y-53000000D01*
X32306253Y-52985858D01*
X32485858Y-52806253D01*
X32500000Y-52820395D01*
X34310170Y-51010225D01*
X34224633Y-50872294D01*
X34232084Y-50869987D01*
X34274731Y-50852060D01*
X34317554Y-50834758D01*
X34323833Y-50831420D01*
X34323842Y-50831416D01*
X34323849Y-50831411D01*
X34581358Y-50692176D01*
X34619674Y-50666331D01*
X34658356Y-50641019D01*
X34663875Y-50636518D01*
X34889442Y-50449913D01*
X34922047Y-50417079D01*
X34955038Y-50384773D01*
X34959572Y-50379292D01*
X34959578Y-50379286D01*
X34959582Y-50379279D01*
X35137584Y-50161030D01*
X35121295Y-50214725D01*
X35112896Y-50300000D01*
X35112896Y-50700000D01*
X35121295Y-50785275D01*
X35146169Y-50867272D01*
X35186561Y-50942842D01*
X35240921Y-51009079D01*
X35307158Y-51063439D01*
X35382728Y-51103831D01*
X35464725Y-51128705D01*
X35550000Y-51137104D01*
X36262854Y-51137104D01*
X36323750Y-51198000D01*
X36927000Y-51198000D01*
X36927000Y-50473750D01*
X37073000Y-50473750D01*
X37073000Y-51198000D01*
X37927000Y-51198000D01*
X37927000Y-50473750D01*
X38073000Y-50473750D01*
X38073000Y-51198000D01*
X38927000Y-51198000D01*
X38927000Y-50473750D01*
X38768250Y-50315000D01*
X38661209Y-50327206D01*
X38542374Y-50366249D01*
X38500000Y-50390163D01*
X38457626Y-50366249D01*
X38338791Y-50327206D01*
X38231750Y-50315000D01*
X38073000Y-50473750D01*
X37927000Y-50473750D01*
X37768250Y-50315000D01*
X37661209Y-50327206D01*
X37542374Y-50366249D01*
X37500000Y-50390163D01*
X37457626Y-50366249D01*
X37338791Y-50327206D01*
X37231750Y-50315000D01*
X37073000Y-50473750D01*
X36927000Y-50473750D01*
X36768250Y-50315000D01*
X36737104Y-50318552D01*
X36737104Y-50300000D01*
X36728705Y-50214725D01*
X36703831Y-50132728D01*
X36663439Y-50057158D01*
X36616530Y-50000000D01*
X36663439Y-49942842D01*
X36703831Y-49867272D01*
X36716768Y-49824624D01*
X36804656Y-49871602D01*
X36900415Y-49900650D01*
X37000000Y-49910458D01*
X37600000Y-49910458D01*
X37699585Y-49900650D01*
X37795344Y-49871602D01*
X37883595Y-49824430D01*
X37909447Y-49803214D01*
X37948815Y-49851185D01*
X38045506Y-49930537D01*
X38155820Y-49989502D01*
X38275518Y-50025812D01*
X38400000Y-50038072D01*
X38564250Y-50035000D01*
X38723000Y-49876250D01*
X38723000Y-48627000D01*
X38703000Y-48627000D01*
X38703000Y-48373000D01*
X38723000Y-48373000D01*
X38723000Y-48353000D01*
X38977000Y-48353000D01*
X38977000Y-48373000D01*
G36*
X47424218Y-50696298D02*
G01*
X47430482Y-50699685D01*
X47688963Y-50837122D01*
X47731703Y-50854738D01*
X47774185Y-50872946D01*
X47774837Y-50873148D01*
X47689831Y-51010223D01*
X47575891Y-50896283D01*
X47519996Y-50952178D01*
X47506754Y-50885609D01*
X47451348Y-50751847D01*
X47405810Y-50683693D01*
X47424218Y-50696298D01*
X47424218Y-50696298D01*
G37*
X47424218Y-50696298D02*
X47430482Y-50699685D01*
X47688963Y-50837122D01*
X47731703Y-50854738D01*
X47774185Y-50872946D01*
X47774837Y-50873148D01*
X47689831Y-51010223D01*
X47575891Y-50896283D01*
X47519996Y-50952178D01*
X47506754Y-50885609D01*
X47451348Y-50751847D01*
X47405810Y-50683693D01*
X47424218Y-50696298D01*
G36*
X46490000Y-49025047D02*
G01*
X46492201Y-49047393D01*
X46492136Y-49056693D01*
X46492831Y-49063781D01*
X46523431Y-49354926D01*
X46532725Y-49400201D01*
X46541387Y-49445611D01*
X46543445Y-49452428D01*
X46630013Y-49732084D01*
X46647940Y-49774731D01*
X46665242Y-49817554D01*
X46668580Y-49823833D01*
X46668584Y-49823842D01*
X46668589Y-49823849D01*
X46807824Y-50081358D01*
X46833669Y-50119674D01*
X46858981Y-50158356D01*
X46863482Y-50163875D01*
X47050087Y-50389442D01*
X47082203Y-50421335D01*
X47014391Y-50393246D01*
X46872391Y-50365000D01*
X46727609Y-50365000D01*
X46585609Y-50393246D01*
X46451847Y-50448652D01*
X46331465Y-50529088D01*
X46281936Y-50578617D01*
X46087104Y-50383784D01*
X46087104Y-50075000D01*
X46078705Y-49989725D01*
X46053831Y-49907728D01*
X46013439Y-49832158D01*
X45959079Y-49765921D01*
X45939679Y-49750000D01*
X45959079Y-49734079D01*
X46013439Y-49667842D01*
X46053831Y-49592272D01*
X46078705Y-49510275D01*
X46087104Y-49425000D01*
X46087104Y-48825000D01*
X46078705Y-48739725D01*
X46055609Y-48663588D01*
X46101185Y-48626185D01*
X46180537Y-48529494D01*
X46239502Y-48419180D01*
X46275812Y-48299482D01*
X46288072Y-48175000D01*
X46285000Y-48160750D01*
X46126250Y-48002000D01*
X45227000Y-48002000D01*
X45227000Y-48022000D01*
X44973000Y-48022000D01*
X44973000Y-48002000D01*
X44953000Y-48002000D01*
X44953000Y-47748000D01*
X44973000Y-47748000D01*
X44973000Y-47728000D01*
X45227000Y-47728000D01*
X45227000Y-47748000D01*
X46126250Y-47748000D01*
X46285000Y-47589250D01*
X46288072Y-47575000D01*
X46275812Y-47450518D01*
X46239502Y-47330820D01*
X46180537Y-47220506D01*
X46101185Y-47123815D01*
X46055609Y-47086412D01*
X46078705Y-47010275D01*
X46087104Y-46925000D01*
X46087104Y-46325000D01*
X46078705Y-46239725D01*
X46053831Y-46157728D01*
X46013439Y-46082158D01*
X45959079Y-46015921D01*
X45892842Y-45961561D01*
X45817272Y-45921169D01*
X45735275Y-45896295D01*
X45650000Y-45887896D01*
X44550000Y-45887896D01*
X44464725Y-45896295D01*
X44382728Y-45921169D01*
X44307158Y-45961561D01*
X44240921Y-46015921D01*
X44186561Y-46082158D01*
X44146169Y-46157728D01*
X44121295Y-46239725D01*
X44112896Y-46325000D01*
X44112896Y-46633785D01*
X44000000Y-46746681D01*
X43887104Y-46633785D01*
X43887104Y-46325000D01*
X43878705Y-46239725D01*
X43853831Y-46157728D01*
X43813439Y-46082158D01*
X43759079Y-46015921D01*
X43692842Y-45961561D01*
X43617272Y-45921169D01*
X43535275Y-45896295D01*
X43450000Y-45887896D01*
X42350000Y-45887896D01*
X42264725Y-45896295D01*
X42182728Y-45921169D01*
X42107158Y-45961561D01*
X42040921Y-46015921D01*
X41986561Y-46082158D01*
X41946169Y-46157728D01*
X41921295Y-46239725D01*
X41912896Y-46325000D01*
X41912896Y-46925000D01*
X41921295Y-47010275D01*
X41946169Y-47092272D01*
X41986561Y-47167842D01*
X42040921Y-47234079D01*
X42060321Y-47250000D01*
X42040921Y-47265921D01*
X41986561Y-47332158D01*
X41946169Y-47407728D01*
X41944551Y-47413062D01*
X41848153Y-47348652D01*
X41811995Y-47333675D01*
X40887104Y-46408785D01*
X40887104Y-46300000D01*
X40878705Y-46214725D01*
X40853831Y-46132728D01*
X40813439Y-46057158D01*
X40759079Y-45990921D01*
X40692842Y-45936561D01*
X40617272Y-45896169D01*
X40535275Y-45871295D01*
X40450000Y-45862896D01*
X39737146Y-45862896D01*
X39676252Y-45802002D01*
X39835000Y-45802002D01*
X39835000Y-45731559D01*
X39877271Y-45749068D01*
X40057911Y-45785000D01*
X40242089Y-45785000D01*
X40422729Y-45749068D01*
X40592889Y-45678586D01*
X40746028Y-45576262D01*
X40876262Y-45446028D01*
X40978586Y-45292889D01*
X41049068Y-45122729D01*
X41085000Y-44942089D01*
X41085000Y-44757911D01*
X41049068Y-44577271D01*
X41021204Y-44510000D01*
X46490001Y-44510000D01*
X46490000Y-49025047D01*
X46490000Y-49025047D01*
G37*
X46490000Y-49025047D02*
X46492201Y-49047393D01*
X46492136Y-49056693D01*
X46492831Y-49063781D01*
X46523431Y-49354926D01*
X46532725Y-49400201D01*
X46541387Y-49445611D01*
X46543445Y-49452428D01*
X46630013Y-49732084D01*
X46647940Y-49774731D01*
X46665242Y-49817554D01*
X46668580Y-49823833D01*
X46668584Y-49823842D01*
X46668589Y-49823849D01*
X46807824Y-50081358D01*
X46833669Y-50119674D01*
X46858981Y-50158356D01*
X46863482Y-50163875D01*
X47050087Y-50389442D01*
X47082203Y-50421335D01*
X47014391Y-50393246D01*
X46872391Y-50365000D01*
X46727609Y-50365000D01*
X46585609Y-50393246D01*
X46451847Y-50448652D01*
X46331465Y-50529088D01*
X46281936Y-50578617D01*
X46087104Y-50383784D01*
X46087104Y-50075000D01*
X46078705Y-49989725D01*
X46053831Y-49907728D01*
X46013439Y-49832158D01*
X45959079Y-49765921D01*
X45939679Y-49750000D01*
X45959079Y-49734079D01*
X46013439Y-49667842D01*
X46053831Y-49592272D01*
X46078705Y-49510275D01*
X46087104Y-49425000D01*
X46087104Y-48825000D01*
X46078705Y-48739725D01*
X46055609Y-48663588D01*
X46101185Y-48626185D01*
X46180537Y-48529494D01*
X46239502Y-48419180D01*
X46275812Y-48299482D01*
X46288072Y-48175000D01*
X46285000Y-48160750D01*
X46126250Y-48002000D01*
X45227000Y-48002000D01*
X45227000Y-48022000D01*
X44973000Y-48022000D01*
X44973000Y-48002000D01*
X44953000Y-48002000D01*
X44953000Y-47748000D01*
X44973000Y-47748000D01*
X44973000Y-47728000D01*
X45227000Y-47728000D01*
X45227000Y-47748000D01*
X46126250Y-47748000D01*
X46285000Y-47589250D01*
X46288072Y-47575000D01*
X46275812Y-47450518D01*
X46239502Y-47330820D01*
X46180537Y-47220506D01*
X46101185Y-47123815D01*
X46055609Y-47086412D01*
X46078705Y-47010275D01*
X46087104Y-46925000D01*
X46087104Y-46325000D01*
X46078705Y-46239725D01*
X46053831Y-46157728D01*
X46013439Y-46082158D01*
X45959079Y-46015921D01*
X45892842Y-45961561D01*
X45817272Y-45921169D01*
X45735275Y-45896295D01*
X45650000Y-45887896D01*
X44550000Y-45887896D01*
X44464725Y-45896295D01*
X44382728Y-45921169D01*
X44307158Y-45961561D01*
X44240921Y-46015921D01*
X44186561Y-46082158D01*
X44146169Y-46157728D01*
X44121295Y-46239725D01*
X44112896Y-46325000D01*
X44112896Y-46633785D01*
X44000000Y-46746681D01*
X43887104Y-46633785D01*
X43887104Y-46325000D01*
X43878705Y-46239725D01*
X43853831Y-46157728D01*
X43813439Y-46082158D01*
X43759079Y-46015921D01*
X43692842Y-45961561D01*
X43617272Y-45921169D01*
X43535275Y-45896295D01*
X43450000Y-45887896D01*
X42350000Y-45887896D01*
X42264725Y-45896295D01*
X42182728Y-45921169D01*
X42107158Y-45961561D01*
X42040921Y-46015921D01*
X41986561Y-46082158D01*
X41946169Y-46157728D01*
X41921295Y-46239725D01*
X41912896Y-46325000D01*
X41912896Y-46925000D01*
X41921295Y-47010275D01*
X41946169Y-47092272D01*
X41986561Y-47167842D01*
X42040921Y-47234079D01*
X42060321Y-47250000D01*
X42040921Y-47265921D01*
X41986561Y-47332158D01*
X41946169Y-47407728D01*
X41944551Y-47413062D01*
X41848153Y-47348652D01*
X41811995Y-47333675D01*
X40887104Y-46408785D01*
X40887104Y-46300000D01*
X40878705Y-46214725D01*
X40853831Y-46132728D01*
X40813439Y-46057158D01*
X40759079Y-45990921D01*
X40692842Y-45936561D01*
X40617272Y-45896169D01*
X40535275Y-45871295D01*
X40450000Y-45862896D01*
X39737146Y-45862896D01*
X39676252Y-45802002D01*
X39835000Y-45802002D01*
X39835000Y-45731559D01*
X39877271Y-45749068D01*
X40057911Y-45785000D01*
X40242089Y-45785000D01*
X40422729Y-45749068D01*
X40592889Y-45678586D01*
X40746028Y-45576262D01*
X40876262Y-45446028D01*
X40978586Y-45292889D01*
X41049068Y-45122729D01*
X41085000Y-44942089D01*
X41085000Y-44757911D01*
X41049068Y-44577271D01*
X41021204Y-44510000D01*
X46490001Y-44510000D01*
X46490000Y-49025047D01*
G36*
X41151847Y-48651348D02*
G01*
X41285609Y-48706754D01*
X41427609Y-48735000D01*
X41572391Y-48735000D01*
X41677347Y-48714123D01*
X41682452Y-48765957D01*
X41711901Y-48863035D01*
X41733820Y-48904042D01*
X41759722Y-48952503D01*
X41807956Y-49011275D01*
X41807960Y-49011279D01*
X41824080Y-49030921D01*
X41843722Y-49047041D01*
X41912896Y-49116215D01*
X41912896Y-49425000D01*
X41921295Y-49510275D01*
X41946169Y-49592272D01*
X41986561Y-49667842D01*
X42040921Y-49734079D01*
X42060321Y-49750000D01*
X42040921Y-49765921D01*
X41986561Y-49832158D01*
X41971680Y-49860000D01*
X41649447Y-49860000D01*
X41593535Y-49804088D01*
X41473153Y-49723652D01*
X41339391Y-49668246D01*
X41197391Y-49640000D01*
X41118320Y-49640000D01*
X40887104Y-49408785D01*
X40887104Y-49300000D01*
X40878705Y-49214725D01*
X40867943Y-49179247D01*
X40890726Y-49161407D01*
X40972274Y-49066560D01*
X41033751Y-48957626D01*
X41072794Y-48838791D01*
X41085000Y-48731750D01*
X40980252Y-48627002D01*
X41085000Y-48627002D01*
X41085000Y-48606683D01*
X41151847Y-48651348D01*
X41151847Y-48651348D01*
G37*
X41151847Y-48651348D02*
X41285609Y-48706754D01*
X41427609Y-48735000D01*
X41572391Y-48735000D01*
X41677347Y-48714123D01*
X41682452Y-48765957D01*
X41711901Y-48863035D01*
X41733820Y-48904042D01*
X41759722Y-48952503D01*
X41807956Y-49011275D01*
X41807960Y-49011279D01*
X41824080Y-49030921D01*
X41843722Y-49047041D01*
X41912896Y-49116215D01*
X41912896Y-49425000D01*
X41921295Y-49510275D01*
X41946169Y-49592272D01*
X41986561Y-49667842D01*
X42040921Y-49734079D01*
X42060321Y-49750000D01*
X42040921Y-49765921D01*
X41986561Y-49832158D01*
X41971680Y-49860000D01*
X41649447Y-49860000D01*
X41593535Y-49804088D01*
X41473153Y-49723652D01*
X41339391Y-49668246D01*
X41197391Y-49640000D01*
X41118320Y-49640000D01*
X40887104Y-49408785D01*
X40887104Y-49300000D01*
X40878705Y-49214725D01*
X40867943Y-49179247D01*
X40890726Y-49161407D01*
X40972274Y-49066560D01*
X41033751Y-48957626D01*
X41072794Y-48838791D01*
X41085000Y-48731750D01*
X40980252Y-48627002D01*
X41085000Y-48627002D01*
X41085000Y-48606683D01*
X41151847Y-48651348D01*
G36*
X39250932Y-44577271D02*
G01*
X39233443Y-44665193D01*
X39231750Y-44665000D01*
X39073000Y-44823750D01*
X39073000Y-45548000D01*
X39147000Y-45548000D01*
X39147000Y-45802000D01*
X39073000Y-45802000D01*
X39073000Y-45822000D01*
X38927000Y-45822000D01*
X38927000Y-45802000D01*
X38073000Y-45802000D01*
X38073000Y-46526250D01*
X38231750Y-46685000D01*
X38296559Y-46677610D01*
X38293246Y-46685609D01*
X38265000Y-46827609D01*
X38265000Y-46972391D01*
X38265936Y-46977095D01*
X38155820Y-47010498D01*
X38045506Y-47069463D01*
X37948815Y-47148815D01*
X37909447Y-47196786D01*
X37883595Y-47175570D01*
X37795344Y-47128398D01*
X37699585Y-47099350D01*
X37600000Y-47089542D01*
X36700000Y-47089542D01*
X36681711Y-47091343D01*
X36663439Y-47057158D01*
X36616530Y-47000000D01*
X36663439Y-46942842D01*
X36703831Y-46867272D01*
X36728705Y-46785275D01*
X36737104Y-46700000D01*
X36737104Y-46681448D01*
X36768250Y-46685000D01*
X36927000Y-46526250D01*
X36927000Y-45802000D01*
X37073000Y-45802000D01*
X37073000Y-46526250D01*
X37231750Y-46685000D01*
X37338791Y-46672794D01*
X37457626Y-46633751D01*
X37500000Y-46609837D01*
X37542374Y-46633751D01*
X37661209Y-46672794D01*
X37768250Y-46685000D01*
X37927000Y-46526250D01*
X37927000Y-45802000D01*
X37073000Y-45802000D01*
X36927000Y-45802000D01*
X36853000Y-45802000D01*
X36853000Y-45548000D01*
X36927000Y-45548000D01*
X36927000Y-44823750D01*
X37073000Y-44823750D01*
X37073000Y-45548000D01*
X37927000Y-45548000D01*
X37927000Y-44823750D01*
X38073000Y-44823750D01*
X38073000Y-45548000D01*
X38927000Y-45548000D01*
X38927000Y-44823750D01*
X38768250Y-44665000D01*
X38661209Y-44677206D01*
X38542374Y-44716249D01*
X38500000Y-44740163D01*
X38457626Y-44716249D01*
X38338791Y-44677206D01*
X38231750Y-44665000D01*
X38073000Y-44823750D01*
X37927000Y-44823750D01*
X37768250Y-44665000D01*
X37661209Y-44677206D01*
X37542374Y-44716249D01*
X37500000Y-44740163D01*
X37457626Y-44716249D01*
X37338791Y-44677206D01*
X37231750Y-44665000D01*
X37073000Y-44823750D01*
X36927000Y-44823750D01*
X36768250Y-44665000D01*
X36766557Y-44665193D01*
X36749068Y-44577271D01*
X36721204Y-44510000D01*
X39278796Y-44510000D01*
X39250932Y-44577271D01*
X39250932Y-44577271D01*
G37*
X39250932Y-44577271D02*
X39233443Y-44665193D01*
X39231750Y-44665000D01*
X39073000Y-44823750D01*
X39073000Y-45548000D01*
X39147000Y-45548000D01*
X39147000Y-45802000D01*
X39073000Y-45802000D01*
X39073000Y-45822000D01*
X38927000Y-45822000D01*
X38927000Y-45802000D01*
X38073000Y-45802000D01*
X38073000Y-46526250D01*
X38231750Y-46685000D01*
X38296559Y-46677610D01*
X38293246Y-46685609D01*
X38265000Y-46827609D01*
X38265000Y-46972391D01*
X38265936Y-46977095D01*
X38155820Y-47010498D01*
X38045506Y-47069463D01*
X37948815Y-47148815D01*
X37909447Y-47196786D01*
X37883595Y-47175570D01*
X37795344Y-47128398D01*
X37699585Y-47099350D01*
X37600000Y-47089542D01*
X36700000Y-47089542D01*
X36681711Y-47091343D01*
X36663439Y-47057158D01*
X36616530Y-47000000D01*
X36663439Y-46942842D01*
X36703831Y-46867272D01*
X36728705Y-46785275D01*
X36737104Y-46700000D01*
X36737104Y-46681448D01*
X36768250Y-46685000D01*
X36927000Y-46526250D01*
X36927000Y-45802000D01*
X37073000Y-45802000D01*
X37073000Y-46526250D01*
X37231750Y-46685000D01*
X37338791Y-46672794D01*
X37457626Y-46633751D01*
X37500000Y-46609837D01*
X37542374Y-46633751D01*
X37661209Y-46672794D01*
X37768250Y-46685000D01*
X37927000Y-46526250D01*
X37927000Y-45802000D01*
X37073000Y-45802000D01*
X36927000Y-45802000D01*
X36853000Y-45802000D01*
X36853000Y-45548000D01*
X36927000Y-45548000D01*
X36927000Y-44823750D01*
X37073000Y-44823750D01*
X37073000Y-45548000D01*
X37927000Y-45548000D01*
X37927000Y-44823750D01*
X38073000Y-44823750D01*
X38073000Y-45548000D01*
X38927000Y-45548000D01*
X38927000Y-44823750D01*
X38768250Y-44665000D01*
X38661209Y-44677206D01*
X38542374Y-44716249D01*
X38500000Y-44740163D01*
X38457626Y-44716249D01*
X38338791Y-44677206D01*
X38231750Y-44665000D01*
X38073000Y-44823750D01*
X37927000Y-44823750D01*
X37768250Y-44665000D01*
X37661209Y-44677206D01*
X37542374Y-44716249D01*
X37500000Y-44740163D01*
X37457626Y-44716249D01*
X37338791Y-44677206D01*
X37231750Y-44665000D01*
X37073000Y-44823750D01*
X36927000Y-44823750D01*
X36768250Y-44665000D01*
X36766557Y-44665193D01*
X36749068Y-44577271D01*
X36721204Y-44510000D01*
X39278796Y-44510000D01*
X39250932Y-44577271D01*
M02*
