G04 #@! TF.GenerationSoftware,KiCad,Pcbnew,(5.1.0-0)*
G04 #@! TF.CreationDate,2019-06-18T08:50:15-07:00*
G04 #@! TF.ProjectId,airdata,61697264-6174-4612-9e6b-696361645f70,rev?*
G04 #@! TF.SameCoordinates,Original*
G04 #@! TF.FileFunction,Soldermask,Top*
G04 #@! TF.FilePolarity,Negative*
%FSLAX46Y46*%
G04 Gerber Fmt 4.6, Leading zero omitted, Abs format (unit mm)*
G04 Created by KiCad (PCBNEW (5.1.0-0)) date 2019-06-18 08:50:15*
%MOMM*%
%LPD*%
G04 APERTURE LIST*
%ADD10C,1.100000*%
%ADD11C,4.800000*%
%ADD12R,1.300000X2.200000*%
%ADD13C,0.500000*%
%ADD14C,0.100000*%
%ADD15C,1.400000*%
%ADD16R,0.800000X1.150000*%
%ADD17R,1.150000X0.800000*%
%ADD18R,1.500000X1.000000*%
G04 APERTURE END LIST*
D10*
X50666726Y-51833274D03*
X49500000Y-51350000D03*
X48333274Y-51833274D03*
X47850000Y-53000000D03*
X48333274Y-54166726D03*
X49500000Y-54650000D03*
X50666726Y-54166726D03*
X51150000Y-53000000D03*
D11*
X49500000Y-53000000D03*
D10*
X33666726Y-51833274D03*
X32500000Y-51350000D03*
X31333274Y-51833274D03*
X30850000Y-53000000D03*
X31333274Y-54166726D03*
X32500000Y-54650000D03*
X33666726Y-54166726D03*
X34150000Y-53000000D03*
D11*
X32500000Y-53000000D03*
D12*
X38850000Y-48500000D03*
D13*
X37150000Y-48500000D03*
D14*
G36*
X36503843Y-47560982D02*
G01*
X36515224Y-47523463D01*
X36533706Y-47488886D01*
X36558579Y-47458579D01*
X36588886Y-47433706D01*
X36623463Y-47415224D01*
X36660982Y-47403843D01*
X36700000Y-47400000D01*
X37600000Y-47400000D01*
X37639018Y-47403843D01*
X37676537Y-47415224D01*
X37711114Y-47433706D01*
X37741421Y-47458579D01*
X37766294Y-47488886D01*
X37784776Y-47523463D01*
X37796157Y-47560982D01*
X37800000Y-47600000D01*
X37800000Y-49400000D01*
X37796157Y-49439018D01*
X37784776Y-49476537D01*
X37766294Y-49511114D01*
X37741421Y-49541421D01*
X37711114Y-49566294D01*
X37676537Y-49584776D01*
X37639018Y-49596157D01*
X37600000Y-49600000D01*
X37000000Y-49600000D01*
X36960982Y-49596157D01*
X36923463Y-49584776D01*
X36888886Y-49566294D01*
X36858579Y-49541421D01*
X36558579Y-49241421D01*
X36533706Y-49211114D01*
X36515224Y-49176537D01*
X36503843Y-49139018D01*
X36500000Y-49100000D01*
X36500000Y-47600000D01*
X36503843Y-47560982D01*
X36503843Y-47560982D01*
G37*
D15*
X40150000Y-52150000D03*
X40150000Y-44850000D03*
X35850000Y-44850000D03*
D16*
X37000000Y-51325000D03*
X38000000Y-51325000D03*
X39000000Y-51325000D03*
X39000000Y-45675000D03*
X38000000Y-45675000D03*
X37000000Y-45675000D03*
D17*
X40075000Y-50500000D03*
X40075000Y-49500000D03*
X40075000Y-48500000D03*
X40075000Y-47500000D03*
X40075000Y-46500000D03*
X35925000Y-46500000D03*
X35925000Y-47500000D03*
X35925000Y-48500000D03*
X35925000Y-49500000D03*
X35925000Y-50500000D03*
D12*
X38850000Y-57500000D03*
D13*
X37150000Y-57500000D03*
D14*
G36*
X36503843Y-56560982D02*
G01*
X36515224Y-56523463D01*
X36533706Y-56488886D01*
X36558579Y-56458579D01*
X36588886Y-56433706D01*
X36623463Y-56415224D01*
X36660982Y-56403843D01*
X36700000Y-56400000D01*
X37600000Y-56400000D01*
X37639018Y-56403843D01*
X37676537Y-56415224D01*
X37711114Y-56433706D01*
X37741421Y-56458579D01*
X37766294Y-56488886D01*
X37784776Y-56523463D01*
X37796157Y-56560982D01*
X37800000Y-56600000D01*
X37800000Y-58400000D01*
X37796157Y-58439018D01*
X37784776Y-58476537D01*
X37766294Y-58511114D01*
X37741421Y-58541421D01*
X37711114Y-58566294D01*
X37676537Y-58584776D01*
X37639018Y-58596157D01*
X37600000Y-58600000D01*
X37000000Y-58600000D01*
X36960982Y-58596157D01*
X36923463Y-58584776D01*
X36888886Y-58566294D01*
X36858579Y-58541421D01*
X36558579Y-58241421D01*
X36533706Y-58211114D01*
X36515224Y-58176537D01*
X36503843Y-58139018D01*
X36500000Y-58100000D01*
X36500000Y-56600000D01*
X36503843Y-56560982D01*
X36503843Y-56560982D01*
G37*
D15*
X40150000Y-61150000D03*
X40150000Y-53850000D03*
X35850000Y-53850000D03*
D16*
X37000000Y-60325000D03*
X38000000Y-60325000D03*
X39000000Y-60325000D03*
X39000000Y-54675000D03*
X38000000Y-54675000D03*
X37000000Y-54675000D03*
D17*
X40075000Y-59500000D03*
X40075000Y-58500000D03*
X40075000Y-57500000D03*
X40075000Y-56500000D03*
X40075000Y-55500000D03*
X35925000Y-55500000D03*
X35925000Y-56500000D03*
X35925000Y-57500000D03*
X35925000Y-58500000D03*
X35925000Y-59500000D03*
X46075000Y-55500000D03*
X46075000Y-56500000D03*
X46075000Y-57500000D03*
X46075000Y-58500000D03*
X46075000Y-59500000D03*
X41925000Y-59500000D03*
X41925000Y-58500000D03*
X41925000Y-57500000D03*
X41925000Y-56500000D03*
X41925000Y-55500000D03*
D16*
X45000000Y-60325000D03*
X44000000Y-60325000D03*
X43000000Y-60325000D03*
X43000000Y-54675000D03*
X44000000Y-54675000D03*
X45000000Y-54675000D03*
D15*
X46150000Y-61150000D03*
X41850000Y-61150000D03*
X41850000Y-53850000D03*
D13*
X44850000Y-57500000D03*
D14*
G36*
X45496157Y-58439018D02*
G01*
X45484776Y-58476537D01*
X45466294Y-58511114D01*
X45441421Y-58541421D01*
X45411114Y-58566294D01*
X45376537Y-58584776D01*
X45339018Y-58596157D01*
X45300000Y-58600000D01*
X44400000Y-58600000D01*
X44360982Y-58596157D01*
X44323463Y-58584776D01*
X44288886Y-58566294D01*
X44258579Y-58541421D01*
X44233706Y-58511114D01*
X44215224Y-58476537D01*
X44203843Y-58439018D01*
X44200000Y-58400000D01*
X44200000Y-56600000D01*
X44203843Y-56560982D01*
X44215224Y-56523463D01*
X44233706Y-56488886D01*
X44258579Y-56458579D01*
X44288886Y-56433706D01*
X44323463Y-56415224D01*
X44360982Y-56403843D01*
X44400000Y-56400000D01*
X45000000Y-56400000D01*
X45039018Y-56403843D01*
X45076537Y-56415224D01*
X45111114Y-56433706D01*
X45141421Y-56458579D01*
X45441421Y-56758579D01*
X45466294Y-56788886D01*
X45484776Y-56823463D01*
X45496157Y-56860982D01*
X45500000Y-56900000D01*
X45500000Y-58400000D01*
X45496157Y-58439018D01*
X45496157Y-58439018D01*
G37*
D12*
X43150000Y-57500000D03*
D18*
X42900000Y-47875000D03*
X42900000Y-46625000D03*
X42900000Y-49125000D03*
X42900000Y-50375000D03*
X45100000Y-50375000D03*
X45100000Y-49125000D03*
X45100000Y-46625000D03*
X45100000Y-47875000D03*
M02*
