G04 #@! TF.GenerationSoftware,KiCad,Pcbnew,(5.1.0-0)*
G04 #@! TF.CreationDate,2019-06-18T08:50:15-07:00*
G04 #@! TF.ProjectId,airdata,61697264-6174-4612-9e6b-696361645f70,rev?*
G04 #@! TF.SameCoordinates,Original*
G04 #@! TF.FileFunction,Soldermask,Bot*
G04 #@! TF.FilePolarity,Negative*
%FSLAX46Y46*%
G04 Gerber Fmt 4.6, Leading zero omitted, Abs format (unit mm)*
G04 Created by KiCad (PCBNEW (5.1.0-0)) date 2019-06-18 08:50:15*
%MOMM*%
%LPD*%
G04 APERTURE LIST*
%ADD10C,0.100000*%
%ADD11C,1.400000*%
%ADD12C,1.000000*%
%ADD13C,1.100000*%
%ADD14C,4.800000*%
%ADD15C,1.275000*%
%ADD16R,1.050000X1.620000*%
G04 APERTURE END LIST*
D10*
G36*
X45109306Y-44101685D02*
G01*
X45143282Y-44106725D01*
X45176600Y-44115071D01*
X45208939Y-44126642D01*
X45239989Y-44141328D01*
X45269450Y-44158986D01*
X45297038Y-44179446D01*
X45322487Y-44202513D01*
X45345554Y-44227962D01*
X45366014Y-44255550D01*
X45383672Y-44285011D01*
X45398358Y-44316061D01*
X45409929Y-44348400D01*
X45418275Y-44381718D01*
X45423315Y-44415694D01*
X45425000Y-44450000D01*
X45425000Y-46850000D01*
X45423315Y-46884306D01*
X45418275Y-46918282D01*
X45409929Y-46951600D01*
X45398358Y-46983939D01*
X45383672Y-47014989D01*
X45366014Y-47044450D01*
X45345554Y-47072038D01*
X45322487Y-47097487D01*
X45297038Y-47120554D01*
X45269450Y-47141014D01*
X45239989Y-47158672D01*
X45208939Y-47173358D01*
X45176600Y-47184929D01*
X45143282Y-47193275D01*
X45109306Y-47198315D01*
X45075000Y-47200000D01*
X44375000Y-47200000D01*
X44340694Y-47198315D01*
X44306718Y-47193275D01*
X44273400Y-47184929D01*
X44241061Y-47173358D01*
X44210011Y-47158672D01*
X44180550Y-47141014D01*
X44152962Y-47120554D01*
X44127513Y-47097487D01*
X44104446Y-47072038D01*
X44083986Y-47044450D01*
X44066328Y-47014989D01*
X44051642Y-46983939D01*
X44040071Y-46951600D01*
X44031725Y-46918282D01*
X44026685Y-46884306D01*
X44025000Y-46850000D01*
X44025000Y-44450000D01*
X44026685Y-44415694D01*
X44031725Y-44381718D01*
X44040071Y-44348400D01*
X44051642Y-44316061D01*
X44066328Y-44285011D01*
X44083986Y-44255550D01*
X44104446Y-44227962D01*
X44127513Y-44202513D01*
X44152962Y-44179446D01*
X44180550Y-44158986D01*
X44210011Y-44141328D01*
X44241061Y-44126642D01*
X44273400Y-44115071D01*
X44306718Y-44106725D01*
X44340694Y-44101685D01*
X44375000Y-44100000D01*
X45075000Y-44100000D01*
X45109306Y-44101685D01*
X45109306Y-44101685D01*
G37*
D11*
X44725000Y-45650000D03*
D10*
G36*
X37659306Y-44101685D02*
G01*
X37693282Y-44106725D01*
X37726600Y-44115071D01*
X37758939Y-44126642D01*
X37789989Y-44141328D01*
X37819450Y-44158986D01*
X37847038Y-44179446D01*
X37872487Y-44202513D01*
X37895554Y-44227962D01*
X37916014Y-44255550D01*
X37933672Y-44285011D01*
X37948358Y-44316061D01*
X37959929Y-44348400D01*
X37968275Y-44381718D01*
X37973315Y-44415694D01*
X37975000Y-44450000D01*
X37975000Y-46850000D01*
X37973315Y-46884306D01*
X37968275Y-46918282D01*
X37959929Y-46951600D01*
X37948358Y-46983939D01*
X37933672Y-47014989D01*
X37916014Y-47044450D01*
X37895554Y-47072038D01*
X37872487Y-47097487D01*
X37847038Y-47120554D01*
X37819450Y-47141014D01*
X37789989Y-47158672D01*
X37758939Y-47173358D01*
X37726600Y-47184929D01*
X37693282Y-47193275D01*
X37659306Y-47198315D01*
X37625000Y-47200000D01*
X36925000Y-47200000D01*
X36890694Y-47198315D01*
X36856718Y-47193275D01*
X36823400Y-47184929D01*
X36791061Y-47173358D01*
X36760011Y-47158672D01*
X36730550Y-47141014D01*
X36702962Y-47120554D01*
X36677513Y-47097487D01*
X36654446Y-47072038D01*
X36633986Y-47044450D01*
X36616328Y-47014989D01*
X36601642Y-46983939D01*
X36590071Y-46951600D01*
X36581725Y-46918282D01*
X36576685Y-46884306D01*
X36575000Y-46850000D01*
X36575000Y-44450000D01*
X36576685Y-44415694D01*
X36581725Y-44381718D01*
X36590071Y-44348400D01*
X36601642Y-44316061D01*
X36616328Y-44285011D01*
X36633986Y-44255550D01*
X36654446Y-44227962D01*
X36677513Y-44202513D01*
X36702962Y-44179446D01*
X36730550Y-44158986D01*
X36760011Y-44141328D01*
X36791061Y-44126642D01*
X36823400Y-44115071D01*
X36856718Y-44106725D01*
X36890694Y-44101685D01*
X36925000Y-44100000D01*
X37625000Y-44100000D01*
X37659306Y-44101685D01*
X37659306Y-44101685D01*
G37*
D11*
X37275000Y-45650000D03*
D10*
G36*
X43149504Y-47801204D02*
G01*
X43173773Y-47804804D01*
X43197571Y-47810765D01*
X43220671Y-47819030D01*
X43242849Y-47829520D01*
X43263893Y-47842133D01*
X43283598Y-47856747D01*
X43301777Y-47873223D01*
X43318253Y-47891402D01*
X43332867Y-47911107D01*
X43345480Y-47932151D01*
X43355970Y-47954329D01*
X43364235Y-47977429D01*
X43370196Y-48001227D01*
X43373796Y-48025496D01*
X43375000Y-48050000D01*
X43375000Y-49650000D01*
X43373796Y-49674504D01*
X43370196Y-49698773D01*
X43364235Y-49722571D01*
X43355970Y-49745671D01*
X43345480Y-49767849D01*
X43332867Y-49788893D01*
X43318253Y-49808598D01*
X43301777Y-49826777D01*
X43283598Y-49843253D01*
X43263893Y-49857867D01*
X43242849Y-49870480D01*
X43220671Y-49880970D01*
X43197571Y-49889235D01*
X43173773Y-49895196D01*
X43149504Y-49898796D01*
X43125000Y-49900000D01*
X42625000Y-49900000D01*
X42600496Y-49898796D01*
X42576227Y-49895196D01*
X42552429Y-49889235D01*
X42529329Y-49880970D01*
X42507151Y-49870480D01*
X42486107Y-49857867D01*
X42466402Y-49843253D01*
X42448223Y-49826777D01*
X42431747Y-49808598D01*
X42417133Y-49788893D01*
X42404520Y-49767849D01*
X42394030Y-49745671D01*
X42385765Y-49722571D01*
X42379804Y-49698773D01*
X42376204Y-49674504D01*
X42375000Y-49650000D01*
X42375000Y-48050000D01*
X42376204Y-48025496D01*
X42379804Y-48001227D01*
X42385765Y-47977429D01*
X42394030Y-47954329D01*
X42404520Y-47932151D01*
X42417133Y-47911107D01*
X42431747Y-47891402D01*
X42448223Y-47873223D01*
X42466402Y-47856747D01*
X42486107Y-47842133D01*
X42507151Y-47829520D01*
X42529329Y-47819030D01*
X42552429Y-47810765D01*
X42576227Y-47804804D01*
X42600496Y-47801204D01*
X42625000Y-47800000D01*
X43125000Y-47800000D01*
X43149504Y-47801204D01*
X43149504Y-47801204D01*
G37*
D12*
X42875000Y-48850000D03*
D10*
G36*
X41899504Y-47801204D02*
G01*
X41923773Y-47804804D01*
X41947571Y-47810765D01*
X41970671Y-47819030D01*
X41992849Y-47829520D01*
X42013893Y-47842133D01*
X42033598Y-47856747D01*
X42051777Y-47873223D01*
X42068253Y-47891402D01*
X42082867Y-47911107D01*
X42095480Y-47932151D01*
X42105970Y-47954329D01*
X42114235Y-47977429D01*
X42120196Y-48001227D01*
X42123796Y-48025496D01*
X42125000Y-48050000D01*
X42125000Y-49650000D01*
X42123796Y-49674504D01*
X42120196Y-49698773D01*
X42114235Y-49722571D01*
X42105970Y-49745671D01*
X42095480Y-49767849D01*
X42082867Y-49788893D01*
X42068253Y-49808598D01*
X42051777Y-49826777D01*
X42033598Y-49843253D01*
X42013893Y-49857867D01*
X41992849Y-49870480D01*
X41970671Y-49880970D01*
X41947571Y-49889235D01*
X41923773Y-49895196D01*
X41899504Y-49898796D01*
X41875000Y-49900000D01*
X41375000Y-49900000D01*
X41350496Y-49898796D01*
X41326227Y-49895196D01*
X41302429Y-49889235D01*
X41279329Y-49880970D01*
X41257151Y-49870480D01*
X41236107Y-49857867D01*
X41216402Y-49843253D01*
X41198223Y-49826777D01*
X41181747Y-49808598D01*
X41167133Y-49788893D01*
X41154520Y-49767849D01*
X41144030Y-49745671D01*
X41135765Y-49722571D01*
X41129804Y-49698773D01*
X41126204Y-49674504D01*
X41125000Y-49650000D01*
X41125000Y-48050000D01*
X41126204Y-48025496D01*
X41129804Y-48001227D01*
X41135765Y-47977429D01*
X41144030Y-47954329D01*
X41154520Y-47932151D01*
X41167133Y-47911107D01*
X41181747Y-47891402D01*
X41198223Y-47873223D01*
X41216402Y-47856747D01*
X41236107Y-47842133D01*
X41257151Y-47829520D01*
X41279329Y-47819030D01*
X41302429Y-47810765D01*
X41326227Y-47804804D01*
X41350496Y-47801204D01*
X41375000Y-47800000D01*
X41875000Y-47800000D01*
X41899504Y-47801204D01*
X41899504Y-47801204D01*
G37*
D12*
X41625000Y-48850000D03*
D10*
G36*
X40649504Y-47801204D02*
G01*
X40673773Y-47804804D01*
X40697571Y-47810765D01*
X40720671Y-47819030D01*
X40742849Y-47829520D01*
X40763893Y-47842133D01*
X40783598Y-47856747D01*
X40801777Y-47873223D01*
X40818253Y-47891402D01*
X40832867Y-47911107D01*
X40845480Y-47932151D01*
X40855970Y-47954329D01*
X40864235Y-47977429D01*
X40870196Y-48001227D01*
X40873796Y-48025496D01*
X40875000Y-48050000D01*
X40875000Y-49650000D01*
X40873796Y-49674504D01*
X40870196Y-49698773D01*
X40864235Y-49722571D01*
X40855970Y-49745671D01*
X40845480Y-49767849D01*
X40832867Y-49788893D01*
X40818253Y-49808598D01*
X40801777Y-49826777D01*
X40783598Y-49843253D01*
X40763893Y-49857867D01*
X40742849Y-49870480D01*
X40720671Y-49880970D01*
X40697571Y-49889235D01*
X40673773Y-49895196D01*
X40649504Y-49898796D01*
X40625000Y-49900000D01*
X40125000Y-49900000D01*
X40100496Y-49898796D01*
X40076227Y-49895196D01*
X40052429Y-49889235D01*
X40029329Y-49880970D01*
X40007151Y-49870480D01*
X39986107Y-49857867D01*
X39966402Y-49843253D01*
X39948223Y-49826777D01*
X39931747Y-49808598D01*
X39917133Y-49788893D01*
X39904520Y-49767849D01*
X39894030Y-49745671D01*
X39885765Y-49722571D01*
X39879804Y-49698773D01*
X39876204Y-49674504D01*
X39875000Y-49650000D01*
X39875000Y-48050000D01*
X39876204Y-48025496D01*
X39879804Y-48001227D01*
X39885765Y-47977429D01*
X39894030Y-47954329D01*
X39904520Y-47932151D01*
X39917133Y-47911107D01*
X39931747Y-47891402D01*
X39948223Y-47873223D01*
X39966402Y-47856747D01*
X39986107Y-47842133D01*
X40007151Y-47829520D01*
X40029329Y-47819030D01*
X40052429Y-47810765D01*
X40076227Y-47804804D01*
X40100496Y-47801204D01*
X40125000Y-47800000D01*
X40625000Y-47800000D01*
X40649504Y-47801204D01*
X40649504Y-47801204D01*
G37*
D12*
X40375000Y-48850000D03*
D10*
G36*
X39399504Y-47801204D02*
G01*
X39423773Y-47804804D01*
X39447571Y-47810765D01*
X39470671Y-47819030D01*
X39492849Y-47829520D01*
X39513893Y-47842133D01*
X39533598Y-47856747D01*
X39551777Y-47873223D01*
X39568253Y-47891402D01*
X39582867Y-47911107D01*
X39595480Y-47932151D01*
X39605970Y-47954329D01*
X39614235Y-47977429D01*
X39620196Y-48001227D01*
X39623796Y-48025496D01*
X39625000Y-48050000D01*
X39625000Y-49650000D01*
X39623796Y-49674504D01*
X39620196Y-49698773D01*
X39614235Y-49722571D01*
X39605970Y-49745671D01*
X39595480Y-49767849D01*
X39582867Y-49788893D01*
X39568253Y-49808598D01*
X39551777Y-49826777D01*
X39533598Y-49843253D01*
X39513893Y-49857867D01*
X39492849Y-49870480D01*
X39470671Y-49880970D01*
X39447571Y-49889235D01*
X39423773Y-49895196D01*
X39399504Y-49898796D01*
X39375000Y-49900000D01*
X38875000Y-49900000D01*
X38850496Y-49898796D01*
X38826227Y-49895196D01*
X38802429Y-49889235D01*
X38779329Y-49880970D01*
X38757151Y-49870480D01*
X38736107Y-49857867D01*
X38716402Y-49843253D01*
X38698223Y-49826777D01*
X38681747Y-49808598D01*
X38667133Y-49788893D01*
X38654520Y-49767849D01*
X38644030Y-49745671D01*
X38635765Y-49722571D01*
X38629804Y-49698773D01*
X38626204Y-49674504D01*
X38625000Y-49650000D01*
X38625000Y-48050000D01*
X38626204Y-48025496D01*
X38629804Y-48001227D01*
X38635765Y-47977429D01*
X38644030Y-47954329D01*
X38654520Y-47932151D01*
X38667133Y-47911107D01*
X38681747Y-47891402D01*
X38698223Y-47873223D01*
X38716402Y-47856747D01*
X38736107Y-47842133D01*
X38757151Y-47829520D01*
X38779329Y-47819030D01*
X38802429Y-47810765D01*
X38826227Y-47804804D01*
X38850496Y-47801204D01*
X38875000Y-47800000D01*
X39375000Y-47800000D01*
X39399504Y-47801204D01*
X39399504Y-47801204D01*
G37*
D12*
X39125000Y-48850000D03*
D13*
X50666726Y-51833274D03*
X49500000Y-51350000D03*
X48333274Y-51833274D03*
X47850000Y-53000000D03*
X48333274Y-54166726D03*
X49500000Y-54650000D03*
X50666726Y-54166726D03*
X51150000Y-53000000D03*
D14*
X49500000Y-53000000D03*
D10*
G36*
X45137493Y-60426535D02*
G01*
X45168435Y-60431125D01*
X45198778Y-60438725D01*
X45228230Y-60449263D01*
X45256508Y-60462638D01*
X45283338Y-60478719D01*
X45308463Y-60497353D01*
X45331640Y-60518360D01*
X45352647Y-60541537D01*
X45371281Y-60566662D01*
X45387362Y-60593492D01*
X45400737Y-60621770D01*
X45411275Y-60651222D01*
X45418875Y-60681565D01*
X45423465Y-60712507D01*
X45425000Y-60743750D01*
X45425000Y-61456250D01*
X45423465Y-61487493D01*
X45418875Y-61518435D01*
X45411275Y-61548778D01*
X45400737Y-61578230D01*
X45387362Y-61606508D01*
X45371281Y-61633338D01*
X45352647Y-61658463D01*
X45331640Y-61681640D01*
X45308463Y-61702647D01*
X45283338Y-61721281D01*
X45256508Y-61737362D01*
X45228230Y-61750737D01*
X45198778Y-61761275D01*
X45168435Y-61768875D01*
X45137493Y-61773465D01*
X45106250Y-61775000D01*
X44468750Y-61775000D01*
X44437507Y-61773465D01*
X44406565Y-61768875D01*
X44376222Y-61761275D01*
X44346770Y-61750737D01*
X44318492Y-61737362D01*
X44291662Y-61721281D01*
X44266537Y-61702647D01*
X44243360Y-61681640D01*
X44222353Y-61658463D01*
X44203719Y-61633338D01*
X44187638Y-61606508D01*
X44174263Y-61578230D01*
X44163725Y-61548778D01*
X44156125Y-61518435D01*
X44151535Y-61487493D01*
X44150000Y-61456250D01*
X44150000Y-60743750D01*
X44151535Y-60712507D01*
X44156125Y-60681565D01*
X44163725Y-60651222D01*
X44174263Y-60621770D01*
X44187638Y-60593492D01*
X44203719Y-60566662D01*
X44222353Y-60541537D01*
X44243360Y-60518360D01*
X44266537Y-60497353D01*
X44291662Y-60478719D01*
X44318492Y-60462638D01*
X44346770Y-60449263D01*
X44376222Y-60438725D01*
X44406565Y-60431125D01*
X44437507Y-60426535D01*
X44468750Y-60425000D01*
X45106250Y-60425000D01*
X45137493Y-60426535D01*
X45137493Y-60426535D01*
G37*
D15*
X44787500Y-61100000D03*
D10*
G36*
X43562493Y-60426535D02*
G01*
X43593435Y-60431125D01*
X43623778Y-60438725D01*
X43653230Y-60449263D01*
X43681508Y-60462638D01*
X43708338Y-60478719D01*
X43733463Y-60497353D01*
X43756640Y-60518360D01*
X43777647Y-60541537D01*
X43796281Y-60566662D01*
X43812362Y-60593492D01*
X43825737Y-60621770D01*
X43836275Y-60651222D01*
X43843875Y-60681565D01*
X43848465Y-60712507D01*
X43850000Y-60743750D01*
X43850000Y-61456250D01*
X43848465Y-61487493D01*
X43843875Y-61518435D01*
X43836275Y-61548778D01*
X43825737Y-61578230D01*
X43812362Y-61606508D01*
X43796281Y-61633338D01*
X43777647Y-61658463D01*
X43756640Y-61681640D01*
X43733463Y-61702647D01*
X43708338Y-61721281D01*
X43681508Y-61737362D01*
X43653230Y-61750737D01*
X43623778Y-61761275D01*
X43593435Y-61768875D01*
X43562493Y-61773465D01*
X43531250Y-61775000D01*
X42893750Y-61775000D01*
X42862507Y-61773465D01*
X42831565Y-61768875D01*
X42801222Y-61761275D01*
X42771770Y-61750737D01*
X42743492Y-61737362D01*
X42716662Y-61721281D01*
X42691537Y-61702647D01*
X42668360Y-61681640D01*
X42647353Y-61658463D01*
X42628719Y-61633338D01*
X42612638Y-61606508D01*
X42599263Y-61578230D01*
X42588725Y-61548778D01*
X42581125Y-61518435D01*
X42576535Y-61487493D01*
X42575000Y-61456250D01*
X42575000Y-60743750D01*
X42576535Y-60712507D01*
X42581125Y-60681565D01*
X42588725Y-60651222D01*
X42599263Y-60621770D01*
X42612638Y-60593492D01*
X42628719Y-60566662D01*
X42647353Y-60541537D01*
X42668360Y-60518360D01*
X42691537Y-60497353D01*
X42716662Y-60478719D01*
X42743492Y-60462638D01*
X42771770Y-60449263D01*
X42801222Y-60438725D01*
X42831565Y-60431125D01*
X42862507Y-60426535D01*
X42893750Y-60425000D01*
X43531250Y-60425000D01*
X43562493Y-60426535D01*
X43562493Y-60426535D01*
G37*
D15*
X43212500Y-61100000D03*
D10*
G36*
X37687493Y-51076535D02*
G01*
X37718435Y-51081125D01*
X37748778Y-51088725D01*
X37778230Y-51099263D01*
X37806508Y-51112638D01*
X37833338Y-51128719D01*
X37858463Y-51147353D01*
X37881640Y-51168360D01*
X37902647Y-51191537D01*
X37921281Y-51216662D01*
X37937362Y-51243492D01*
X37950737Y-51271770D01*
X37961275Y-51301222D01*
X37968875Y-51331565D01*
X37973465Y-51362507D01*
X37975000Y-51393750D01*
X37975000Y-52031250D01*
X37973465Y-52062493D01*
X37968875Y-52093435D01*
X37961275Y-52123778D01*
X37950737Y-52153230D01*
X37937362Y-52181508D01*
X37921281Y-52208338D01*
X37902647Y-52233463D01*
X37881640Y-52256640D01*
X37858463Y-52277647D01*
X37833338Y-52296281D01*
X37806508Y-52312362D01*
X37778230Y-52325737D01*
X37748778Y-52336275D01*
X37718435Y-52343875D01*
X37687493Y-52348465D01*
X37656250Y-52350000D01*
X36943750Y-52350000D01*
X36912507Y-52348465D01*
X36881565Y-52343875D01*
X36851222Y-52336275D01*
X36821770Y-52325737D01*
X36793492Y-52312362D01*
X36766662Y-52296281D01*
X36741537Y-52277647D01*
X36718360Y-52256640D01*
X36697353Y-52233463D01*
X36678719Y-52208338D01*
X36662638Y-52181508D01*
X36649263Y-52153230D01*
X36638725Y-52123778D01*
X36631125Y-52093435D01*
X36626535Y-52062493D01*
X36625000Y-52031250D01*
X36625000Y-51393750D01*
X36626535Y-51362507D01*
X36631125Y-51331565D01*
X36638725Y-51301222D01*
X36649263Y-51271770D01*
X36662638Y-51243492D01*
X36678719Y-51216662D01*
X36697353Y-51191537D01*
X36718360Y-51168360D01*
X36741537Y-51147353D01*
X36766662Y-51128719D01*
X36793492Y-51112638D01*
X36821770Y-51099263D01*
X36851222Y-51088725D01*
X36881565Y-51081125D01*
X36912507Y-51076535D01*
X36943750Y-51075000D01*
X37656250Y-51075000D01*
X37687493Y-51076535D01*
X37687493Y-51076535D01*
G37*
D15*
X37300000Y-51712500D03*
D10*
G36*
X37687493Y-52651535D02*
G01*
X37718435Y-52656125D01*
X37748778Y-52663725D01*
X37778230Y-52674263D01*
X37806508Y-52687638D01*
X37833338Y-52703719D01*
X37858463Y-52722353D01*
X37881640Y-52743360D01*
X37902647Y-52766537D01*
X37921281Y-52791662D01*
X37937362Y-52818492D01*
X37950737Y-52846770D01*
X37961275Y-52876222D01*
X37968875Y-52906565D01*
X37973465Y-52937507D01*
X37975000Y-52968750D01*
X37975000Y-53606250D01*
X37973465Y-53637493D01*
X37968875Y-53668435D01*
X37961275Y-53698778D01*
X37950737Y-53728230D01*
X37937362Y-53756508D01*
X37921281Y-53783338D01*
X37902647Y-53808463D01*
X37881640Y-53831640D01*
X37858463Y-53852647D01*
X37833338Y-53871281D01*
X37806508Y-53887362D01*
X37778230Y-53900737D01*
X37748778Y-53911275D01*
X37718435Y-53918875D01*
X37687493Y-53923465D01*
X37656250Y-53925000D01*
X36943750Y-53925000D01*
X36912507Y-53923465D01*
X36881565Y-53918875D01*
X36851222Y-53911275D01*
X36821770Y-53900737D01*
X36793492Y-53887362D01*
X36766662Y-53871281D01*
X36741537Y-53852647D01*
X36718360Y-53831640D01*
X36697353Y-53808463D01*
X36678719Y-53783338D01*
X36662638Y-53756508D01*
X36649263Y-53728230D01*
X36638725Y-53698778D01*
X36631125Y-53668435D01*
X36626535Y-53637493D01*
X36625000Y-53606250D01*
X36625000Y-52968750D01*
X36626535Y-52937507D01*
X36631125Y-52906565D01*
X36638725Y-52876222D01*
X36649263Y-52846770D01*
X36662638Y-52818492D01*
X36678719Y-52791662D01*
X36697353Y-52766537D01*
X36718360Y-52743360D01*
X36741537Y-52722353D01*
X36766662Y-52703719D01*
X36793492Y-52687638D01*
X36821770Y-52674263D01*
X36851222Y-52663725D01*
X36881565Y-52656125D01*
X36912507Y-52651535D01*
X36943750Y-52650000D01*
X37656250Y-52650000D01*
X37687493Y-52651535D01*
X37687493Y-52651535D01*
G37*
D15*
X37300000Y-53287500D03*
D10*
G36*
X40637493Y-59151535D02*
G01*
X40668435Y-59156125D01*
X40698778Y-59163725D01*
X40728230Y-59174263D01*
X40756508Y-59187638D01*
X40783338Y-59203719D01*
X40808463Y-59222353D01*
X40831640Y-59243360D01*
X40852647Y-59266537D01*
X40871281Y-59291662D01*
X40887362Y-59318492D01*
X40900737Y-59346770D01*
X40911275Y-59376222D01*
X40918875Y-59406565D01*
X40923465Y-59437507D01*
X40925000Y-59468750D01*
X40925000Y-60106250D01*
X40923465Y-60137493D01*
X40918875Y-60168435D01*
X40911275Y-60198778D01*
X40900737Y-60228230D01*
X40887362Y-60256508D01*
X40871281Y-60283338D01*
X40852647Y-60308463D01*
X40831640Y-60331640D01*
X40808463Y-60352647D01*
X40783338Y-60371281D01*
X40756508Y-60387362D01*
X40728230Y-60400737D01*
X40698778Y-60411275D01*
X40668435Y-60418875D01*
X40637493Y-60423465D01*
X40606250Y-60425000D01*
X39893750Y-60425000D01*
X39862507Y-60423465D01*
X39831565Y-60418875D01*
X39801222Y-60411275D01*
X39771770Y-60400737D01*
X39743492Y-60387362D01*
X39716662Y-60371281D01*
X39691537Y-60352647D01*
X39668360Y-60331640D01*
X39647353Y-60308463D01*
X39628719Y-60283338D01*
X39612638Y-60256508D01*
X39599263Y-60228230D01*
X39588725Y-60198778D01*
X39581125Y-60168435D01*
X39576535Y-60137493D01*
X39575000Y-60106250D01*
X39575000Y-59468750D01*
X39576535Y-59437507D01*
X39581125Y-59406565D01*
X39588725Y-59376222D01*
X39599263Y-59346770D01*
X39612638Y-59318492D01*
X39628719Y-59291662D01*
X39647353Y-59266537D01*
X39668360Y-59243360D01*
X39691537Y-59222353D01*
X39716662Y-59203719D01*
X39743492Y-59187638D01*
X39771770Y-59174263D01*
X39801222Y-59163725D01*
X39831565Y-59156125D01*
X39862507Y-59151535D01*
X39893750Y-59150000D01*
X40606250Y-59150000D01*
X40637493Y-59151535D01*
X40637493Y-59151535D01*
G37*
D15*
X40250000Y-59787500D03*
D10*
G36*
X40637493Y-57576535D02*
G01*
X40668435Y-57581125D01*
X40698778Y-57588725D01*
X40728230Y-57599263D01*
X40756508Y-57612638D01*
X40783338Y-57628719D01*
X40808463Y-57647353D01*
X40831640Y-57668360D01*
X40852647Y-57691537D01*
X40871281Y-57716662D01*
X40887362Y-57743492D01*
X40900737Y-57771770D01*
X40911275Y-57801222D01*
X40918875Y-57831565D01*
X40923465Y-57862507D01*
X40925000Y-57893750D01*
X40925000Y-58531250D01*
X40923465Y-58562493D01*
X40918875Y-58593435D01*
X40911275Y-58623778D01*
X40900737Y-58653230D01*
X40887362Y-58681508D01*
X40871281Y-58708338D01*
X40852647Y-58733463D01*
X40831640Y-58756640D01*
X40808463Y-58777647D01*
X40783338Y-58796281D01*
X40756508Y-58812362D01*
X40728230Y-58825737D01*
X40698778Y-58836275D01*
X40668435Y-58843875D01*
X40637493Y-58848465D01*
X40606250Y-58850000D01*
X39893750Y-58850000D01*
X39862507Y-58848465D01*
X39831565Y-58843875D01*
X39801222Y-58836275D01*
X39771770Y-58825737D01*
X39743492Y-58812362D01*
X39716662Y-58796281D01*
X39691537Y-58777647D01*
X39668360Y-58756640D01*
X39647353Y-58733463D01*
X39628719Y-58708338D01*
X39612638Y-58681508D01*
X39599263Y-58653230D01*
X39588725Y-58623778D01*
X39581125Y-58593435D01*
X39576535Y-58562493D01*
X39575000Y-58531250D01*
X39575000Y-57893750D01*
X39576535Y-57862507D01*
X39581125Y-57831565D01*
X39588725Y-57801222D01*
X39599263Y-57771770D01*
X39612638Y-57743492D01*
X39628719Y-57716662D01*
X39647353Y-57691537D01*
X39668360Y-57668360D01*
X39691537Y-57647353D01*
X39716662Y-57628719D01*
X39743492Y-57612638D01*
X39771770Y-57599263D01*
X39801222Y-57588725D01*
X39831565Y-57581125D01*
X39862507Y-57576535D01*
X39893750Y-57575000D01*
X40606250Y-57575000D01*
X40637493Y-57576535D01*
X40637493Y-57576535D01*
G37*
D15*
X40250000Y-58212500D03*
D10*
G36*
X40637493Y-54576535D02*
G01*
X40668435Y-54581125D01*
X40698778Y-54588725D01*
X40728230Y-54599263D01*
X40756508Y-54612638D01*
X40783338Y-54628719D01*
X40808463Y-54647353D01*
X40831640Y-54668360D01*
X40852647Y-54691537D01*
X40871281Y-54716662D01*
X40887362Y-54743492D01*
X40900737Y-54771770D01*
X40911275Y-54801222D01*
X40918875Y-54831565D01*
X40923465Y-54862507D01*
X40925000Y-54893750D01*
X40925000Y-55531250D01*
X40923465Y-55562493D01*
X40918875Y-55593435D01*
X40911275Y-55623778D01*
X40900737Y-55653230D01*
X40887362Y-55681508D01*
X40871281Y-55708338D01*
X40852647Y-55733463D01*
X40831640Y-55756640D01*
X40808463Y-55777647D01*
X40783338Y-55796281D01*
X40756508Y-55812362D01*
X40728230Y-55825737D01*
X40698778Y-55836275D01*
X40668435Y-55843875D01*
X40637493Y-55848465D01*
X40606250Y-55850000D01*
X39893750Y-55850000D01*
X39862507Y-55848465D01*
X39831565Y-55843875D01*
X39801222Y-55836275D01*
X39771770Y-55825737D01*
X39743492Y-55812362D01*
X39716662Y-55796281D01*
X39691537Y-55777647D01*
X39668360Y-55756640D01*
X39647353Y-55733463D01*
X39628719Y-55708338D01*
X39612638Y-55681508D01*
X39599263Y-55653230D01*
X39588725Y-55623778D01*
X39581125Y-55593435D01*
X39576535Y-55562493D01*
X39575000Y-55531250D01*
X39575000Y-54893750D01*
X39576535Y-54862507D01*
X39581125Y-54831565D01*
X39588725Y-54801222D01*
X39599263Y-54771770D01*
X39612638Y-54743492D01*
X39628719Y-54716662D01*
X39647353Y-54691537D01*
X39668360Y-54668360D01*
X39691537Y-54647353D01*
X39716662Y-54628719D01*
X39743492Y-54612638D01*
X39771770Y-54599263D01*
X39801222Y-54588725D01*
X39831565Y-54581125D01*
X39862507Y-54576535D01*
X39893750Y-54575000D01*
X40606250Y-54575000D01*
X40637493Y-54576535D01*
X40637493Y-54576535D01*
G37*
D15*
X40250000Y-55212500D03*
D10*
G36*
X40637493Y-56151535D02*
G01*
X40668435Y-56156125D01*
X40698778Y-56163725D01*
X40728230Y-56174263D01*
X40756508Y-56187638D01*
X40783338Y-56203719D01*
X40808463Y-56222353D01*
X40831640Y-56243360D01*
X40852647Y-56266537D01*
X40871281Y-56291662D01*
X40887362Y-56318492D01*
X40900737Y-56346770D01*
X40911275Y-56376222D01*
X40918875Y-56406565D01*
X40923465Y-56437507D01*
X40925000Y-56468750D01*
X40925000Y-57106250D01*
X40923465Y-57137493D01*
X40918875Y-57168435D01*
X40911275Y-57198778D01*
X40900737Y-57228230D01*
X40887362Y-57256508D01*
X40871281Y-57283338D01*
X40852647Y-57308463D01*
X40831640Y-57331640D01*
X40808463Y-57352647D01*
X40783338Y-57371281D01*
X40756508Y-57387362D01*
X40728230Y-57400737D01*
X40698778Y-57411275D01*
X40668435Y-57418875D01*
X40637493Y-57423465D01*
X40606250Y-57425000D01*
X39893750Y-57425000D01*
X39862507Y-57423465D01*
X39831565Y-57418875D01*
X39801222Y-57411275D01*
X39771770Y-57400737D01*
X39743492Y-57387362D01*
X39716662Y-57371281D01*
X39691537Y-57352647D01*
X39668360Y-57331640D01*
X39647353Y-57308463D01*
X39628719Y-57283338D01*
X39612638Y-57256508D01*
X39599263Y-57228230D01*
X39588725Y-57198778D01*
X39581125Y-57168435D01*
X39576535Y-57137493D01*
X39575000Y-57106250D01*
X39575000Y-56468750D01*
X39576535Y-56437507D01*
X39581125Y-56406565D01*
X39588725Y-56376222D01*
X39599263Y-56346770D01*
X39612638Y-56318492D01*
X39628719Y-56291662D01*
X39647353Y-56266537D01*
X39668360Y-56243360D01*
X39691537Y-56222353D01*
X39716662Y-56203719D01*
X39743492Y-56187638D01*
X39771770Y-56174263D01*
X39801222Y-56163725D01*
X39831565Y-56156125D01*
X39862507Y-56151535D01*
X39893750Y-56150000D01*
X40606250Y-56150000D01*
X40637493Y-56151535D01*
X40637493Y-56151535D01*
G37*
D15*
X40250000Y-56787500D03*
D10*
G36*
X46387493Y-47576535D02*
G01*
X46418435Y-47581125D01*
X46448778Y-47588725D01*
X46478230Y-47599263D01*
X46506508Y-47612638D01*
X46533338Y-47628719D01*
X46558463Y-47647353D01*
X46581640Y-47668360D01*
X46602647Y-47691537D01*
X46621281Y-47716662D01*
X46637362Y-47743492D01*
X46650737Y-47771770D01*
X46661275Y-47801222D01*
X46668875Y-47831565D01*
X46673465Y-47862507D01*
X46675000Y-47893750D01*
X46675000Y-48531250D01*
X46673465Y-48562493D01*
X46668875Y-48593435D01*
X46661275Y-48623778D01*
X46650737Y-48653230D01*
X46637362Y-48681508D01*
X46621281Y-48708338D01*
X46602647Y-48733463D01*
X46581640Y-48756640D01*
X46558463Y-48777647D01*
X46533338Y-48796281D01*
X46506508Y-48812362D01*
X46478230Y-48825737D01*
X46448778Y-48836275D01*
X46418435Y-48843875D01*
X46387493Y-48848465D01*
X46356250Y-48850000D01*
X45643750Y-48850000D01*
X45612507Y-48848465D01*
X45581565Y-48843875D01*
X45551222Y-48836275D01*
X45521770Y-48825737D01*
X45493492Y-48812362D01*
X45466662Y-48796281D01*
X45441537Y-48777647D01*
X45418360Y-48756640D01*
X45397353Y-48733463D01*
X45378719Y-48708338D01*
X45362638Y-48681508D01*
X45349263Y-48653230D01*
X45338725Y-48623778D01*
X45331125Y-48593435D01*
X45326535Y-48562493D01*
X45325000Y-48531250D01*
X45325000Y-47893750D01*
X45326535Y-47862507D01*
X45331125Y-47831565D01*
X45338725Y-47801222D01*
X45349263Y-47771770D01*
X45362638Y-47743492D01*
X45378719Y-47716662D01*
X45397353Y-47691537D01*
X45418360Y-47668360D01*
X45441537Y-47647353D01*
X45466662Y-47628719D01*
X45493492Y-47612638D01*
X45521770Y-47599263D01*
X45551222Y-47588725D01*
X45581565Y-47581125D01*
X45612507Y-47576535D01*
X45643750Y-47575000D01*
X46356250Y-47575000D01*
X46387493Y-47576535D01*
X46387493Y-47576535D01*
G37*
D15*
X46000000Y-48212500D03*
D10*
G36*
X46387493Y-49151535D02*
G01*
X46418435Y-49156125D01*
X46448778Y-49163725D01*
X46478230Y-49174263D01*
X46506508Y-49187638D01*
X46533338Y-49203719D01*
X46558463Y-49222353D01*
X46581640Y-49243360D01*
X46602647Y-49266537D01*
X46621281Y-49291662D01*
X46637362Y-49318492D01*
X46650737Y-49346770D01*
X46661275Y-49376222D01*
X46668875Y-49406565D01*
X46673465Y-49437507D01*
X46675000Y-49468750D01*
X46675000Y-50106250D01*
X46673465Y-50137493D01*
X46668875Y-50168435D01*
X46661275Y-50198778D01*
X46650737Y-50228230D01*
X46637362Y-50256508D01*
X46621281Y-50283338D01*
X46602647Y-50308463D01*
X46581640Y-50331640D01*
X46558463Y-50352647D01*
X46533338Y-50371281D01*
X46506508Y-50387362D01*
X46478230Y-50400737D01*
X46448778Y-50411275D01*
X46418435Y-50418875D01*
X46387493Y-50423465D01*
X46356250Y-50425000D01*
X45643750Y-50425000D01*
X45612507Y-50423465D01*
X45581565Y-50418875D01*
X45551222Y-50411275D01*
X45521770Y-50400737D01*
X45493492Y-50387362D01*
X45466662Y-50371281D01*
X45441537Y-50352647D01*
X45418360Y-50331640D01*
X45397353Y-50308463D01*
X45378719Y-50283338D01*
X45362638Y-50256508D01*
X45349263Y-50228230D01*
X45338725Y-50198778D01*
X45331125Y-50168435D01*
X45326535Y-50137493D01*
X45325000Y-50106250D01*
X45325000Y-49468750D01*
X45326535Y-49437507D01*
X45331125Y-49406565D01*
X45338725Y-49376222D01*
X45349263Y-49346770D01*
X45362638Y-49318492D01*
X45378719Y-49291662D01*
X45397353Y-49266537D01*
X45418360Y-49243360D01*
X45441537Y-49222353D01*
X45466662Y-49203719D01*
X45493492Y-49187638D01*
X45521770Y-49174263D01*
X45551222Y-49163725D01*
X45581565Y-49156125D01*
X45612507Y-49151535D01*
X45643750Y-49150000D01*
X46356250Y-49150000D01*
X46387493Y-49151535D01*
X46387493Y-49151535D01*
G37*
D15*
X46000000Y-49787500D03*
D10*
G36*
X36387493Y-49151535D02*
G01*
X36418435Y-49156125D01*
X36448778Y-49163725D01*
X36478230Y-49174263D01*
X36506508Y-49187638D01*
X36533338Y-49203719D01*
X36558463Y-49222353D01*
X36581640Y-49243360D01*
X36602647Y-49266537D01*
X36621281Y-49291662D01*
X36637362Y-49318492D01*
X36650737Y-49346770D01*
X36661275Y-49376222D01*
X36668875Y-49406565D01*
X36673465Y-49437507D01*
X36675000Y-49468750D01*
X36675000Y-50106250D01*
X36673465Y-50137493D01*
X36668875Y-50168435D01*
X36661275Y-50198778D01*
X36650737Y-50228230D01*
X36637362Y-50256508D01*
X36621281Y-50283338D01*
X36602647Y-50308463D01*
X36581640Y-50331640D01*
X36558463Y-50352647D01*
X36533338Y-50371281D01*
X36506508Y-50387362D01*
X36478230Y-50400737D01*
X36448778Y-50411275D01*
X36418435Y-50418875D01*
X36387493Y-50423465D01*
X36356250Y-50425000D01*
X35643750Y-50425000D01*
X35612507Y-50423465D01*
X35581565Y-50418875D01*
X35551222Y-50411275D01*
X35521770Y-50400737D01*
X35493492Y-50387362D01*
X35466662Y-50371281D01*
X35441537Y-50352647D01*
X35418360Y-50331640D01*
X35397353Y-50308463D01*
X35378719Y-50283338D01*
X35362638Y-50256508D01*
X35349263Y-50228230D01*
X35338725Y-50198778D01*
X35331125Y-50168435D01*
X35326535Y-50137493D01*
X35325000Y-50106250D01*
X35325000Y-49468750D01*
X35326535Y-49437507D01*
X35331125Y-49406565D01*
X35338725Y-49376222D01*
X35349263Y-49346770D01*
X35362638Y-49318492D01*
X35378719Y-49291662D01*
X35397353Y-49266537D01*
X35418360Y-49243360D01*
X35441537Y-49222353D01*
X35466662Y-49203719D01*
X35493492Y-49187638D01*
X35521770Y-49174263D01*
X35551222Y-49163725D01*
X35581565Y-49156125D01*
X35612507Y-49151535D01*
X35643750Y-49150000D01*
X36356250Y-49150000D01*
X36387493Y-49151535D01*
X36387493Y-49151535D01*
G37*
D15*
X36000000Y-49787500D03*
D10*
G36*
X36387493Y-47576535D02*
G01*
X36418435Y-47581125D01*
X36448778Y-47588725D01*
X36478230Y-47599263D01*
X36506508Y-47612638D01*
X36533338Y-47628719D01*
X36558463Y-47647353D01*
X36581640Y-47668360D01*
X36602647Y-47691537D01*
X36621281Y-47716662D01*
X36637362Y-47743492D01*
X36650737Y-47771770D01*
X36661275Y-47801222D01*
X36668875Y-47831565D01*
X36673465Y-47862507D01*
X36675000Y-47893750D01*
X36675000Y-48531250D01*
X36673465Y-48562493D01*
X36668875Y-48593435D01*
X36661275Y-48623778D01*
X36650737Y-48653230D01*
X36637362Y-48681508D01*
X36621281Y-48708338D01*
X36602647Y-48733463D01*
X36581640Y-48756640D01*
X36558463Y-48777647D01*
X36533338Y-48796281D01*
X36506508Y-48812362D01*
X36478230Y-48825737D01*
X36448778Y-48836275D01*
X36418435Y-48843875D01*
X36387493Y-48848465D01*
X36356250Y-48850000D01*
X35643750Y-48850000D01*
X35612507Y-48848465D01*
X35581565Y-48843875D01*
X35551222Y-48836275D01*
X35521770Y-48825737D01*
X35493492Y-48812362D01*
X35466662Y-48796281D01*
X35441537Y-48777647D01*
X35418360Y-48756640D01*
X35397353Y-48733463D01*
X35378719Y-48708338D01*
X35362638Y-48681508D01*
X35349263Y-48653230D01*
X35338725Y-48623778D01*
X35331125Y-48593435D01*
X35326535Y-48562493D01*
X35325000Y-48531250D01*
X35325000Y-47893750D01*
X35326535Y-47862507D01*
X35331125Y-47831565D01*
X35338725Y-47801222D01*
X35349263Y-47771770D01*
X35362638Y-47743492D01*
X35378719Y-47716662D01*
X35397353Y-47691537D01*
X35418360Y-47668360D01*
X35441537Y-47647353D01*
X35466662Y-47628719D01*
X35493492Y-47612638D01*
X35521770Y-47599263D01*
X35551222Y-47588725D01*
X35581565Y-47581125D01*
X35612507Y-47576535D01*
X35643750Y-47575000D01*
X36356250Y-47575000D01*
X36387493Y-47576535D01*
X36387493Y-47576535D01*
G37*
D15*
X36000000Y-48212500D03*
D13*
X33666726Y-51833274D03*
X32500000Y-51350000D03*
X31333274Y-51833274D03*
X30850000Y-53000000D03*
X31333274Y-54166726D03*
X32500000Y-54650000D03*
X33666726Y-54166726D03*
X34150000Y-53000000D03*
D14*
X32500000Y-53000000D03*
D16*
X45575000Y-55040000D03*
X43675000Y-55040000D03*
X43675000Y-57660000D03*
X44625000Y-57660000D03*
X45575000Y-57660000D03*
D11*
X40150000Y-52150000D03*
X40150000Y-44850000D03*
X35850000Y-44850000D03*
X40150000Y-61150000D03*
X40150000Y-53850000D03*
X35850000Y-53850000D03*
X46150000Y-61150000D03*
X41850000Y-61150000D03*
X41850000Y-53850000D03*
D10*
G36*
X42387493Y-57051535D02*
G01*
X42418435Y-57056125D01*
X42448778Y-57063725D01*
X42478230Y-57074263D01*
X42506508Y-57087638D01*
X42533338Y-57103719D01*
X42558463Y-57122353D01*
X42581640Y-57143360D01*
X42602647Y-57166537D01*
X42621281Y-57191662D01*
X42637362Y-57218492D01*
X42650737Y-57246770D01*
X42661275Y-57276222D01*
X42668875Y-57306565D01*
X42673465Y-57337507D01*
X42675000Y-57368750D01*
X42675000Y-58006250D01*
X42673465Y-58037493D01*
X42668875Y-58068435D01*
X42661275Y-58098778D01*
X42650737Y-58128230D01*
X42637362Y-58156508D01*
X42621281Y-58183338D01*
X42602647Y-58208463D01*
X42581640Y-58231640D01*
X42558463Y-58252647D01*
X42533338Y-58271281D01*
X42506508Y-58287362D01*
X42478230Y-58300737D01*
X42448778Y-58311275D01*
X42418435Y-58318875D01*
X42387493Y-58323465D01*
X42356250Y-58325000D01*
X41643750Y-58325000D01*
X41612507Y-58323465D01*
X41581565Y-58318875D01*
X41551222Y-58311275D01*
X41521770Y-58300737D01*
X41493492Y-58287362D01*
X41466662Y-58271281D01*
X41441537Y-58252647D01*
X41418360Y-58231640D01*
X41397353Y-58208463D01*
X41378719Y-58183338D01*
X41362638Y-58156508D01*
X41349263Y-58128230D01*
X41338725Y-58098778D01*
X41331125Y-58068435D01*
X41326535Y-58037493D01*
X41325000Y-58006250D01*
X41325000Y-57368750D01*
X41326535Y-57337507D01*
X41331125Y-57306565D01*
X41338725Y-57276222D01*
X41349263Y-57246770D01*
X41362638Y-57218492D01*
X41378719Y-57191662D01*
X41397353Y-57166537D01*
X41418360Y-57143360D01*
X41441537Y-57122353D01*
X41466662Y-57103719D01*
X41493492Y-57087638D01*
X41521770Y-57074263D01*
X41551222Y-57063725D01*
X41581565Y-57056125D01*
X41612507Y-57051535D01*
X41643750Y-57050000D01*
X42356250Y-57050000D01*
X42387493Y-57051535D01*
X42387493Y-57051535D01*
G37*
D15*
X42000000Y-57687500D03*
D10*
G36*
X42387493Y-55476535D02*
G01*
X42418435Y-55481125D01*
X42448778Y-55488725D01*
X42478230Y-55499263D01*
X42506508Y-55512638D01*
X42533338Y-55528719D01*
X42558463Y-55547353D01*
X42581640Y-55568360D01*
X42602647Y-55591537D01*
X42621281Y-55616662D01*
X42637362Y-55643492D01*
X42650737Y-55671770D01*
X42661275Y-55701222D01*
X42668875Y-55731565D01*
X42673465Y-55762507D01*
X42675000Y-55793750D01*
X42675000Y-56431250D01*
X42673465Y-56462493D01*
X42668875Y-56493435D01*
X42661275Y-56523778D01*
X42650737Y-56553230D01*
X42637362Y-56581508D01*
X42621281Y-56608338D01*
X42602647Y-56633463D01*
X42581640Y-56656640D01*
X42558463Y-56677647D01*
X42533338Y-56696281D01*
X42506508Y-56712362D01*
X42478230Y-56725737D01*
X42448778Y-56736275D01*
X42418435Y-56743875D01*
X42387493Y-56748465D01*
X42356250Y-56750000D01*
X41643750Y-56750000D01*
X41612507Y-56748465D01*
X41581565Y-56743875D01*
X41551222Y-56736275D01*
X41521770Y-56725737D01*
X41493492Y-56712362D01*
X41466662Y-56696281D01*
X41441537Y-56677647D01*
X41418360Y-56656640D01*
X41397353Y-56633463D01*
X41378719Y-56608338D01*
X41362638Y-56581508D01*
X41349263Y-56553230D01*
X41338725Y-56523778D01*
X41331125Y-56493435D01*
X41326535Y-56462493D01*
X41325000Y-56431250D01*
X41325000Y-55793750D01*
X41326535Y-55762507D01*
X41331125Y-55731565D01*
X41338725Y-55701222D01*
X41349263Y-55671770D01*
X41362638Y-55643492D01*
X41378719Y-55616662D01*
X41397353Y-55591537D01*
X41418360Y-55568360D01*
X41441537Y-55547353D01*
X41466662Y-55528719D01*
X41493492Y-55512638D01*
X41521770Y-55499263D01*
X41551222Y-55488725D01*
X41581565Y-55481125D01*
X41612507Y-55476535D01*
X41643750Y-55475000D01*
X42356250Y-55475000D01*
X42387493Y-55476535D01*
X42387493Y-55476535D01*
G37*
D15*
X42000000Y-56112500D03*
D10*
G36*
X44187493Y-52776535D02*
G01*
X44218435Y-52781125D01*
X44248778Y-52788725D01*
X44278230Y-52799263D01*
X44306508Y-52812638D01*
X44333338Y-52828719D01*
X44358463Y-52847353D01*
X44381640Y-52868360D01*
X44402647Y-52891537D01*
X44421281Y-52916662D01*
X44437362Y-52943492D01*
X44450737Y-52971770D01*
X44461275Y-53001222D01*
X44468875Y-53031565D01*
X44473465Y-53062507D01*
X44475000Y-53093750D01*
X44475000Y-53806250D01*
X44473465Y-53837493D01*
X44468875Y-53868435D01*
X44461275Y-53898778D01*
X44450737Y-53928230D01*
X44437362Y-53956508D01*
X44421281Y-53983338D01*
X44402647Y-54008463D01*
X44381640Y-54031640D01*
X44358463Y-54052647D01*
X44333338Y-54071281D01*
X44306508Y-54087362D01*
X44278230Y-54100737D01*
X44248778Y-54111275D01*
X44218435Y-54118875D01*
X44187493Y-54123465D01*
X44156250Y-54125000D01*
X43518750Y-54125000D01*
X43487507Y-54123465D01*
X43456565Y-54118875D01*
X43426222Y-54111275D01*
X43396770Y-54100737D01*
X43368492Y-54087362D01*
X43341662Y-54071281D01*
X43316537Y-54052647D01*
X43293360Y-54031640D01*
X43272353Y-54008463D01*
X43253719Y-53983338D01*
X43237638Y-53956508D01*
X43224263Y-53928230D01*
X43213725Y-53898778D01*
X43206125Y-53868435D01*
X43201535Y-53837493D01*
X43200000Y-53806250D01*
X43200000Y-53093750D01*
X43201535Y-53062507D01*
X43206125Y-53031565D01*
X43213725Y-53001222D01*
X43224263Y-52971770D01*
X43237638Y-52943492D01*
X43253719Y-52916662D01*
X43272353Y-52891537D01*
X43293360Y-52868360D01*
X43316537Y-52847353D01*
X43341662Y-52828719D01*
X43368492Y-52812638D01*
X43396770Y-52799263D01*
X43426222Y-52788725D01*
X43456565Y-52781125D01*
X43487507Y-52776535D01*
X43518750Y-52775000D01*
X44156250Y-52775000D01*
X44187493Y-52776535D01*
X44187493Y-52776535D01*
G37*
D15*
X43837500Y-53450000D03*
D10*
G36*
X45762493Y-52776535D02*
G01*
X45793435Y-52781125D01*
X45823778Y-52788725D01*
X45853230Y-52799263D01*
X45881508Y-52812638D01*
X45908338Y-52828719D01*
X45933463Y-52847353D01*
X45956640Y-52868360D01*
X45977647Y-52891537D01*
X45996281Y-52916662D01*
X46012362Y-52943492D01*
X46025737Y-52971770D01*
X46036275Y-53001222D01*
X46043875Y-53031565D01*
X46048465Y-53062507D01*
X46050000Y-53093750D01*
X46050000Y-53806250D01*
X46048465Y-53837493D01*
X46043875Y-53868435D01*
X46036275Y-53898778D01*
X46025737Y-53928230D01*
X46012362Y-53956508D01*
X45996281Y-53983338D01*
X45977647Y-54008463D01*
X45956640Y-54031640D01*
X45933463Y-54052647D01*
X45908338Y-54071281D01*
X45881508Y-54087362D01*
X45853230Y-54100737D01*
X45823778Y-54111275D01*
X45793435Y-54118875D01*
X45762493Y-54123465D01*
X45731250Y-54125000D01*
X45093750Y-54125000D01*
X45062507Y-54123465D01*
X45031565Y-54118875D01*
X45001222Y-54111275D01*
X44971770Y-54100737D01*
X44943492Y-54087362D01*
X44916662Y-54071281D01*
X44891537Y-54052647D01*
X44868360Y-54031640D01*
X44847353Y-54008463D01*
X44828719Y-53983338D01*
X44812638Y-53956508D01*
X44799263Y-53928230D01*
X44788725Y-53898778D01*
X44781125Y-53868435D01*
X44776535Y-53837493D01*
X44775000Y-53806250D01*
X44775000Y-53093750D01*
X44776535Y-53062507D01*
X44781125Y-53031565D01*
X44788725Y-53001222D01*
X44799263Y-52971770D01*
X44812638Y-52943492D01*
X44828719Y-52916662D01*
X44847353Y-52891537D01*
X44868360Y-52868360D01*
X44891537Y-52847353D01*
X44916662Y-52828719D01*
X44943492Y-52812638D01*
X44971770Y-52799263D01*
X45001222Y-52788725D01*
X45031565Y-52781125D01*
X45062507Y-52776535D01*
X45093750Y-52775000D01*
X45731250Y-52775000D01*
X45762493Y-52776535D01*
X45762493Y-52776535D01*
G37*
D15*
X45412500Y-53450000D03*
D10*
G36*
X44162493Y-51326535D02*
G01*
X44193435Y-51331125D01*
X44223778Y-51338725D01*
X44253230Y-51349263D01*
X44281508Y-51362638D01*
X44308338Y-51378719D01*
X44333463Y-51397353D01*
X44356640Y-51418360D01*
X44377647Y-51441537D01*
X44396281Y-51466662D01*
X44412362Y-51493492D01*
X44425737Y-51521770D01*
X44436275Y-51551222D01*
X44443875Y-51581565D01*
X44448465Y-51612507D01*
X44450000Y-51643750D01*
X44450000Y-52356250D01*
X44448465Y-52387493D01*
X44443875Y-52418435D01*
X44436275Y-52448778D01*
X44425737Y-52478230D01*
X44412362Y-52506508D01*
X44396281Y-52533338D01*
X44377647Y-52558463D01*
X44356640Y-52581640D01*
X44333463Y-52602647D01*
X44308338Y-52621281D01*
X44281508Y-52637362D01*
X44253230Y-52650737D01*
X44223778Y-52661275D01*
X44193435Y-52668875D01*
X44162493Y-52673465D01*
X44131250Y-52675000D01*
X43493750Y-52675000D01*
X43462507Y-52673465D01*
X43431565Y-52668875D01*
X43401222Y-52661275D01*
X43371770Y-52650737D01*
X43343492Y-52637362D01*
X43316662Y-52621281D01*
X43291537Y-52602647D01*
X43268360Y-52581640D01*
X43247353Y-52558463D01*
X43228719Y-52533338D01*
X43212638Y-52506508D01*
X43199263Y-52478230D01*
X43188725Y-52448778D01*
X43181125Y-52418435D01*
X43176535Y-52387493D01*
X43175000Y-52356250D01*
X43175000Y-51643750D01*
X43176535Y-51612507D01*
X43181125Y-51581565D01*
X43188725Y-51551222D01*
X43199263Y-51521770D01*
X43212638Y-51493492D01*
X43228719Y-51466662D01*
X43247353Y-51441537D01*
X43268360Y-51418360D01*
X43291537Y-51397353D01*
X43316662Y-51378719D01*
X43343492Y-51362638D01*
X43371770Y-51349263D01*
X43401222Y-51338725D01*
X43431565Y-51331125D01*
X43462507Y-51326535D01*
X43493750Y-51325000D01*
X44131250Y-51325000D01*
X44162493Y-51326535D01*
X44162493Y-51326535D01*
G37*
D15*
X43812500Y-52000000D03*
D10*
G36*
X45737493Y-51326535D02*
G01*
X45768435Y-51331125D01*
X45798778Y-51338725D01*
X45828230Y-51349263D01*
X45856508Y-51362638D01*
X45883338Y-51378719D01*
X45908463Y-51397353D01*
X45931640Y-51418360D01*
X45952647Y-51441537D01*
X45971281Y-51466662D01*
X45987362Y-51493492D01*
X46000737Y-51521770D01*
X46011275Y-51551222D01*
X46018875Y-51581565D01*
X46023465Y-51612507D01*
X46025000Y-51643750D01*
X46025000Y-52356250D01*
X46023465Y-52387493D01*
X46018875Y-52418435D01*
X46011275Y-52448778D01*
X46000737Y-52478230D01*
X45987362Y-52506508D01*
X45971281Y-52533338D01*
X45952647Y-52558463D01*
X45931640Y-52581640D01*
X45908463Y-52602647D01*
X45883338Y-52621281D01*
X45856508Y-52637362D01*
X45828230Y-52650737D01*
X45798778Y-52661275D01*
X45768435Y-52668875D01*
X45737493Y-52673465D01*
X45706250Y-52675000D01*
X45068750Y-52675000D01*
X45037507Y-52673465D01*
X45006565Y-52668875D01*
X44976222Y-52661275D01*
X44946770Y-52650737D01*
X44918492Y-52637362D01*
X44891662Y-52621281D01*
X44866537Y-52602647D01*
X44843360Y-52581640D01*
X44822353Y-52558463D01*
X44803719Y-52533338D01*
X44787638Y-52506508D01*
X44774263Y-52478230D01*
X44763725Y-52448778D01*
X44756125Y-52418435D01*
X44751535Y-52387493D01*
X44750000Y-52356250D01*
X44750000Y-51643750D01*
X44751535Y-51612507D01*
X44756125Y-51581565D01*
X44763725Y-51551222D01*
X44774263Y-51521770D01*
X44787638Y-51493492D01*
X44803719Y-51466662D01*
X44822353Y-51441537D01*
X44843360Y-51418360D01*
X44866537Y-51397353D01*
X44891662Y-51378719D01*
X44918492Y-51362638D01*
X44946770Y-51349263D01*
X44976222Y-51338725D01*
X45006565Y-51331125D01*
X45037507Y-51326535D01*
X45068750Y-51325000D01*
X45706250Y-51325000D01*
X45737493Y-51326535D01*
X45737493Y-51326535D01*
G37*
D15*
X45387500Y-52000000D03*
M02*
